<?xml version="1.0" encoding="utf-8"?>
<!-- Generator: Adobe Illustrator 22.0.0, SVG Export Plug-In . SVG Version: 6.00 Build 0)  -->
<svg version="1.1" id="Layer_1" xmlns="http://www.w3.org/2000/svg" xmlns:xlink="http://www.w3.org/1999/xlink" x="0px" y="0px"
	 viewBox="0 0 800 800" style="enable-background:new 0 0 800 800;" xml:space="preserve">
<style type="text/css">
	.st0{fill:#C5B358;}
	.st1{fill:#212121;}
</style>
<path class="st0" d="M619.6,389.6l-13.1-24.9c-5.3-10.5-11-20.8-16.3-31.3l-68.4-130.8c-1.3-2-2.2-4.2-3.3-6.3l-13.1-24.9
	c-0.6-1.2-1-2-1.6-3.2c-0.6-1.2-1-1.8-1.7-3l-45.5-87.4c-2.2-4.2-4.7-7.9-7.2-11.7c-6-9.1-18.4-23.1-29.6-27.5
	c-4.3-1.7-9.2-2.7-14.3-3h-8l-0.2,0.2c-7.1,0.5-14.1,2.1-20,4.8c-3.1,1.4-5.4,2.6-8.3,4.3l-7.5,5.1c1.2,1.9,3.3,3.3,4.9,4.7l4.8,4.7
	c0.8,0.7,1,0.7,1.7,1.4c0.7,0.7,0.9,1,1.7,1.5c0.9-0.2,2.4-1.2,3.4-1.7c11.5-5.7,25.4-9.6,37.3-2.5c5.4,3.3,10.2,7.5,14.1,12.5
	c6.2,7.9,11.2,17.8,15.7,26.8l5.5,10.4c6.4,13,13.7,25.5,20.2,38.5c4.6,9.4,10.1,18.6,14.8,28c0.7,1.3,1.1,2.3,1.8,3.6
	c0.7,1.3,1.2,2.1,1.9,3.5c7,14.1,14.9,27.7,22,41.8c1.8,3.5,3.6,7.2,5.6,10.6l21.9,41.8c0.7,1.3,1.2,2.1,1.9,3.5l7.3,14
	c4.7,9.4,10.1,18.4,14.7,27.8l16.6,31.6c1.2,2.4,2.4,4.4,3.6,6.9c5.9,11.7,12.6,23.1,18.4,34.9c5,10.1,9.6,22.5,5.7,34.1l-2.5,5.1
	c-4.7,8.5-11.2,16.1-20.3,19.9l-4.1,1.3c-3.5,1.5-2.5,3-10.4,3c-6.5,0-11.8-5.4-15.7-9.4c-1.4-1.4-8.2-12.3-10.2-15.2l-18.2-24
	c-1.3-1.7-2.5-3.2-3.8-4.8c-3.9-4.9-12.4-14.2-16.5-17.4c-0.9-0.7-1.3-1.2-2.1-2c-0.9-0.9-1.4-1.1-2.2-1.9c-1.6-1.5-3-2.5-4.6-4
	c-11.3-10.1-32-23.2-45.6-30.2l-11.2-5.6c-3.5-1.7-15.4-7.5-18-7.7l5-17.5c5.2-21,7-41.3,7-64c0-5.4-0.1-11.5-0.6-16.2
	c-0.6-5.3-0.3-10-1.2-15.9c-1.4-10.3-2-19.2-4.4-29.8c-3.1-13.3-5.7-20.9-9.9-32.5l-7.8-17.8c-0.9-1.8-1.7-3.7-2.8-5.4
	c-2.7-4.4-4.8-9.2-7.7-13.6l-8.4-13.1c-1.2-1.8-2.2-3.3-3.5-5.1c-3.2-4.9-7.2-10.1-10.9-14.4c-0.7-0.8-1.2-1.4-1.9-2.2
	c-2.5-3-5.3-6.6-8-9.2l-8.3-8.9c-0.9-0.8-1.4-1.4-2.3-2.1c-1.6-1.2-2.8-3-4.4-4.1l-19.1,35.8c-0.6,1.1-1.1,2.2-1.7,3.3
	c-0.7,1.2-1.2,2.1-1.7,3.3c-0.7,1.2-1.2,2-1.8,3.3c-5.9,11.7-13.4,24.5-19.1,36c-0.6,1.1-1.1,2.2-1.7,3.3c-0.7,1.2-1.2,2.1-1.7,3.3
	c-0.7,1.2-1.2,2-1.8,3.3L287,184.8c-1.8,3.3-3.3,6.8-5.2,10c-3.8,6.3-6.8,13.3-10.4,19.7c-0.7,1.2-1.2,1.9-1.8,3.3l-29.7,55.9
	c-6,12.2-13.1,23.8-19.1,36c-7,14.3-15.6,28.1-22.9,42.7c-2.2,4.5-4.6,8.6-6.6,13.3c-2,4.6-4.6,9.2-6.5,13.8
	c-3.7,9-9.9,19.8-11.2,29.1c-1.2,8.7-1.2,18.5,1.3,26.9c0.8,2.7,1.7,4.8,2.8,7.4c0.9,2.2,2.4,4.3,3.6,6.2c2.4,3.9,5.9,8,9.5,10.8
	c5.8,4.7,11.7,8.3,18.9,11.2c8.4,3.3,13,3.3,22,3.3c24.6,0,47.6-3.9,66-10.1c11.5-3.8,25.5-9.9,35.1-17.2c4.6-3.4,10-5.9,14.6-9.1
	l16.2-12.3c5.7-4.6,11.7-11.1,16.8-16.5l4.4-5.1c4.9-6.2,9.9-12.5,14.1-19.1c3.7-5.7,14.6-24.5,16.2-31.3c3.6,0,9.7,3.3,12.5,4.6
	c2,1,3.7,1.8,5.7,2.8l13.9,7.6c1,0.5,1.9,1,2.8,1.6c10.3,6.2,16.4,9.4,26.1,17c6.5,5,12.5,10.6,18.5,16.1l6.3,6.7
	c0.7,0.8,1.4,1.4,2.2,2.2c1.6,1.5,2.5,2.9,4.1,4.4c0.9,0.9,1.1,1.4,1.9,2.2c0.4,0.5,0.7,0.7,1.1,1.2l16.4,20.4
	c1.3,1.8,2.5,3.3,3.8,5.1c2.5,3.3,4.6,6.7,7,10.2c1.8,2.7,3.3,5.2,5.4,7.7c0.7,0.8,1.4,1.2,2.3,2.1c3,3.1,6.7,5.1,10.7,6.7
	c2.4,1,3.8,1.4,6.5,2.1c8.8,2.1,17.4,0.1,25.4-2.6c4.9-1.6,9.7-4.1,13.8-7.2c1.5-1.2,2.5-1.8,4-3c0.7-0.7,1.1-0.8,1.9-1.6
	c11.3-11.2,19.7-23.1,19.7-40.5C627.2,409.8,624.5,398.2,619.6,389.6z M379.5,379.9c-2.2,3.3-10.3,13.4-13,16.2l-14.9,14.3
	c-16,14.3-37.3,26.5-57,34.6c-3.9,1.6-7.7,3.1-11.9,4.6c-1.2,0.4-2,0.6-3.2,0.9c-11.3,3.7-27,6.5-39.4,6.5l0.2,0.1
	c-12.5,0-22-0.7-32.3-7c-7.8-4.6-13.6-11.1-16.2-20.9c-3-11.5-0.3-19.9,4.2-30.4c3.8-8.8,8.6-15.7,14.6-22.8
	c3-3.6,10.7-10.2,14.7-12.8c2.1-1.3,3.8-2.2,5.9-3.6c11.7-7,26.5-12.5,39.9-15.9c21.8-5.4,38.9-6.7,61.7-6.5l13.9,0.9
	c3.3,0.1,14.1,1.5,17.5,2.1c5.9,0.9,10.9,2,16.5,3.1l16,3.9C394.5,356.6,385.1,371.7,379.5,379.9z M416.1,256.4
	c-0.1,1.7-0.4,2.4-0.4,4.4c0.1,6.4-0.6,9.4-0.7,14c-0.1,10.2-4.3,31.6-7.1,41.5l-4.9,14.7l-9.5-3.6c-15.4-5.6-40.1-8.8-56.8-8.8
	c-4.3,0-8.7,0-13,0c-2.5,0-3.8,0.2-6.4,0.3c-1.5,0.1-1.4,0.3-2.8,0.4l-26.5,3c-7.7,1.3-14.7,2.7-21.9,4.4
	c-7.2,1.8-13.9,3.4-20.7,5.7l-19.5,6.4l0,0.1h-0.2l0.3-0.1l9.9-18.8c0.7-1.4,1.2-2.7,2-4c0.8-1.3,1.3-2.5,2-3.8
	c0.7-1.3,1.4-2.4,2.1-3.9l28.2-53.3c0.7-1.4,1.3-2.3,2-3.7c0.7-1.4,1.4-2.5,2.1-3.9l10-19.1c0.8-1.4,1.4-2.5,2.1-3.9
	c4.6-9.4,11.5-20.9,16.2-30.4l12.2-23.1c0.8-1.4,1.3-2.3,2-3.7c0.8-1.5,1.4-2.4,2.1-3.9c0.7-1.4,1.2-2.4,2-3.7l12.1-22.8
	c0.8-1.5,1.4-2.5,2.1-3.9l8.1-15.3c1.4-2.6,2.6-5,4-7.8c1.2-2.4,7.7-13.9,8-15.4c2.5,0.7,14.9,18.9,16.8,21.9
	c12.8,19.2,15.4,24.9,24.4,43.1c6.4,12.9,14.4,37.7,16.5,51.8c0.4,2.8,0.8,5.4,1.2,8.3c1.1,7.9,1.6,19.1,1.7,27.5
	C415.8,249.7,416.3,251.8,416.1,256.4z"/>
<g>
	<path class="st1" d="M135.8,764.6c-0.2-0.9-0.4-1.6-0.5-2c-0.1-0.4-0.2-1-0.4-1.7c-0.1-0.9-0.2-1.5-0.4-1.6c-0.1-0.1-0.1,0.3,0,1.2
		c0.1,0.5,0.2,0.9,0.2,1.2c0,0.3,0,0.6,0,0.9l0.4,1.1v0.2l-0.2,0.4c-0.1,0.1-0.3,0-0.5-0.4c-0.1-0.1-0.2-0.2-0.2-0.3
		s-0.1-0.1-0.2-0.3l-0.2-0.2c-0.4,0.1-0.7-0.6-1.2-2.1c-0.4-1.5-0.7-3.5-1-5.6c-0.1-0.7-0.2-1.9-0.3-3.7c-0.1-1.7-0.1-3.6-0.1-5.6
		s0-4,0.1-6c0.1-2,0.1-3.6,0.3-4.8c0.2-2.8,0.5-6.4,0.8-10.8c0.3-4.5,0.6-8.8,1-12.9c0.1-1.8,0.3-3.6,0.4-5.2
		c0.2-1.6,0.4-3.4,0.5-5.3c0.2-1.9,0.4-4.2,0.5-6.7c0.2-2.6,0.4-5.6,0.8-9.2c0.1-1.9,0.2-3.5,0.4-4.6c0.1-1.1,0.2-2,0.2-2.6
		c0-0.5,0-0.9,0-1.1c0-0.2-0.1-0.3-0.2-0.3c-0.2-0.2-0.4-0.3-0.6-0.2c-0.2,0.1-1.2,0.7-3.2,1.8c-0.6,0.2-1.1,0.5-1.6,0.8
		s-0.8,0.5-1.1,0.6c-0.2,0.2-0.5,0.4-0.9,0.6c-0.4,0.2-0.7,0.4-1.1,0.6c-0.2,0.2-0.4,0.4-0.6,0.4c-0.2,0.1-0.3,0.1-0.4,0.3l-0.4,0.2
		c-0.2,0-0.4,0.1-0.4,0.2s-0.1,0.2-0.2,0.2c-0.2,0-0.4,0.1-0.4,0.2c0,0.1-0.1,0.2-0.4,0.2l-0.2,0.2l-0.2,0.2c-0.1,0-0.2,0.1-0.4,0.2
		c-0.1,0.1-0.3,0.2-0.5,0.4c-0.4,0.4-0.7,0.5-0.9,0.5c-0.1,0.1-0.2,0.2-0.4,0.2c-0.1,0.1-0.2,0.2-0.3,0.2s-0.1,0.1-0.3,0.2
		c-0.2,0.1-0.4,0.2-0.4,0.4c-0.1,0.1-0.1,0.2-0.3,0.2c-0.1,0-0.5,0.2-1.1,0.6s-0.9,0.7-1.1,0.8c0,0.1-0.1,0.2-0.2,0.2
		c-0.1,0-0.4,0.1-0.7,0.4c-0.4,0.2-0.7,0.4-0.9,0.5c-0.1,0.1-0.2,0.2-0.3,0.4c-0.1,0.1-0.2,0.2-0.4,0.4l-0.7,0.4
		c-0.2,0-0.5,0.2-0.9,0.5c-0.2,0.1-0.5,0.3-0.7,0.5l-0.2,0.2c-0.4,0-0.8,0.2-1.2,0.7c-0.5,0.5-0.9,0.8-1.4,1.1
		c-0.1,0.1-0.5,0.4-1.2,0.9c-0.2,0.2-0.4,0.4-0.6,0.5c-0.2,0.1-0.3,0.2-0.3,0.4c-0.6,0.4-1.2,0.7-1.7,1.2c-0.5,0.4-1.1,0.9-1.7,1.3
		l-1.4,1.1c-0.1,0-0.4,0.2-0.7,0.5c-0.1,0.1-0.3,0.3-0.6,0.5c-0.3,0.2-0.6,0.5-0.8,0.7c-2.7,2.1-4.9,4.1-6.8,5.7
		c-1.8,1.6-4,3.6-6.4,5.9c-0.9,0.9-1.7,1.7-2.4,2.5c-0.6,0.7-1.1,1.3-1.4,2c-0.4,0.7-0.7,1.6-0.9,2.8s-0.5,2.6-0.9,4.5
		c-0.2,1.3-0.4,2.5-0.6,3.3c-0.2,0.8-0.3,1.4-0.4,1.6c0,0.1-0.1,0.6-0.2,1.3c-0.1,0.8-0.3,1.7-0.5,2.9c-0.6,2.8-1.1,5.4-1.5,7.8
		c-0.4,2.5-0.8,4.8-1.2,7.3c-0.1,0.5-0.4,0.7-0.7,0.7c-0.4,0-0.6-0.1-0.7-0.4c-0.1-0.4-0.4-0.5-0.7-0.4c-0.4,0-0.7-0.2-0.9-0.7
		c-0.1-0.5-0.3-0.7-0.5-0.7c-0.6,0-1-1.4-1.2-4.4c-0.2-2.9-0.2-6.1,0.2-9.6c0.2-1.8,0.4-2.8,0.4-3c0-0.2-0.1-0.3-0.4-0.3
		c-0.1,0-0.5,0.4-1.1,1.2c-0.6,0.8-1.2,1.6-2,2.7c-0.8,1.3-1.5,2-2,2c-0.4,0-0.6-0.2-0.7-0.5c-0.2-0.2-0.4-0.4-0.5-0.4h-0.4
		c0-0.1-0.1-0.2-0.4-0.2c-0.1,0-0.2-0.3-0.2-0.9c0-0.6-0.1-0.9-0.4-0.9c-0.2,0-0.4,0.1-0.4,0.4c0.1,0.2,0.1,0.3-0.1,0.2
		c-0.2-0.1-0.4-0.3-0.6-0.5c-0.2-0.7-0.2-1.6,0.1-2.9c0.3-1.1,1.1-3.1,2.5-5.7c0.9-1.9,2-3.9,3.3-5.8c1.2-1.9,2.5-3.8,3.8-5.4
		c0.5-0.6,0.9-1.2,1.2-1.9c0.4-0.6,0.6-1.1,0.9-1.3c0.2-0.2,0.4-0.8,0.6-1.7c0.2-0.9,0.4-1.8,0.6-2.8c0.4-1.8,0.7-3.5,1.1-5.1
		c0.4-1.5,0.8-3.3,1.2-5c0.5-1.7,1-3.7,1.6-5.7c0.6-2,1.3-4.5,2.1-7.3c0.5-1.5,0.9-2.9,1.2-3.9c0.3-1,0.6-2,1-3.2s0.7-2.4,1.2-3.8
		c0.4-1.4,1-3.3,1.7-5.4c0.9-2.9,2.2-6.5,3.7-10.8c1.5-4.4,3.1-8.7,4.5-13.1c1.5-4.4,2.9-8.3,4.2-11.8c1.2-3.5,2.1-5.8,2.7-6.8
		c0.1-0.1,0.3-0.6,0.6-1.5c0.3-0.9,0.7-1.9,1.2-3c0.5-1.2,0.9-2.2,1.2-3.3c0.3-0.9,0.6-1.5,0.8-1.8c0.1-0.2,0.4-0.9,0.8-2.1
		c0.4-1.2,0.9-2.5,1.3-3.8c0.9-2.2,1.7-4.1,2.2-5.4c0.5-1.3,1-2.6,1.5-3.6c0.4-0.5,0.5-0.8,0.5-1.1c0.1,0,0.2-0.1,0.2-0.2
		c0-0.2,0.1-0.5,0.2-0.7c0.1-0.2,0.3-0.7,0.5-1.3c0.2-0.6,0.5-1.3,0.9-1.9c0.2-0.7,0.5-1.4,0.7-2c0.2-0.6,0.5-1,0.7-1.2
		c0.1-0.2,0.3-0.7,0.6-1.4c0.3-0.7,0.6-1.5,1-2.6c2-4.6,4.1-8.7,6-12.5c1.9-3.7,3.9-7.3,6-10.8c2-3.4,3.8-5.9,5.2-7.7
		s2.8-3.1,4.3-4.1c0.8-0.5,1.5-0.6,2.1-0.5c1.4,0,2.8,0.6,3.8,1.8c0.5,0.5,1.1,0.9,1.8,1.4c1.9,0.8,3.4,2.6,4.2,5.2
		c0.1,0.4,0.3,0.8,0.4,1.3c0.2,0.5,0.4,1.1,0.6,1.7c0.2,0.5,0.5,1,0.7,1.6c0.2,0.6,0.4,1,0.5,1.2c0.8,2.8,1.2,7.7,1.1,14.7
		s-0.7,15.2-1.6,24.6c-0.1,0.8-0.2,1.6-0.3,2.5c-0.1,0.8-0.1,1.3-0.3,1.7c0,0.2,0,0.5,0,0.9c0,0.4-0.1,0.7-0.2,0.9
		c0,0.2,0,0.5-0.1,0.9c-0.1,0.4-0.1,0.7-0.1,0.9c0,0.5-0.1,1.3-0.4,2.6c0,0.6,0,1.2-0.1,1.7c-0.1,0.5-0.1,0.9-0.1,1.2
		c-0.1,0.4-0.2,0.7-0.2,1s0,0.6,0,0.8c-0.1,0.2-0.2,0.8-0.2,1.8c-0.2,0.7-0.4,1.6-0.4,2.8c-0.1,0.5-0.2,0.9-0.2,1.4
		c0,0.5-0.1,0.8-0.2,1.1c-0.2,1.4-0.4,2.9-0.5,4.3c-0.1,1.4-0.2,2.4-0.2,2.8c-0.1,0.8-0.2,1.8-0.4,3.1c-0.1,1.2-0.3,2.6-0.5,4
		c0,0.2,0,0.5-0.1,0.8c-0.1,0.3-0.1,0.6-0.1,0.8c-0.4,3.5-0.5,5.3-0.5,5.4c-0.1,0.4-0.2,0.9-0.3,1.5c-0.1,0.7-0.2,1.3-0.3,2
		c0,0.8,0,1.4-0.1,1.8c-0.1,0.4-0.1,1.1-0.3,2.4c-0.1,0.5-0.2,0.9-0.2,1.2c0,0.4,0,0.6,0,0.7c-0.1,0.1-0.2,0.2-0.2,0.4v0.7
		c0,0.2,0,0.5-0.1,0.9c-0.1,0.4-0.1,0.7-0.1,0.9c-0.1,0.4-0.2,0.9-0.2,1.8c-0.1,0.6,0,0.9,0.4,1.1c0.4,0.1,1.2,0.1,2.8,0
		c0.9-0.1,1.7-0.2,2.2-0.2c0.5,0,1.4,0.1,2.7,0.4c1.5,0.2,3.2,0.9,4.7,2c0.9,0.6,1.5,1.1,1.6,1.6c0.1,0.2,0.2,0.4,0.3,0.6
		c0.1,0.2,0.1,0.4,0.3,0.6s0.3,0.4,0.1,0.6c-0.2,0.2-0.4,0.1-0.6-0.1c-0.2-0.2-0.8-0.4-1.7-0.4s-1.7,0.1-2.5,0.4
		c-0.9,0.1-2.2,0.4-3.8,0.8s-3.1,0.9-4.4,1.5c-1.4,0.5-2.4,0.9-2.8,1.4c-0.2,0.2-0.4,0.4-0.4,0.6c-0.1,0.2-0.1,0.5-0.3,1
		c-0.1,0.5-0.2,1.2-0.4,2.1c-0.1,0.9-0.3,2.4-0.5,4.2c0,0.2,0,0.8-0.1,1.6c-0.1,0.8-0.2,1.7-0.3,2.8c-0.2,0.9-0.4,2.1-0.5,3.5
		c-0.1,1.3-0.2,2.5-0.4,3.5c-0.1,0.9-0.2,1.8-0.4,2.7c-0.1,0.8-0.2,1.3-0.2,1.5c0,0.2,0,0.5-0.1,0.8s-0.1,0.6-0.1,0.8
		c0,0.2,0,0.5-0.1,0.8c-0.1,0.3-0.1,0.6-0.1,0.8s-0.1,0.9-0.3,2.1s-0.3,2.6-0.4,4s-0.3,2.8-0.4,4c-0.2,1.2-0.3,1.9-0.3,2.1
		c0,0.2-0.1,0.8-0.2,1.8c-0.1,0.9-0.3,2-0.4,3.2c-0.2,1.1-0.3,2.2-0.4,3.3s-0.2,1.7-0.2,2c0,0.2,0,0.6-0.1,1.2
		c-0.1,0.5-0.1,1-0.1,1.5c-0.1,0.4-0.2,0.9-0.3,1.5c-0.1,0.7-0.2,1.2-0.3,1.7c0,0.6,0,1.1-0.1,1.5c-0.1,0.4-0.1,0.7-0.1,1
		c-0.1,0.2-0.2,0.7-0.3,1.5c-0.1,0.8-0.2,1.6-0.3,2.7c-0.1,1.1-0.2,2-0.4,2.9c-0.1,0.8-0.2,1.3-0.2,1.5c0,0.2,0,0.5-0.1,0.8
		s-0.1,0.6-0.1,1c-0.1,0.4-0.2,0.7-0.2,1s0,0.6,0,0.8c0,0.1,0,0.4-0.1,1c-0.1,0.5-0.1,1.1-0.3,1.7c-0.1,0.6-0.2,1.2-0.2,1.8
		c0,0.6-0.1,1-0.2,1.2c-0.2,2.8-0.4,5.1-0.5,7.1c-0.1,1.9-0.2,4.1-0.2,6.3c-0.1,2-0.2,3.5-0.2,4.3c0,0.8-0.1,1.1-0.2,1
		c-0.2,0-0.4,0.1-0.5,0.2C136,765.6,135.9,765.4,135.8,764.6z M67.5,728.9c0.1-0.2,0.2-0.5,0.4-0.8c0.1-0.3,0.3-0.6,0.5-0.8
		c0.6-1.2,1.1-2.1,1.5-2.9c0.4-0.7,0.7-1.2,1-1.4l0.4-0.7c0-0.1,0.2-0.4,0.7-0.9c0.4-0.6,0.5-0.9,0.4-0.9v-0.2
		c0.2,0,0.5-0.2,0.7-0.7c0.6-0.6,0.8-0.9,0.7-0.9c0.2-0.2,0.6-0.8,1-1.8c0.4-0.9,0.5-1.4,0.3-1.4c-0.1,0-0.4,0.3-0.8,0.9
		c-0.4,0.6-0.9,1.4-1.6,2.4c-0.7,0.9-1.3,2-2,3.2s-1.3,2.2-1.9,3.2c-1.8,3.2-2.5,4.7-2,4.7C67.1,729.6,67.3,729.4,67.5,728.9z
		 M82.5,699.9c1.9-6.7,4.3-14.4,7.1-22.9c2.8-8.5,5.7-17,8.9-25.3c0.4-1.2,0.8-2.5,1.2-3.7c0.5-1.2,0.8-2.2,1.1-2.8
		c0.6-1.9,1.5-4.6,2.9-8c1.2-3.4,2.6-6.8,3.9-10.2c1.3-3.5,2.6-6.5,3.6-9.2c1-2.8,1.6-4.3,1.9-4.8l0.4-0.7c0-0.2,0.4-1.3,1.2-3.3
		c0.6-1.4,1-2.5,1.2-3c0.2-0.5,0.5-1.2,1-2l0.4-1.1c0.6-1.4,1.1-2.7,1.4-3.6c0.4-0.9,0.7-1.9,1.2-2.8c0.4-0.9,0.7-1.6,1-2.2
		c0.2-0.2,0.5-0.7,0.7-1.4c0.2-0.4,0.4-0.8,0.6-1.2c0.2-0.5,0.4-0.9,0.6-1.4c0.2-0.4,0.4-0.8,0.6-1.2c0.2-0.5,0.3-0.8,0.4-1.1
		c0.5-0.9,1.1-2.4,2-4.1c0.8-1.7,1.7-3.6,2.7-5.4c0.9-1.8,1.7-3.6,2.6-5.2c0.8-1.5,1.3-2.8,1.7-3.5c0.2-0.2,0.4-0.5,0.4-0.7
		c0.1-0.2,0.1-0.5,0.3-0.7c0.1-0.2,0.2-0.4,0.4-0.5c0-0.1,0.1-0.2,0.2-0.4c0.1-0.1,0.2-0.2,0.3-0.4c0.1-0.1,0.2-0.3,0.4-0.5
		c0.5-0.8,1-1.8,1.6-2.9c0.6-1.1,0.9-1.7,0.9-1.8l0.5-0.5c0.2-0.2,0.4-0.4,0.4-0.5s0.1-0.2,0.2-0.4c0.1-0.1,0.3-0.4,0.5-0.9
		c0.5-0.7,0.6-1.1,0.5-1.1c-0.1,0,0.4-0.7,1.4-2.1c0.4-0.5,0.6-0.8,0.7-1.1c0.1-0.2,0.1-0.2-0.2,0h-0.5c0,0.4-0.3,0.8-0.9,1.4
		c-0.4,0.4-0.7,0.7-0.9,1s-0.4,0.5-0.5,0.6c-0.1,0.2-0.3,0.6-0.6,1s-0.6,0.9-1,1.5c-1.7,2.6-3.7,5.9-6,10.1
		c-2.4,4.2-4.5,8.5-6.4,12.7c-0.5,1.1-1,2.4-1.7,3.8c-0.7,1.4-1.3,2.9-1.9,4.2c-0.6,1.3-1.3,3-2.1,4.9c0,0.1-0.2,0.7-0.7,1.6
		c-0.2,0.5-0.5,1.1-0.9,2c-0.4,0.8-0.7,1.7-1.1,2.6c-0.2,0.9-0.5,1.7-0.8,2.5c-0.3,0.7-0.5,1.1-0.6,1.3c-0.4,0.6-0.9,1.9-1.6,3.9
		c-0.7,2-1.6,4.3-2.7,6.8c-1,2.6-2,5.3-3.2,8.3c-1.1,2.9-2.1,5.6-3.1,8.1c-0.9,2.5-1.7,4.7-2.5,6.5c-0.7,1.8-1,3-1.2,3.4
		c0,0.2-0.1,0.6-0.4,1.1c-0.1,0.2-0.3,0.7-0.5,1.3c-0.2,0.7-0.5,1.4-0.9,2.5c-0.2,0.9-0.6,2-1.1,3.3c-0.5,1.2-0.8,2.2-1.1,3.3
		c-0.4,0.8-0.9,2.5-1.7,4.8c-0.8,2.4-1.6,4.7-2.5,7.2c-3.1,9-5.4,16.3-7.2,22.1c-1.7,5.8-2.9,10-3.4,12.7c-0.2,0.7-0.2,0.9,0.1,0.6
		C82,701.5,82.2,700.9,82.5,699.9z M94.8,696.1c0.5-0.5,1.3-1.2,2.6-2.2c1.2-1,2.5-2,3.8-3.2c1.3-1.1,2.6-2.1,3.8-3.2
		c1.2-1,2.1-1.7,2.9-2.2c0.9-0.7,1.9-1.4,2.8-2c0.9-0.6,1.5-1.1,1.9-1.3s0.6-0.4,0.9-0.6c0.2-0.2,0.4-0.3,0.5-0.3
		c0.1,0,0.4-0.2,0.7-0.5c0.2-0.1,0.4-0.2,0.6-0.4c0.2-0.1,0.4-0.2,0.6-0.4c1.1-0.6,1.6-1.1,1.6-1.4c-0.4,0.4-0.8,0.5-1.2,0.5v0.2
		c0.1,0,0.1,0,0.1,0.1c-0.1,0.1-0.2,0.1-0.3,0.1c-0.2,0-0.4,0.1-0.4,0.4c0,0.1-0.1,0.2-0.4,0.2c0-0.1-0.1-0.1-0.4,0.2
		c0,0.2-0.1,0.4-0.4,0.4c-0.4,0-0.6,0.1-0.7,0.2c0,0.2-0.2,0.4-0.7,0.4c-0.2,0-0.4,0.1-0.4,0.4c0,0.1-0.2,0.2-0.5,0.2
		c-0.4,0.1-0.4,0.2-0.2,0.4c0.1,0,0.1,0,0.1,0.1c-0.1,0.1-0.2,0-0.4-0.1c-0.5,0-0.8,0.1-1.1,0.4c0.1,0,0.2,0.1,0.2,0.2
		c0,0.2-0.1,0.3-0.4,0.2c-0.5,0-0.9,0.2-1.4,0.5c-0.2,0.1-0.5,0.3-0.7,0.5l-0.2,0.2c0.1,0,0.2,0,0.2,0.1s-0.1,0.1-0.2,0.1
		c-0.2,0-0.7,0.2-1.4,0.7c-0.7,0.5-1.4,0.9-2,1.4c-0.5,0.5-1.2,1.1-2.1,1.8c-2.5,1.9-4.7,3.8-6.7,5.6S92,697,90.8,698
		c-0.7,0.7-1.2,1.2-1.3,1.5c-0.2,0.3-0.3,0.7-0.4,1.2l-0.4,1.2l2.8-2.6c0.7-0.7,1.4-1.3,2-1.9C94.3,696.6,94.6,696.2,94.8,696.1z
		 M93.9,690.7c2-1.8,3.9-3.4,5.5-4.8s3.1-2.6,4.4-3.6c1.3-1,2.7-2,4-2.9c1.3-0.9,2.8-1.8,4.4-2.9c1.5-0.8,2.4-1.4,2.4-1.6
		c0.1,0,0.2,0,0.2-0.1s0.1-0.1,0.2-0.1l0.4-0.2c0.1-0.1,0.3-0.2,0.4-0.3c0.2-0.1,0.4-0.2,0.6-0.4c2.8-1.7,5.4-3.2,8-4.4
		c2.6-1.2,5.4-2.6,8.7-3.7c0.9-0.4,1.8-0.7,2.7-1.1c0.8-0.4,1.3-0.6,1.5-0.7c0.2-0.2,0.4-0.5,0.4-0.8c0.1-0.3,0.2-1.4,0.4-3.6
		c0.1-1.1,0.3-2.9,0.5-5.3c0.2-2.5,0.5-5.2,0.9-8.3c0.4-3.1,0.7-6.1,1.1-9.4c0.4-3.3,0.7-6.3,1.1-9.2c0.4-2.9,0.6-5.4,0.9-7.6
		c0.2-2.1,0.4-4,0.6-5.7c0.2-1.7,0.3-3.3,0.4-4.7c0.1-1.4,0.3-3.1,0.5-4.7c0.2-2.9,0.4-4.9,0.5-5.9c0.1-1,0.2-2,0.4-3
		c0-0.4,0-0.8,0.1-1.4s0.1-1.2,0.1-1.8c0.1-0.7,0.2-1.7,0.4-2.9c0.1-1.2,0.2-2.6,0.3-3.9c0.1-1.4,0.1-2.8,0.3-4.1
		c0.1-1.3,0.2-2.5,0.2-3.5c0-1.1,0-2.4,0.1-3.9c0.1-1.5,0.1-3.1,0.1-4.5c0-1.5,0-2.8,0-3.9s0-1.7,0-2c-0.2-0.7-1-0.3-2.4,1.2
		c-0.9,1.2-1.5,2.1-1.8,2.8c0,0.1-0.1,0.4-0.4,0.9c-0.3,0.5-0.6,1-1,1.5c-0.4,0.5-0.7,1-1,1.4c-0.3,0.4-0.5,0.7-0.6,0.8
		c-0.1,0.1-0.2,0.2-0.2,0.3c0,0.1,0.1,0,0.2-0.1c0.1,0,0.1,0.1-0.2,0.4c-0.1,0.2-0.2,0.4-0.4,0.4c-0.1,0.1-0.2,0.1-0.2,0.3
		s-0.1,0.4-0.2,0.5c-0.4,0-0.4,0.1-0.2,0.4c-0.1,0-0.2,0.1-0.2,0.2l-0.2,0.4l-0.4,0.4v0.2l-0.2,0.4c-0.2,0.2-0.6,0.7-1,1.4
		c-0.4,0.7-0.5,1-0.3,0.9l-0.2,0.2c-0.2,0.2-0.4,0.5-0.6,0.8c-0.2,0.3-0.4,0.7-0.6,1.3c-0.1,0.2-0.2,0.5-0.4,0.8
		c-0.1,0.3-0.2,0.6-0.4,0.8c-0.2,0.4-0.6,0.9-1,1.8c-0.4,0.8-0.9,1.8-1.4,2.9c-0.5,1.1-1,2.1-1.5,3.2c-0.5,1-0.8,1.8-1.1,2.5
		c-0.2,0.4-0.4,0.8-0.5,1.2c-0.1,0.5-0.3,0.8-0.5,1.1c-0.2,0.5-0.4,0.8-0.4,0.9c-0.1,0.1-0.2,0.2-0.2,0.4c0,0.1-0.1,0.4-0.4,0.9
		c-0.5,0.6-0.8,1.2-0.9,2c-0.1,0.2-0.2,0.5-0.4,0.8c-0.1,0.3-0.2,0.6-0.4,0.8c-0.1,0.2-0.2,0.5-0.2,0.7c0,0.1-0.1,0.2-0.2,0.2
		c0,0.4-0.2,0.6-0.5,0.7c-0.1,0.1-0.2,0.3-0.2,0.5c0,0.1-0.1,0.2-0.2,0.4c0,0.4-0.1,0.6-0.2,0.7c-0.2,0.5-0.4,0.8-0.4,0.9
		c0,0.2-0.2,0.5-0.5,0.9c-0.5,0.5-0.5,0.7-0.2,0.7c0,0.2-0.1,0.4-0.2,0.5c-0.2,0.2-0.4,0.4-0.4,0.5s-0.1,0.2-0.2,0.2
		c-0.1,0-0.1,0.1,0,0.2c0,0.2-0.1,0.5-0.4,0.7l-0.2,0.4v0.2c0.1,0,0.1,0.2-0.2,0.7c-0.2,0.5-0.4,0.8-0.4,0.9s-0.2,0.4-0.5,0.7
		c-0.2,0.4-0.3,0.6-0.2,0.7c0.1,0.1,0.1,0.2,0,0.4c-0.2,0.2-0.4,0.5-0.4,0.7s0,0.4-0.1,0.4c-0.1,0.1-0.1,0.1-0.1,0.3
		c-0.2,0.2-0.4,0.4-0.4,0.5c0,0.2-0.1,0.5-0.3,0.9c-0.2,0.4-0.4,0.7-0.6,1.1c-0.2,0.5-0.3,0.7-0.2,0.7c0,0.2-0.2,0.4-0.5,0.5
		c-0.2,0.4-0.3,0.5-0.2,0.5c0.1-0.1,0.2-0.1,0.2,0c0,0.4-0.1,0.5-0.2,0.5c-0.2,0.1-0.3,0.2-0.2,0.4s0.1,0.5-0.2,0.7
		c-0.5,0.2-0.5,0.4-0.2,0.4c0.2,0,0.2,0.2-0.2,0.5l-0.7,0.4c-0.1,0-0.1,0.1,0,0.2s0.2,0.1,0.4,0s0.3-0.1,0.2,0.1
		c-0.1,0.2-0.3,0.4-0.5,0.6l-0.4,0.4c0.7-0.2,0.8-0.1,0.2,0.5c-0.2,0-0.4,0-0.4,0.1s0.1,0.1,0.2,0.1c0.1,0.2,0.1,0.5-0.2,0.7
		c-0.4,0.4-0.4,0.5-0.2,0.5c0.4,0,0.3,0.1-0.2,0.4l-0.4,0.7c0.1,0,0.1,0.1,0.1,0.2c-0.1,0.1-0.2,0.2-0.4,0.4s-0.2,0.3,0,0.2
		s0.3-0.1,0.3,0.1c-0.1,0.2-0.2,0.4-0.4,0.6l-0.2,0.2h0.4c0,0.2-0.1,0.4-0.2,0.4c-0.2,0-0.4,0.2-0.4,0.5c0,0.2-0.1,0.5-0.4,0.7
		l-0.4,0.2c0.2-0.1,0.4-0.1,0.4,0c0.1,0.1,0,0.3-0.3,0.5c-0.1,0.2-0.1,0.4,0,0.4c0.4,0,0.3,0.1-0.2,0.4c-0.2,0.2-0.3,0.4-0.2,0.4
		c0,0.2-0.1,0.5-0.4,0.7c-0.2,0.2-0.3,0.4-0.2,0.4c0.2,0,0.2,0.1,0,0.4l-0.4,0.4h-0.2c-0.1,0-0.2,0.1-0.4,0.2h0.4
		c0.2,0,0.2,0.1,0,0.4c-0.1,0.2-0.1,0.4,0,0.4l-0.2,0.5c-0.2,0.2-0.4,0.4-0.4,0.4c0,0.1,0.1,0,0.2-0.1c0.1-0.1,0.2-0.1,0.2-0.1
		c0,0.1-0.1,0.1-0.2,0.3c-0.2,0.2-0.3,0.4-0.2,0.5c-0.1,0-0.2,0.1-0.2,0.2l-0.2,0.4l-0.2,0.4c0.1,0,0.1,0.1,0,0.4
		c-0.2,0.2-0.3,0.4-0.2,0.5v0.2l-0.4,0.4c-0.1,0.1-0.2,0.2-0.2,0.3c0,0.1,0.1,0,0.2-0.1c0.1,0,0.1,0.1-0.2,0.4
		c-0.2,0.2-0.2,0.4,0,0.4s0.2,0.2-0.2,0.5l-0.2,0.4c0.1,0,0.1,0.1-0.2,0.4c-0.2,0.2-0.3,0.4-0.2,0.4c0.2,0,0.2,0.1,0,0.4
		c-0.2,0.2-0.3,0.4-0.2,0.5c0,0.1-0.1,0.2-0.2,0.2c-0.2,0.2-0.4,0.5-0.4,0.7c0.1,0.5,0,0.7-0.4,0.7c-0.1,0.1-0.1,0.2,0,0.4
		c0.1,0.1,0.1,0.2-0.2,0.4l-0.2,0.4c0,0.2-0.1,0.4-0.2,0.4c-0.1,0.1-0.2,0.2-0.2,0.4c0,0.1,0.1,0.1,0.4,0c0,0.1-0.1,0.2-0.2,0.4
		c-0.1,0.1-0.2,0.2-0.2,0.4c0,0.1-0.1,0.2-0.2,0.2c0,0.4-0.2,0.7-0.5,1.1l-0.2,0.2c0.4,0,0.4,0.1,0.2,0.4l-0.4,0.2v0.2
		c0.2,0,0.3,0.1,0.2,0.2l-0.2,0.4c-0.2,0.7-0.4,1.1-0.5,1.1c-0.1,0-0.1,0.1,0,0.2c0.2,0.2,0.2,0.4-0.2,0.5c-0.2,0.1-0.3,0.2-0.2,0.2
		c0.2,0,0.2,0.1,0,0.4l-0.2,0.4c0.1,0,0.1,0.1,0,0.2l-0.2,0.4c0.1,0,0.1,0.1-0.2,0.4l1.8-2v0.4c-0.1,0.1-0.2,0.4-0.2,0.7
		c0,0.4-0.1,0.5-0.4,0.5l-0.2,0.2c0.2,0,0.2,0.1,0,0.4c0,0.2-0.1,0.5-0.2,0.7c0,0.1-0.1,0.3-0.4,0.5c-0.2,0.2-0.2,0.4,0,0.4h0.2
		l-0.4,0.2v0.2c0,0.2-0.1,0.4-0.2,0.4v0.4c0,0.2-0.1,0.4-0.2,0.4h-0.2c0.1,0.1,0.1,0.2,0,0.4c0,0.1-0.1,0.2-0.2,0.3
		c-0.1,0.1-0.2,0-0.2-0.1c-0.1,0-0.1,0.1,0,0.2c0,0.2,0.1,0.2,0.4,0v0.2c-0.2,0.2-0.3,0.4-0.2,0.5c0,0.1-0.1,0.2-0.2,0.2h-0.2
		c0,0.2,0,0.5-0.1,0.7c-0.1,0.2-0.2,0.4-0.4,0.4c0,0.1,0.1,0.2,0.2,0.2c0.2,0.1,0.2,0.2,0,0.2c-0.1,0-0.2,0.1-0.2,0.4
		c0,0.2-0.1,0.4-0.2,0.4v0.4c0,0.1-0.1,0.2-0.2,0.2c-0.2,0-0.3,0.1-0.2,0.2c0.2,0.1,0.3,0.2,0.2,0.2c-0.4,0-0.4,0.1-0.2,0.4
		c0,0.1,0,0.2-0.1,0.4c-0.1,0.1-0.1,0.2-0.1,0.4c-0.2,0.2-0.3,0.4-0.2,0.5c0,0.1-0.1,0.2-0.2,0.2h-0.2c0.1,0.2,0.1,0.6,0,1
		c-0.1,0.4-0.2,0.6-0.4,0.6h-0.2c0,0.2-0.1,0.5-0.2,0.9c-0.1,0.4-0.2,0.6-0.4,0.7c-0.2,0.2-0.2,0.4,0,0.4l-0.2,0.2
		c-0.1,0.2-0.1,0.4,0,0.4c0.1,0.1,0.1,0.2,0,0.2l-0.4,0.2c0.1,0,0.1,0.3-0.2,0.9c-0.2,0.5-0.4,0.9-0.4,1.2c0,0.1,0,0.2-0.1,0.2
		c-0.1,0-0.1,0.1-0.1,0.2v0.2c-0.2,0.2-0.4,0.5-0.4,0.9c0,0.2-0.1,0.4-0.4,0.4c-0.1,0-0.1,0.1,0,0.2c0.2,0,0.2,0.1,0,0.4
		c-0.4,0.4-0.4,0.6-0.2,0.7c0,0.2,0,0.4-0.1,0.4c-0.1,0.1-0.1,0-0.1-0.1c-0.1,0-0.2,0.2-0.2,0.5c0,0.2-0.1,0.4-0.2,0.4v0.2
		c0,0.1-0.1,0.3-0.2,0.4c-0.1,0.2-0.2,0.2-0.4,0.1v0.2c0.1,0.1,0.1,0.4,0,0.9c-0.4,0.4-0.4,0.5-0.2,0.5c0,0.1-0.1,0.2-0.2,0.4
		c-0.1,0.2-0.2,0.5-0.2,0.7c-0.1,0.1-0.2,0.2-0.2,0.4c-0.1,0.1-0.2,0.3-0.2,0.5v0.2c-0.2,0-0.4,0.2-0.4,0.7s-0.1,0.6-0.4,0.4
		c-0.1,0-0.1,0.1,0,0.2c0.2,0.2,0.2,0.4-0.2,0.5c-0.1,0.1-0.1,0.2,0,0.2c0.5-0.2,0.5-0.1,0,0.4c-0.2,0.2-0.3,0.4-0.2,0.5
		c0.1,0.1,0.1,0.2,0,0.2c-0.1,0-0.3,0.3-0.4,0.8c-0.2,0.5-0.2,0.9-0.1,1.2l-0.2,0.2c-0.2,0.2-0.4,0.5-0.4,0.9
		c-0.2,0.5-0.4,0.7-0.5,0.5l-0.2,0.2l0.4,0.2c0.1-0.1,0.2-0.1,0.2-0.1c0,0.1-0.1,0.2-0.4,0.4c-0.2,0.5-0.3,0.8-0.2,0.9
		c0,0.2-0.1,0.4-0.2,0.5c-0.1,0.1-0.2,0.2-0.2,0.4c0,0.1-0.1,0.2-0.2,0.4c0,0.4-0.1,0.5-0.4,0.5v0.2c0,0.5-0.1,0.8-0.2,1.1
		c-0.1,0.1-0.2,0.4-0.2,0.7c0,0.1,0,0.2-0.1,0.3c-0.1,0.1-0.1,0.2-0.1,0.3c0.2,0,0.4,0.1,0.5,0.2c0.1,0.2,0.3,0.3,0.6,0.2
		C92.3,692.2,92.9,691.6,93.9,690.7z M107.8,684.3l0.4-0.2c0,0.1-0.1,0.2-0.2,0.4C107.8,684.5,107.7,684.4,107.8,684.3z
		 M109.9,682.9c0-0.1,0.1-0.2,0.4-0.2c0.4,0,0.4,0.1,0.2,0.4C110.1,683.3,109.9,683.2,109.9,682.9z M120,677.1
		c0.2-0.1,0.4-0.2,0.4-0.4c0.1-0.1,0.1-0.2,0.3-0.2c0-0.2-0.1-0.2-0.4,0c-0.2,0.1-0.5,0.2-0.7,0.2c0.2,0.2,0.2,0.4-0.2,0.4
		c-0.1,0.1-0.2,0.2-0.4,0.2c-0.1,0-0.2,0.1-0.2,0.2s-0.2,0.2-0.5,0.2c-0.2,0-0.4,0.1-0.4,0.4c0,0.1,0.1,0.2,0.3,0.1
		C118.4,678,119,677.7,120,677.1z M118.7,615.3l0.2-0.4l-0.2,0.2c-0.1,0-0.2,0-0.2,0.1s-0.1,0.1-0.2,0.1l-0.2,0.4
		c0-0.1,0.1-0.2,0.2-0.2S118.6,615.4,118.7,615.3z M119.5,613.8c0.1-0.2,0.1-0.2-0.2,0l-0.4,0.4C118.8,614.2,119,614.1,119.5,613.8z
		 M151.5,563.8c-0.1-0.2-0.2-0.5-0.2-0.9s-0.1-0.6-0.2-0.9c0-0.5-0.1-0.9-0.2-1.2c-0.1-0.3-0.2-0.4-0.4-0.3l0.4,2.1
		c0.1,0.6,0.2,1.1,0.3,1.5s0.1,0.6,0.3,0.6L151.5,563.8L151.5,563.8z M162.3,665.4c0-0.1-0.1-0.2-0.4-0.2v0.2
		c0.1,0.1,0.2,0.2,0.4,0.2c0.1,0,0.2,0,0.2-0.1C162.4,665.5,162.4,665.4,162.3,665.4z"/>
	<path class="st0" d="M160.4,742.7c-0.9-0.4-1.9-0.8-2.8-1.2c-0.9-0.5-1.7-1.1-2.5-2c-3.6-3.8-2.9-9.1,2.1-16.1c2-2.8,5-6,8.7-9.8
		c3.8-3.8,7.8-7.5,12.2-11c0.9-0.9,1.8-1.7,2.7-2.5c0.8-0.6,1.2-1,1.2-1.2s-1.1-1.2-3.3-2.9c-3.6-2.8-6.2-5.2-7.9-7.3
		c-1.6-2-3-4.4-3.9-7.1c-0.2-1.1-0.4-2.5-0.4-4.2c0-1.7,0.1-3.2,0.4-4.4c0.4-1.3,1.1-3.1,2.1-5.1c1.1-2,2-3.6,2.9-4.5
		c1.1-1.4,2.4-3,3.9-4.5s2.7-2.6,3.4-3.1c0.7-0.6,1.5-1.1,2.6-1.6c0.9-0.5,1.5-0.7,1.8-0.7c0.8,0,1.7,0.5,2.8,1.4
		c0.6,0.6,1.1,0.9,1.6,0.9c0.8,0,1.1,0.6,0.9,1.8c0,0.6,0.1,1,0.4,1.2c0.2,0.5,0.3,0.8,0.2,1.1c0,0.1,0,0.2,0.1,0.3
		c0.1,0.1,0.1,0.1,0.1,0.3c0.2,0,0.3-0.1,0.2-0.4l-0.2-0.5l0.5,0.5c0.2,0.2,0.4,0.5,0.4,0.7c0,0.7-1.4,2.8-4.4,6.1
		c-0.9,1.1-2.1,2.6-3.5,4.4s-2.2,3.2-2.8,3.9c-0.6,0.9-1.2,2-1.7,3.4c-0.5,1.2-0.9,2.2-1.2,3c-0.4,0.6-0.5,1.5-0.5,2.8
		c-0.1,0.8-0.1,1.4,0.1,1.7c0.2,0.3,0.7,0.7,1.5,1.3c0.2,0.2,0.8,0.7,1.7,1.4c0.9,0.7,1.9,1.5,3,2.4c1.1,0.9,2,1.7,2.9,2.4
		c0.8,0.6,1.3,0.9,1.4,0.9c0.2,0.2,0.9-0.2,2.1-1.2c0.9-0.7,2.2-1.6,3.7-2.7c1.5-1,2.4-1.6,2.7-1.9c0.5-0.2,0.2,0.1-0.7,0.9
		s-2.1,1.8-3.6,2.9c-0.9,0.6-1.7,1.2-2.4,1.7c-0.6,0.5-0.9,0.9-0.9,1c0,0.2,0.2,0.4,0.5,0.4c0.2,0.2,1.1-0.2,2.6-1.4
		c2.7-1.9,3-2,0.9-0.4c-0.1,0.1-0.7,0.5-1.6,1.2l-1.2,1.1l1.1,1.1c0.6,0.7,1.4,1.7,2.4,3c0.9,1.2,1.6,2.2,2,2.8
		c0.1,0.2,0.3,0.6,0.4,1.1c0.2,0.5,0.4,0.9,0.6,1.4c0.1,0.4,0.3,0.8,0.5,1.4c0.2,0.6,0.5,1.1,0.7,1.6c1.3,2.8,1.6,5.7,0.9,8.7
		c-0.2,1.2-1,3-2.4,5.2c-1.3,2.2-2.7,4.1-4,5.4c-2,2.2-4.5,4.4-7.4,6.4c-2.9,2-5.7,3.7-8.6,5c-2.9,1.3-5.7,2.2-8.5,2.9
		C164.5,743.1,162.3,743.2,160.4,742.7z M156.6,728.6c0.1-0.1,0.2-0.2,0.2-0.3s0.1-0.1,0.2-0.3c0-0.1,0.1-0.2,0.2-0.4
		c0-0.1,0.4-0.7,1.1-1.7c0.7-1,1.4-1.9,2-2.7c0.4-0.6,1.1-1.5,2.2-2.8c1.1-1.2,2-2.2,2.7-3c0.4-0.4,1-1,1.9-2c0.9-0.9,1.9-2,3-3.1
		c1.1-1.1,2.1-2.1,3.1-3.1c0.9-0.9,1.6-1.5,2-1.8c1.3-1.2,2.7-2.5,4.1-3.6c1.4-1.2,2.6-2.1,3.4-2.8c0.5-0.4,0.7-0.7,0.8-1
		s-0.1-0.4-0.4-0.4c-0.2,0-0.8,0.4-1.7,1.2c-0.9,0.8-2,1.7-3.5,3s-2.9,2.6-4.4,4s-3,2.9-4.3,4.2c-3.6,3.6-6.5,6.7-8.7,9.4
		s-3.8,5.1-4.7,7.5c-0.4,0.7-0.7,1.5-1,2.5c-0.3,0.9-0.4,1.4-0.3,1.5c0.1,0,0.4-0.5,0.9-1.6C155.7,730.2,156.1,729.3,156.6,728.6z
		 M161.7,736.1c3.1-0.9,6-2.6,9.2-4.6c3.1-2.1,6-4.6,8.8-7.4c1.7-1.8,3.1-3.5,4.2-5.1c1.1-1.5,2.1-3.4,3.1-5.2
		c0.7-1.5,1.2-2.9,1.4-3.7c0.2-0.9,0.4-1.8,0.4-2.9c0-0.9-0.2-1.8-0.5-2.6c-0.4-0.6-0.8-1.3-1.4-2c-0.6-0.8-1-1.2-1.2-1.2
		c-0.4,0-0.6-0.1-0.7-0.2c-0.2-0.2-0.4-0.3-0.6-0.2c-0.2,0.1-0.7,0.7-1.7,1.6c-2.1,1.8-4.2,3.6-6.1,5.4c-1.9,1.8-3.8,3.6-5.6,5.4
		c-2,2-3.9,4-5.4,5.8c-1.5,1.8-2.4,2.9-2.4,3.1l-0.2,0.2c-0.2,0-0.4,0.1-0.4,0.2c0,0.4-0.1,0.6-0.2,0.7l-0.4,0.2
		c0.2,0,0.2,0.2-0.2,0.5l-0.4,0.5l0.7-0.5c0.2-0.1-0.1,0.4-0.9,1.6c-0.9,1.3-1.7,2.6-2.4,3.6c-0.6,1.1-0.8,1.7-0.7,2v0.2
		c-0.1,0-0.3,0.3-0.5,0.9c-0.1,0.6-0.2,1.4-0.2,2.4c0,0.9,0.1,1.5,0.2,1.6c0.2,0.2,0.8,0.3,1.6,0.1
		C159.8,736.6,160.7,736.4,161.7,736.1z M162.6,723.5l0.4-0.4c0,0.1-0.1,0.3-0.4,0.5C162.4,723.9,162.4,723.9,162.6,723.5z
		 M171.1,676c0-0.1,0.1-0.5,0.4-1.2c0.2-0.2,0.4-0.5,0.4-0.7c0.1-0.2,0.1-0.4,0.3-0.5c0.1-0.5,0.3-1,0.6-1.6
		c0.3-0.6,0.6-1.1,0.8-1.6c0.4-0.4,0.5-0.8,0.5-1.2c0.1-0.1,0.2-0.2,0.2-0.4c0-0.1,0.1-0.2,0.2-0.4c0.5-0.2,0.4-0.2-0.4,0l-0.2,0.2
		c0,0.1-0.1,0.4-0.4,0.9c-0.6,0.9-1.2,2-1.8,3.4c-0.6,1.2-0.9,2.2-1.1,2.8c0,0.2,0,0.4-0.1,0.5c-0.1,0.1-0.1,0.3-0.1,0.5
		c-0.1,0.2-0.1,0.2,0.2,0C171,676.3,171.1,676.1,171.1,676z M175.4,666.6l0.4-0.4c-0.1,0-0.3,0.1-0.5,0.4c-0.2,0.2-0.3,0.4-0.2,0.4
		L175.4,666.6z M176.4,665.3c0.1-0.2,0.1-0.4,0-0.4c0,0.1-0.1,0.2-0.2,0.3c-0.1,0.1-0.2,0.2-0.2,0.4c-0.1,0.1-0.2,0.2-0.2,0.3
		c0,0.1,0.1,0,0.2-0.1l0.2-0.2c0-0.1,0-0.2,0.1-0.2C176.4,665.4,176.4,665.4,176.4,665.3z M186.5,656.5c0.1-0.2,0-0.4-0.4-0.5
		c-0.4-0.1-0.7-0.2-1-0.2c-0.4,0-0.5,0.1-0.5,0.4c0,0.2,0.3,0.4,0.9,0.5C186.1,656.8,186.4,656.8,186.5,656.5z M185.6,723.5
		c0.2-0.2,0.4-0.4,0.6-0.6c0.2-0.2,0.3-0.3,0.4-0.4c0.4-0.1,0.5-0.2,0.4-0.4c-0.2-0.1-0.2-0.2,0-0.2h0.4l0.2-0.2v-0.2l0.4-0.4
		c0.1-0.1,0.3-0.4,0.6-1c0.3-0.5,0.6-1.1,1-1.8c0.4-0.6,0.7-1.3,1-1.9c0.3-0.6,0.5-1,0.6-1.2c0.2-1.1,0.3-1.5,0.1-1.4
		s-0.6,0.8-1.2,2c-0.6,1.3-1.3,2.8-2.2,4.2s-1.7,2.7-2.7,3.6c-0.2,0.2-0.4,0.4-0.4,0.5s-0.1,0.2-0.2,0.4l-0.2,0.2
		C184.7,724.6,185.2,724.2,185.6,723.5z M189.5,696.5l0.4-0.4c0.2-0.1,0.3-0.1,0.2,0C189.8,696.5,189.5,696.6,189.5,696.5z
		 M190.5,695.9c0-0.2,0.1-0.4,0.4-0.4C190.6,696.1,190.5,696.2,190.5,695.9z M193.4,708.4c0-0.1,0-0.2-0.1-0.4
		c-0.1-0.1-0.1-0.1-0.1,0v0.5v0.4c0,0.1,0.1,0.2,0.2,0.2L193.4,708.4L193.4,708.4z M193.9,692.3l0.4-0.4c0.2-0.1,0.2-0.1,0,0.2
		C194,692.6,193.9,692.6,193.9,692.3z"/>
	<path class="st0" d="M230.2,719c-2-0.4-4.3-1.2-6.7-2.6c-0.8-0.5-1.5-0.9-2-1.2c-0.5-0.4-1.2-0.9-1.9-1.8c-1.3-1.3-2.2-2.4-2.8-3.2
		c-0.5-0.8-0.9-1.7-1.4-2.9c-2.6-7.5,0.3-17.4,8.5-29.5c1.8-2.7,3.9-5.2,6.1-7.8c2.2-2.6,4.7-4.9,7.2-6.9c2.5-2.1,4.9-4,7.5-5.5
		c2.5-1.5,4.8-2.8,6.9-3.5c2.8-0.8,5.1-0.9,7.1-0.4c0.4,0.2,0.7,0.4,1.2,0.5c0.4,0.1,0.7,0.3,1,0.5c0.2,0.2,0.5,0.5,0.9,0.7
		c0.4,0.2,0.7,0.5,1.1,0.7c0.6,0.5,1.1,0.9,1.4,1.3c0.4,0.4,0.8,1.5,1.4,3.2c0.6,1.5,1,2.8,1.2,3.6c0.2,0.8,0.2,1.7,0,2.6l-0.4,1.4
		c-0.2,0-0.4,0.4-0.4,1.1c0,0.1,0,0.2-0.1,0.3s-0.1,0.2-0.1,0.3v0.4c0,0.1,0,0.2-0.1,0.3c-0.1,0.1-0.1,0.2-0.1,0.4
		c-0.2,1.1-0.5,2.2-0.8,3.6c-0.3,1.2-0.6,2.5-1,3.5c-0.4,1-0.7,1.9-0.9,2.7s-0.4,1.1-0.5,1.1c-0.1,0-0.2-0.1-0.2-0.2
		c0-0.2-0.1-0.1-0.4,0.4l-0.4,0.7l-0.2-0.9c0-0.4,0.1-0.5,0.2-0.4l0.2,0.2V681c0.1-0.1,0.2-0.2,0.2-0.3s-0.1,0-0.2,0.3
		c-0.4,0.4-0.4,0,0-1.1c0.1-0.2,0.3-0.8,0.4-1.7c0.2-0.9,0.4-1.9,0.5-3c0.2-1.1,0.4-2.1,0.5-3.1c0.2-0.9,0.3-1.6,0.3-2
		c0.1-0.6,0.1-0.7,0-0.4c-0.1,0.2-0.2,0.7-0.4,1.4c-0.1,0.7-0.3,1.5-0.5,2.6c-0.5,2.5-0.9,4.5-1.4,6.1c-0.5,1.7-0.8,2.5-1.1,2.1
		c-0.1,0-0.2-0.1-0.2-0.4c0.2-0.6,0.5-1.6,0.8-3.1s0.6-3,0.8-4.6c0.2-1.6,0.5-3.3,0.7-4.8c0.2-1.5,0.4-2.9,0.4-3.8
		c0.1-1.1,0.1-1.8,0.1-2.1c-0.1-0.4-0.2-0.8-0.4-1.2c-0.2-0.7-0.5-1.1-0.7-1.2c-0.2-0.1-0.8-0.1-1.8,0.2c-1.8,0.5-3.9,1.5-6.3,3.2
		c-2.5,1.6-4.9,3.6-7.6,6c-2.6,2.4-5.1,5-7.7,7.9c-2.5,2.9-4.7,5.8-6.6,8.7c-1.5,2.6-3,5.1-4.3,7.7c-1.2,2.6-2.2,4.8-2.8,6.8
		c-0.6,1.7-1,3-1.2,3.7c-0.2,0.8-0.2,1.6-0.1,2.7c0,0.8,0.1,1.3,0.4,1.5c0.2,0.2,1.1,0.3,2.8,0.4c2,0.2,4.9,0.2,8.7-0.2s7.5-1,11-2
		c3.3-0.8,7.2-1.9,11.6-3.4c4.5-1.4,8.7-2.8,12.6-4.3c1.3-0.5,2.9-1,4.7-1.7c1.8-0.6,2.9-1.1,3.1-1.3c0.2,0,0.6-0.1,1.2-0.4
		c0.5-0.2,1.1-0.5,1.7-0.7c3.6-1.2,8-3.1,13.1-5.4c1.5-0.7,3.4-1.5,5.5-2.5c2.1-0.9,4.2-1.7,6-2.7c1.9-0.8,3.6-1.5,5-2.1
		c1.4-0.6,2.2-0.9,2.5-0.9c0.2-0.1,0.4-0.2,0.5-0.2c-0.2,0.2-1.5,0.9-3.8,2.1c-2.2,1.2-4.9,2.6-7.9,4.1c-3,1.5-5.8,3-8.6,4.3
		s-4.7,2.2-5.8,2.8c-1.3,0.6-2.5,1.1-3.3,1.5c-0.8,0.4-1.2,0.7-1.2,0.8c0,0.1,0.2,0.1,0.5-0.2c0.2-0.2,0.5-0.4,0.7-0.4
		c0.2,0,0.5-0.1,0.7-0.2c0.2-0.1,0.5-0.2,0.9-0.4c0.2-0.2,0.7-0.5,1.4-0.8c0.7-0.3,1.4-0.6,2.1-0.8c1.5-0.7,3.2-1.4,4.7-2.2
		c1.5-0.8,3.8-1.8,6.5-3.2c4.9-2.2,8.2-3.9,9.8-4.6c1.5-0.8,2.5-1.1,2.6-1l-0.2,0.2c-0.1,0-0.2,0-0.2,0.1s-0.1,0.1-0.2,0.1
		c-0.5,0.2-0.6,0.5-0.4,0.7c0.1,0,0.1,0.1,0.1,0.2c-0.1,0.1-0.4,0.3-0.9,0.6c-0.5,0.3-1.4,0.8-2.6,1.4c-1.1,0.7-2.8,1.6-5,2.8
		c-1.4,0.8-2.7,1.5-3.6,2c-0.9,0.5-1.8,1.1-2.9,1.6c-1,0.5-2.1,1.1-3.4,1.7c-1.2,0.6-2.8,1.4-4.7,2.6c-1.7,0.8-2.5,1.2-2.4,1.2
		l0.7-0.4c0.1,0,0.2,0,0.3-0.1c0.1-0.1,0.1-0.1,0.3-0.1h0.2h0.2c-0.1-0.1-0.1-0.2,0.2-0.4c0.2-0.1,0.5-0.2,0.7-0.2
		c0.1,0,0.2-0.1,0.2-0.2c0-0.1,0.1-0.1,0.2,0c0.1,0,0.2-0.1,0.2-0.2l0.2-0.2c0.1,0.1,0.2,0.1,0.2,0s0.1-0.2,0.4-0.2h0.2
		c0-0.1,0.1-0.2,0.2-0.2s0.9-0.4,2.4-1.1c1.4-0.7,3.1-1.6,5-2.7c1.8-1,3.7-2,5.5-3c1.8-0.9,3.2-1.7,4-2.4h0.4
		c-0.1,0.1-0.8,0.6-2.1,1.4c-1.3,0.8-3.5,2.1-6.3,3.8c-0.2,0.2-0.8,0.6-1.7,1c-0.9,0.4-1.8,0.9-2.8,1.5c-0.9,0.6-1.9,1.2-3,1.7
		c-1,0.5-1.8,1-2.5,1.3c-0.9,0.5-2.4,1.2-4.3,2.1c-1.8,0.9-3.9,1.9-5.9,3c-2,1-4,1.9-5.8,2.9c-1.8,0.8-3.1,1.4-3.8,1.6
		c-1.5,0.7-3.6,1.6-6,2.7s-4.7,1.9-6.6,2.7C246.1,718,236.9,719.9,230.2,719z M219.2,697c0.5-1.2,1-2.5,1.5-3.8
		c0.5-1.3,1-2.5,1.5-3.5c0.2-0.4,0.5-0.8,0.7-1.3s0.5-1,0.7-1.3c0.4-0.8,0.6-1.2,0.7-1.2c0-0.1,0.1-0.2,0.2-0.4
		c0.1-0.1,0.3-0.4,0.5-0.9c0.4-0.6,0.8-1.3,1.2-2c0.5-0.8,0.8-1.3,1.1-1.5l0.2-0.4c0-0.1,0.1-0.2,0.2-0.4l0.2-0.2l0.4-0.7
		c0.4-0.4,0.9-1,1.6-2c0.5-0.9,0.7-1.5,0.7-1.6h0.2c0.1,0.1,0.3,0,0.4-0.3c0.2-0.3,0.3-0.5,0.3-0.6c-0.1-0.1-0.1-0.2,0.2-0.2
		l0.7-0.7c0.1-0.5,0.3-0.6,0.5-0.5h0.2c-0.1-0.1,0.1-0.5,0.7-1.2s1-1.2,1.2-1.4c0.4-0.2,0.5-0.4,0.4-0.5c0-0.1,0.1-0.2,0.2-0.2
		l1.2-1.2c0.4-0.4,0.7-0.7,1.1-1c0.4-0.3,0.6-0.6,0.9-0.8c0-0.2-0.1-0.2-0.4,0c-0.2,0-0.2-0.1,0-0.2c0.2-0.2,0.3-0.4,0.2-0.4
		c-0.1,0-0.3,0.1-0.5,0.4l-0.4,0.4l-0.2,0.2c-0.2,0-0.4,0.1-0.4,0.4c0,0.2-0.2,0.4-0.5,0.5c-0.1,0.1-0.2,0.2-0.4,0.3
		c-0.1,0.1-0.2,0.2-0.4,0.3c-0.1,0.2-0.1,0.3,0,0.2L235,670c-0.8,0.8-1.6,1.7-2.4,2.8c-0.4,0.4-0.7,0.7-0.9,1
		c-0.2,0.3-0.4,0.5-0.5,0.6c-0.2,0.2-0.7,0.8-1.4,1.7c-0.7,0.9-1.2,1.5-1.4,1.9c-0.6,0.9-1.2,1.9-2,3c-0.7,1-1.2,1.8-1.6,2.5
		c-1.4,2.2-2.8,4.7-3.9,7.4c-1.1,2.6-1.9,4.7-2.2,6.4c-0.4,1.3-0.5,2-0.4,2C218.4,699,218.7,698.3,219.2,697z M237.7,667.3
		c0.2,0,0.4-0.1,0.5-0.2c0.2-0.1,0.2-0.1,0,0.2C238,667.7,237.8,667.7,237.7,667.3z M240,665.1v-0.2l-0.2,0.2
		c-0.1,0.1-0.1,0.2,0,0.2C239.9,665.3,240,665.2,240,665.1z M240.9,664.5c-0.5,0.2-0.6,0.4-0.4,0.4L240.9,664.5z M262.5,679.4
		c0-0.1-0.1-0.1-0.2,0.2c-0.1,0.1-0.2,0.2-0.2,0.4v0.2c0,0.1,0.1,0.1,0.2,0c0-0.1,0-0.2,0.1-0.4
		C262.4,679.6,262.5,679.5,262.5,679.4z M262.8,678c0-0.1,0-0.2-0.1-0.2c-0.1,0-0.1,0.1-0.1,0.4l0.2,0.2V678z M265.1,662.9
		c-0.2-0.6-0.4-0.8-0.4-0.7c-0.1,0.1,0,0.5,0.3,1.2c0.1,0.6,0.2,0.8,0.4,0.7c0-0.1,0-0.3-0.1-0.5
		C265.1,663.4,265.1,663.2,265.1,662.9z M280.8,698.2c0.1,0,0.2,0,0.3-0.1c0.1-0.1,0.1-0.1,0.3-0.1h0.2c0.1,0,0.2-0.1,0.4-0.2
		c0.1-0.2,0.1-0.3-0.2-0.2c-0.2,0.1-0.6,0.3-1.2,0.5c-0.5,0.2-0.7,0.4-0.6,0.4c0-0.1,0.1-0.2,0.2-0.2
		C280.3,698.4,280.6,698.4,280.8,698.2z M282.9,697.2c-0.1-0.1-0.3-0.1-0.4,0c-0.2,0.1-0.3,0.2-0.3,0.4s0.2,0.2,0.5,0
		C282.9,697.4,282.9,697.3,282.9,697.2z M312.4,684.6c0.1-0.1,0.1-0.2,0-0.3c-0.1-0.1-0.3,0-0.5,0.1c-0.1,0-0.2,0.1-0.1,0.2
		c0.1,0.1,0.1,0.2,0.3,0.2C312.2,684.8,312.4,684.8,312.4,684.6z"/>
	<path class="st0" d="M329.2,721.5c-1.4-0.2-2.8-0.5-3.8-0.8c-1.1-0.3-2.5-0.9-4-1.7c-1.1-0.6-1.9-1.1-2.5-1.5
		c-0.5-0.4-1.4-1.1-2.7-2c-2-1.8-3.7-3.9-4.9-6.1c-0.5-0.8-0.9-1.9-1.4-3.3c-0.5-1.3-0.8-2.7-1.1-4c-0.4-1.4-0.5-3.5-0.5-6.1
		c0-2.7,0.1-4.8,0.4-6.3c0.7-3.8,1.8-7.4,3.5-10.7c3.1-6.2,6.7-10.4,11.2-12.5c3.4-1.7,6.4-1.4,9.1,0.9c0.2,0.2,0.6,0.5,1.1,0.9
		c0.5,0.4,0.9,0.7,1.2,0.9c1.4,0.9,2.5,2.5,3.1,4.4c0.1,0.2,0.3,0.6,0.4,1.1c0.2,0.5,0.4,0.9,0.6,1.2c0.2,0.6,0.4,1.1,0.5,1.6
		c0.1,0.5,0.2,1.2,0.4,2.1c0.1,0.9,0.2,1.7,0.2,2.1c0,0.5-0.1,1.1-0.4,1.8c-0.2,0.9-0.5,2-0.9,3.3c-0.4,1.2-0.7,1.9-0.9,2.1
		c-0.1,0.1-0.2,0.3-0.2,0.5c0,0.1-0.1,0.2-0.2,0.2c-0.1,0.1-0.2,0.2-0.2,0.4c0,0.1-0.1,0.2-0.2,0.2c0,0.1-0.1,0.3-0.4,0.5
		c0,0.1,0,0.2-0.1,0.3c-0.1,0.1-0.1,0.2-0.1,0.3c0.1,0,0.1,0,0.1,0.1c-0.1,0.1-0.1,0.1-0.3,0.1l-0.4,0.4c0,0.2-0.1,0.4-0.2,0.4
		l-0.2,0.2c0,0.2-0.1,0.5-0.4,0.7l-0.5,0.5c0.1,0.1,0.1,0.2,0,0.2c-0.4,0-0.7,0.3-1.1,0.9c-2.8,2.6-5.7,3.5-8.9,2.8
		c-0.9-0.2-1.7-0.5-2.1-0.8c-0.5-0.3-1.1-0.7-1.8-1.3c-0.4-0.2-0.7-0.4-0.9-0.6c-0.2-0.2-0.4-0.3-0.5-0.3s-0.3,0.4-0.4,1.3
		c-0.2,0.9-0.4,2-0.6,3.4c-0.1,0.8-0.2,2.2-0.2,4.1s0.1,3.3,0.2,4.3c0.4,1.5,0.9,2.6,1.8,3.1c1.7,0.7,4.4,1,8.3,0.9
		c3.8-0.1,7.7-0.7,11.6-1.8c0.9-0.2,1.7-0.4,2.4-0.5c0.6-0.1,1.2-0.3,1.7-0.4c0.5-0.2,1.2-0.4,1.9-0.6c0.7-0.2,1.7-0.5,2.9-0.9
		c5.5-1.7,10.9-3.9,16.2-6.7c5.2-2.8,10.2-5.9,14.8-9.4c1.2-0.8,1.8-1.2,1.9-1.2c0.1,0.1-0.4,0.6-1.3,1.5c-2.6,2.6-5.3,4.8-8.4,6.7
		c-0.6,0.5-1.2,0.9-1.7,1.2c-0.5,0.3-0.8,0.5-0.8,0.6c-0.2,0-0.4,0.1-0.5,0.2c-0.2,0.1-0.4,0.2-0.4,0.4c-0.1,0.1-0.2,0.2-0.4,0.4
		c-0.7,0.4-1.4,0.8-2.1,1.2c-0.7,0.5-1.2,0.8-1.4,1.1c-0.1,0-0.2,0-0.3,0.1c-0.1,0.1-0.1,0.1-0.3,0.1c-0.2,0-0.4,0.1-0.4,0.2
		c-0.1,0.1-0.2,0.2-0.4,0.2l-0.4,0.4c0,0.2,0.4,0.1,1.2-0.3c0.8-0.4,1.9-1,3.3-1.8c1.3-0.8,2.8-1.6,4.2-2.6s2.9-1.8,4.2-2.8
		c0.9-0.7,2.2-1.7,3.7-2.9c1.5-1.2,2.6-2.1,3.2-2.8c0.4-0.4,0.6-0.6,0.7-0.7c0.1-0.1,0.1-0.1-0.2,0.2c-0.6,0.6-1.1,1.2-1.5,1.8
		c-0.4,0.6-0.5,0.8-0.3,0.7c0.1-0.1,0.1-0.1,0,0.2c-0.1,0.2-0.3,0.5-0.5,0.7c-0.7,0.8-2,2-3.9,3.7s-3.9,3.3-5.9,4.8
		c-0.2,0.2-0.4,0.4-0.5,0.6c-0.1,0.2-0.3,0.3-0.5,0.4c-0.2,0.2-0.4,0.4-0.5,0.4l0.2-0.2c0.1-0.1,0.2-0.2,0.4-0.2
		c0.1,0,0.3-0.1,0.5-0.4c0.2-0.1,0.4-0.2,0.5-0.4c0.1-0.1,0.2-0.2,0.4-0.2c0.1,0,0.2-0.1,0.2-0.2l0.2-0.2l0.7-0.4
		c1.4-0.9,3.1-2.2,4.9-3.8l2.1-1.8l-1.2,1.4l-1.2,1.2l-1.4,1.1l-1.8,1.8c-0.7,0.5-1.1,0.8-1.1,0.9c-0.2,0.1-0.8,0.5-1.7,1.2
		c-0.9,0.7-1.8,1.4-2.8,2.1c-0.8,0.6-2,1.4-3.6,2.5c-1.5,1-2.9,1.8-4,2.5c-0.9,0.6-2.1,1.2-3.6,2c-1.4,0.7-3,1.4-4.5,2.1
		c-1.5,0.7-3.1,1.4-4.5,2c-1.4,0.7-2.7,1.2-3.6,1.5c-2.6,0.9-5.2,1.7-7.9,2.2C333.6,721.5,331.3,721.7,329.2,721.5z M313.2,688.8
		c0.1-0.1,0.2-0.2,0.2-0.4s0.1-0.4,0.2-0.5c0.1-0.5,0.3-0.8,0.5-1.1c0-0.4,0.1-0.6,0.2-0.7c0.1-0.2,0.3-0.7,0.5-1.4
		c0-0.1,0.1-0.2,0.2-0.4l0.4-0.7c0.2-0.7,0.4-1.1,0.5-1.1c0-0.1,0.1-0.4,0.4-0.9c0.2-0.5,0.5-1,0.8-1.6c0.3-0.6,0.6-1.1,0.9-1.6
		s0.5-0.8,0.6-0.9v-0.4v-0.2c0-0.1,0.1-0.2,0.2-0.4c0.2-0.2,0.4-0.5,0.4-0.7c0-0.2,0.2-0.5,0.5-0.9c0.6-0.6,0.9-1,1.1-1.2
		c0.1-0.2,0.1-0.3,0-0.3h-0.4c0.1,0.1-0.1,0.4-0.5,0.9c-0.6,0.6-1.2,1.3-1.7,2c-0.5,0.8-0.7,1.3-0.6,1.5c-0.4,0-0.6,0.2-0.7,0.7
		c-0.1,0.2-0.3,0.6-0.4,1c-0.2,0.4-0.4,0.8-0.6,1.2c-0.7,1.3-1.2,2.6-1.6,3.8c-0.4,1.2-0.7,2.2-0.9,3.3c-0.1,0.2-0.2,0.5-0.2,0.9
		c-0.1,0.2-0.1,0.4,0,0.4C313.2,689.1,313.2,688.9,313.2,688.8z M326.9,693.2c0.6-0.4,1.3-0.9,2.2-1.7c0.9-0.8,1.5-1.4,1.9-2
		c0.9-1.3,1.7-3,2.4-5c0.6-2,0.9-3.9,0.9-5.5c0-0.6-0.1-1.3-0.3-2.2c-0.2-0.9-0.4-1.4-0.6-1.7c-0.4-0.5-1.2-0.2-2.7,0.8
		c-1.4,1-2.8,2.4-4.1,3.9c-0.9,1.3-1.9,2.9-2.9,4.4c-0.9,1.6-1.7,3.2-2.4,4.6c-0.6,1.4-0.9,2.5-1,3c-0.1,0.5,0.2,1,0.8,1.5
		c0.6,0.5,1.4,0.7,2.6,0.7C324.8,693.9,325.9,693.7,326.9,693.2z M329.9,693.7c0.2-0.2,0.6-0.5,1-0.8s0.8-0.6,1.2-0.8
		c1.8-2,3.1-4.6,3.6-7.7c0.2-0.6,0.3-0.9,0.2-0.8c-0.1,0.1-0.3,0.4-0.5,1c-0.2,0.2-0.5,0.7-0.7,1.2c-0.2,0.6-0.5,1.2-0.7,1.8
		c-0.5,0.9-0.9,1.6-1.2,2c-0.3,0.4-0.7,0.9-1.3,1.5l-2.4,2.4c-0.5,0.4-0.6,0.5-0.4,0.5c0.1-0.1,0.3-0.2,0.5-0.3
		C329.4,693.9,329.6,693.8,329.9,693.7z M332.1,694.9c0-0.1-0.2-0.1-0.7,0.2c-0.6,0.5-0.9,0.7-1,0.8c-0.1,0.1,0.1,0,0.6-0.3
		L332.1,694.9z M337.2,677.6c-0.1-1.2-0.3-1.8-0.5-1.8c-0.1,0-0.1,0.5,0.2,1.4l0.4,1.4v-1H337.2z M362,704.5h-0.2
		c-0.1,0.1-0.2,0.2-0.2,0.4c0,0.1,0,0.2,0.1,0.2c0.1,0,0.1-0.1,0.1-0.2C361.9,704.8,362,704.7,362,704.5z M362.7,704.3
		c0-0.1,0-0.2-0.1-0.3c-0.1-0.1-0.1,0-0.1,0.1c-0.2,0-0.4,0.1-0.4,0.4c0.1,0.1,0.2,0.2,0.4,0.2C362.6,704.5,362.7,704.4,362.7,704.3
		z M367.9,704.7c0.2-0.2,0.3-0.4,0.3-0.4c-0.1,0-0.2,0.1-0.4,0.4l-0.4,0.4C367.5,705,367.7,704.9,367.9,704.7z"/>
	<path class="st0" d="M379.2,721.1c-0.2-0.2-0.5-0.6-0.7-1.1c-0.7-0.8-1.2-1.1-1.6-0.7c-0.1,0.1-0.4,0.1-0.9,0
		c-0.6-0.4-0.9-0.6-0.9-0.9c0-0.1-0.2-0.4-0.7-0.9c-0.5-0.5-0.6-0.8-0.5-0.9c0.1,0,0.2,0.1,0.2,0.2l0.2-0.2c0.4-0.2,0.4-0.5,0-0.9
		c-0.4-0.1-0.6-0.1-0.7,0.2v0.2v0.4c0,0.1-0.1,0.2-0.2,0.2s-0.4-0.3-0.7-1c-0.4-0.6-0.5-1.1-0.5-1.3c0-0.5-0.1-0.8-0.2-1.1
		c-0.2-0.5-0.4-1.2-0.4-2c0-0.8,0.1-1.7,0.4-2.7c0.1-0.4,0.4-1.1,0.8-2.1c0.4-1.1,0.9-2.4,1.4-3.7c0.5-1.4,1.1-2.9,1.7-4.4
		s1.2-3,1.8-4.3c0.2-0.5,0.6-1.3,1.2-2.6c0.5-1.2,1.1-2.5,1.7-3.8c2.2-4.6,4.1-7.9,5.3-10c1.2-2,2.5-3.6,3.6-4.5
		c0.4-0.4,0.6-0.6,0.9-0.6c0.2-0.1,0.5-0.1,0.7-0.1c0.9,0.2,1.5,0.9,1.6,2c0,0.9,0.2,1.1,0.5,0.4c0.2-0.6,0.5-0.8,0.8-0.5
		c0.3,0.2,0.4,0.7,0.4,1.4c0,0.5,0.2,1,0.7,1.6c0.4,0.4,0.5,0.9,0.4,1.6c-0.2,2-1.5,6-3.8,12c-0.6,1.7-1.1,3.2-1.6,4.4
		c-0.5,1.2-0.7,1.8-0.7,2c0,0.6,0.1,0.9,0.2,0.9c0.1,0,0.4-0.2,1-0.5c0.5-0.4,1.1-0.8,1.7-1.4c1.3-1.1,2.5-2,3.3-2.8
		c0.8-0.7,1.6-1.4,2.5-2c0.8-0.6,1.7-1.3,2.8-2c1-0.8,2.4-1.7,3.9-3c2.2-1.7,4.4-3.2,6.4-4.4c2-1.2,4.1-2.5,6.2-3.6
		c5.7-2.8,10-3.1,12.9-0.9c0.2,0.2,0.6,0.5,1,0.8c0.4,0.3,0.9,0.6,1.3,1c0.7,0.5,1.4,1.1,2,1.8c0.6,0.7,1.1,1.4,1.4,2.1
		c0.5,1.2,0.9,2.2,1.2,3c0.3,0.8,0.6,1.6,0.8,2.5c0.2,0.8,0.5,1.9,0.7,3.2s0.5,3.1,0.9,5.3c0.4,2,0.7,3.9,1.1,5.4
		c0.4,1.5,0.5,2.5,0.5,2.8c0.6,1.4,1.4,2.4,2.4,2.8c0.5,0.2,1.4,0.4,2.9,0.4c1.4,0.1,2.6,0,3.4-0.3c2.5-0.6,5.2-1.7,8.4-3.5
		s6.7-4.1,10.7-7.3c1.7-1.2,3.3-2.5,4.8-3.7s3.1-2.7,4.6-4.1s3.2-3.1,4.8-4.8c1.6-1.7,3.5-3.8,5.5-6c0.4-0.5,0.8-1,1.3-1.5
		s0.9-1,1.2-1.3c0.2-0.2,0.5-0.6,0.9-1.1c0.4-0.5,0.6-0.9,0.9-1.2c0.9-1.1,1.3-1.4,1.1-0.9c-0.2,0.5-0.8,1.4-1.8,2.8
		c-1.5,2.1-3.6,4.7-6.1,7.7s-5,5.6-7.5,8.1c-0.7,0.7-1.6,1.6-2.8,2.7c-1.1,1-2.2,1.9-3.2,2.9c-0.8,0.7-1.8,1.5-3.1,2.6
		c-1.2,0.9-2.5,1.9-3.6,2.9c-1.2,0.9-2.2,1.6-3.1,2.2c-0.8,0.6-1.3,0.9-1.4,0.9c0,0.1-0.1,0.2-0.2,0.2c-0.1,0.1-0.2,0.2-0.3,0.2
		s-0.1,0.1-0.3,0.2c-0.2,0.2-0.4,0.4-0.5,0.4l-0.2,0.2l-0.4,0.4c0,0.2-0.1,0.4-0.4,0.4h-0.2l-0.4,0.2c-0.1,0.2-0.3,0.4-0.5,0.4
		c-0.1,0-0.2,0.1-0.2,0.4h0.2c0.1,0,0.2-0.1,0.4-0.2c0.2-0.1,0.5-0.3,0.8-0.4c0.3-0.2,0.6-0.4,0.8-0.6c0.4-0.1,0.7-0.3,1.2-0.5
		c0.4-0.2,0.8-0.5,1.2-0.7c0.1-0.1,0.3-0.2,0.4-0.3c0.2-0.1,0.3-0.1,0.4-0.3c0.1-0.1,0.2-0.2,0.4-0.2c0.1-0.1,0.3-0.2,0.4-0.4
		c0.2-0.1,0.4-0.3,0.6-0.5c0.2-0.2,0.7-0.6,1.3-1c0.6-0.4,1.3-0.9,1.9-1.3c0.6-0.5,1.2-1,2-1.5c0.7-0.5,1.2-0.9,1.4-1.2
		c0.5-0.2,0.8-0.5,1.1-0.7c0.2-0.2,0.4-0.4,0.5-0.5c1.2-0.9,2.7-2.2,4.4-4c1.7-1.7,3.6-3.5,5.3-5.4c1.8-1.9,3.6-3.9,5.3-5.9
		c1.7-2,3.3-3.9,4.4-5.5c0.1-0.2,0.3-0.5,0.5-0.7l0.4-0.4c0.1,0.1,0.1,0.3-0.2,0.5c-0.1,0.1-0.1,0.2,0,0.2c0.1-0.1,0.2-0.1,0.2-0.1
		c0,0.1-0.1,0.1-0.4,0.3l-0.2,0.2c0.2,0-0.6,1.4-2.6,4.2c-2.8,3.9-5.9,7.8-9.4,11.6c-3.5,3.9-7.1,7.2-10.5,10
		c-0.4,0.2-0.7,0.5-0.9,0.7c-0.2,0.2-0.4,0.4-0.5,0.5c0,0.1,0.2,0.1,0.5-0.2c0.6-0.6,1.1-1,1.4-1.2c0.7-0.5,1.1-0.8,1.2-0.9
		s0.3-0.2,0.4-0.4c0.2-0.1,0.4-0.3,0.6-0.5c0.2-0.2,0.5-0.4,0.7-0.6c0.2-0.2,0.5-0.3,0.7-0.4c0.2-0.1,0.6-0.5,1.2-1.1
		c0.6-0.6,1.3-1.3,2.1-2.1c0.8-0.8,1.5-1.5,2.1-2s0.9-0.9,1.1-1c0.1-0.1,0.1,0-0.2,0.4c-0.2,0.4-0.6,0.8-1.2,1.3
		c-0.5,0.5-1.1,1.1-1.6,1.7c-0.5,0.6-1,1.1-1.3,1.4c-0.7,0.5-1.5,1.2-2.4,2.4c-0.5,0.4-0.9,0.7-1.4,1.2c-0.5,0.4-0.8,0.7-1.1,1
		c-0.2,0.2-0.6,0.6-1.1,1c-0.5,0.4-0.9,0.8-1.4,1.2c-2.5,2.2-5.2,4.4-8.3,6.3c-3.1,1.9-5.6,3.2-7.6,3.6c-4.8,1.2-9.2,0.1-13.1-3.5
		c-1.7-1.5-3-3.4-3.9-5.2c-0.9-1.9-1.6-4.5-2.2-7.7c-0.6-3.3-1.1-5.8-1.4-7.7c-0.4-1.8-0.7-3.3-0.9-4.3c-0.2-0.9-0.4-1.6-0.6-1.9
		s-0.4-0.5-0.6-0.6c-0.4-0.2-0.9-0.4-1.8-0.4c-0.9,0.2-1.6,0.4-2,0.4c-0.4,0.1-1.1,0.4-2,1c-0.9,0.5-1.9,1-3,1.6
		c-1,0.6-1.8,1.1-2.5,1.6l-0.7,0.7c-0.2,0.2-0.9,0.7-2,1.4c-1.1,0.7-1.7,1.1-1.8,1.2c0,0.2-0.2,0.4-0.5,0.4
		c-0.6,0.6-1.5,1.4-2.9,2.5c-1.2,1-2,1.6-2.2,1.9c-0.6,0.6-1.3,1.2-2,2c-0.8,0.7-1.5,1.4-2.2,2c-0.9,0.7-2.1,1.7-3.6,3
		c-1.4,1.2-2.9,2.6-4.3,3.9c-1.4,1.3-2.9,2.6-4.2,3.8c-1.3,1.2-2.4,2.1-3.1,2.9c-1.9,1.7-3.6,3.1-4.9,4.3c-1.3,1.1-2.2,2-2.9,2.7
		c-0.5,0.4-0.8,0.6-1,0.6c-0.2,0.1-0.4,0-0.6-0.1c-0.4-0.1-0.6-0.1-0.7,0C379.9,721.3,379.6,721.3,379.2,721.1z M378.7,703.8
		c0.7-1.8,1.2-3.1,1.5-3.7c0.3-0.6,0.6-1.2,0.8-1.5c0-0.2,0-0.4,0.1-0.5c0.1-0.1,0.1-0.2,0.1-0.4c0-0.1,0.1-0.2,0.2-0.4
		c0-0.1,0.1-0.4,0.4-0.9l1.2-3.1c0.2-0.6,0.5-1.2,0.9-2c0.2-0.6,0.6-1.3,1-2.2c0.4-0.9,0.9-1.9,1.5-3.2c0.7-1.4,1.5-3.2,2.6-5.2
		c0.9-2,1.6-3.3,2-3.9c0.2-0.4,0.4-0.7,0.4-1.1c-0.2-0.2-0.7,0.3-1.2,1.6c-0.4,0.5-0.8,1.3-1.4,2.5s-1.2,2.5-1.9,3.8
		c-0.7,1.4-1.3,2.8-2,4.2c-0.7,1.4-1.2,2.6-1.5,3.4c-0.4,0.6-0.6,1.2-0.7,2c-0.4,0.6-0.8,1.5-1.2,2.9c-0.2,0.6-0.4,1.1-0.6,1.4
		c-0.2,0.4-0.3,0.6-0.4,0.7c0,0.1,0,0.2-0.1,0.4c-0.1,0.1-0.1,0.2-0.1,0.4c-0.1,0.1-0.2,0.4-0.4,0.8c-0.1,0.4-0.3,0.9-0.5,1.5
		c-1.1,2.7-1.7,4.3-1.9,5c-0.2,0.7-0.1,0.9,0.1,0.8c0.1,0,0.3-0.3,0.5-0.9C378,705.7,378.3,704.9,378.7,703.8z M395.3,678.1v-0.2
		l-0.2,0.2v0.4C395.3,678.4,395.3,678.3,395.3,678.1z M402.4,692.5l-0.4,0.4h0.2C402.3,692.7,402.3,692.6,402.4,692.5z M404.4,691.6
		c0-0.1-0.2,0-0.5,0.4c-0.2,0.2-0.2,0.3,0.2,0.2C404.3,691.9,404.4,691.7,404.4,691.6z M404.2,691.2c-0.1-0.1-0.2-0.1-0.4,0H404.2z
		 M405.6,690.9c0.1,0,0.1-0.1,0-0.2c-0.2-0.1-0.2-0.3,0-0.5l-0.2,0.2c0,0.1-0.1,0.2-0.2,0.2v0.4c-0.1,0-0.2,0.1-0.2,0.4
		C405.2,691,405.3,690.9,405.6,690.9z M406.3,689.5l0.2-0.4c-0.2,0-0.4,0.1-0.4,0.4v0.4C406.2,689.8,406.3,689.6,406.3,689.5z
		 M407,689.5c0.1-0.1,0.1-0.1-0.2,0l-0.5,0.5c-0.1,0.1-0.2,0.2-0.1,0.2c0.1,0,0.1-0.1,0.3-0.2C406.8,689.9,407,689.8,407,689.5z
		 M408,688.8c0-0.2-0.1-0.3-0.2-0.2s-0.3,0.2-0.5,0.2c0-0.4-0.2-0.4-0.5,0c-0.1,0-0.1,0.1,0.2,0.4
		C407.6,689.4,407.9,689.3,408,688.8z M408.8,688.1h-0.2c-0.1,0-0.2,0.1-0.2,0.4c0,0.1,0.1,0.1,0.2,0
		C408.7,688.3,408.8,688.2,408.8,688.1z M410,687.4c0.2-0.2,0.3-0.4,0.2-0.4c-0.1,0-0.2,0.1-0.2,0.2l-0.2,0.2
		c-0.2-0.2-0.4-0.2-0.4,0.2c-0.2,0.2-0.3,0.3-0.1,0.3C409.5,687.8,409.8,687.6,410,687.4z M411.3,686.5c0-0.1-0.2-0.1-0.5,0
		c-0.1,0-0.2,0.1-0.3,0.2c-0.1,0.1,0,0.2,0.1,0.2c0,0.1,0,0.1,0.1,0.1c0.1-0.1,0.1-0.1,0.1-0.3C410.9,686.6,411.1,686.5,411.3,686.5
		z M411.9,686c0-0.1-0.1-0.2-0.2-0.2c0,0.1-0.1,0.2-0.2,0.2c0,0.1,0.1,0.2,0.2,0.2C411.8,686.2,411.9,686.1,411.9,686z M438.5,702.1
		c-0.1-0.2-0.3-1-0.5-2.5c-0.2-1.4-0.5-3-0.9-4.6c-0.4-1.8-0.6-3.3-0.8-4.4c-0.2-1.1-0.3-1.9-0.4-2.5s-0.2-0.9-0.3-1.1
		c-0.1-0.2-0.1-0.3-0.3-0.4c-0.1-0.2-0.2-0.3-0.2-0.1s0.1,0.5,0.2,1c0.1,0.2,0.3,1,0.5,2.5c0.2,1.4,0.5,3,0.9,4.8
		c0.6,2.9,1,4.9,1.2,6c0.2,1.1,0.5,1.7,0.7,1.7v-0.2C438.6,702.3,438.5,702.2,438.5,702.1z M466.8,705.7c0.1-0.1-0.1-0.1-0.5,0
		l-0.5,0.5c0,0.1,0.1,0.1,0.4-0.1C466.3,706,466.5,705.8,466.8,705.7z M468.4,704.5c0.2-0.4,0.2-0.5,0-0.4c-0.2,0.2-0.5,0.4-0.7,0.6
		c-0.2,0.2-0.2,0.3,0,0.3l0.2-0.2C468,704.8,468.2,704.7,468.4,704.5z M482.4,691.8c0.4-0.4,0.6-0.6,0.7-0.6c0.1-0.1,0.1,0-0.2,0.3
		c-0.6,0.7-0.9,1.1-1.1,1.1l0.2-0.2C482,692.2,482.1,692,482.4,691.8z M483.6,690.5c0-0.2,0.1-0.4,0.4-0.4l-0.2,0.4H483.6z"/>
	<path class="st0" d="M501.9,751.6c-2-0.5-4.2-2-6.5-4.5c-3.6-3.5-6.4-8.9-8.6-16.1c-2.2-7.3-3.6-15.4-4.1-24.6
		c-0.2-4.1-0.3-8.2-0.1-12.1c0.2-3.9,0.6-8.5,1.2-13.5c0.5-3.9,1.1-8,2-12.5c0.8-4.4,1.8-8.9,3-13.4c1.1-4.5,2.4-9,3.7-13.4
		s2.8-8.6,4.2-12.5c0.7-1.8,1.3-3.4,1.8-4.8c0.5-1.4,0.8-2.2,1.1-2.7c0.1-0.2,0.2-0.4,0.3-0.6s0.1-0.3,0.3-0.4
		c0.9-2.5,1.7-4.2,2.1-5.4c0.5-1.2,0.9-2.2,1.4-3.3c0.9-1.8,1.3-2.8,1.2-3c-0.2-0.2-1.2,0-3,0.6c-1.4,0.5-3.4,1.1-5.7,2
		c-2.4,0.8-4.4,1.6-6.1,2.4c-0.8,0.4-1.9,0.8-3.3,1.4c-1.3,0.6-2.6,1.2-3.9,1.8c-1.2,0.6-2.5,1.2-3.6,1.9c-1.1,0.7-1.9,1.2-2.6,1.5
		c-1.2,0.8-2.4,1.7-3.6,2.7c-1.1,0.9-2,1.7-2.9,2.7c-0.5,0.5-0.8,0.9-1.1,1.3c-0.2,0.4-0.2,0.6,0,0.6c0.1,0,0.1,0.2,0,0.5
		c0,0.4,0.1,0.5,0.2,0.5c0.1,0,0.2,0.1,0.2,0.4c0,0.2-0.2,0.3-0.5,0.1c-0.4-0.2-0.6-0.4-0.9-0.6c-0.5-0.5-0.7-0.9-0.7-1.4
		c-0.1-0.1-0.2-0.1-0.4,0c-0.2,0-0.4-0.5-0.4-1.4c0-0.9,0.3-1.9,0.9-2.9c0.6-0.9,1.7-2.2,3.5-3.9c4.8-5.1,13-10,24.3-14.8
		c1.2-0.6,2.6-1.1,4-1.6c1.4-0.5,3.3-1.1,5.4-1.8c1.3-0.5,2.5-0.9,3.5-1.2c0.9-0.4,1.5-0.6,1.6-0.7c0.5-0.2,1-0.9,1.6-2.1
		c1.9-3.5,4.3-7.4,7.2-11.6c2.9-4.2,5.4-7.9,7.9-10.8c0.7-0.9,1.4-1.8,2-2.6c0.6-0.7,1-1.1,1.2-1.2c0.1-0.2,0.3-0.5,0.4-0.7
		c0.2-0.2,0.4-0.5,0.6-0.7c1.1-1.3,2.2-2.6,3.6-3.8c1.3-1.2,2.2-1.8,2.8-1.8c0.2,0,0.5,0.2,0.9,0.4c0.4,0.3,0.6,0.6,0.7,0.8
		c0,0.2,0.2,0.4,0.7,0.4c0.4,0,0.5,0.3,0.5,0.9c0.2,0.7,0.4,1.1,0.5,1.2c0.2,0.1,0.3,0.3,0.3,0.4c-0.1,0.2-0.3,0.7-0.6,1.7
		c-0.5,1.2-0.8,2-1,2.4c-0.2,0.4-0.4,0.8-0.8,1.2c-0.4,0.4-0.5,0.7-0.5,0.9c0,0.1-0.3,0.7-0.9,1.7c-0.6,1-1,1.7-1.2,2
		c-0.1,0.1-0.3,0.3-0.4,0.6c-0.2,0.3-0.3,0.6-0.4,0.8c-0.2,0.2-0.5,0.7-0.9,1.4c-0.4,0.7-0.8,1.4-1.2,2.1c-0.5,0.7-0.9,1.4-1.2,2
		c-0.3,0.6-0.5,0.9-0.6,1.1c-0.2,0.5-0.6,1.1-1.2,2c-0.5,0.8-1,1.6-1.5,2.5c-0.5,0.8-1.1,1.7-2,3v0.4c0,0.4-0.3,0.8-0.9,1.4
		l-0.7,1.4c0,0.1,0.3,0.2,1,0.3c0.6,0.1,2.4,0.1,5.2,0.1c5.1,0.1,9.5,0.4,13.2,0.9c3.7,0.5,6.9,1.2,9.7,2.1c1.3,0.5,2.7,1.2,4.1,2
		c1.4,0.9,2,1.4,1.9,1.7v0.5c0.1,0,0.2-0.1,0.2-0.2c-0.1,0-0.2,0-0.2-0.1s0.1-0.1,0.2-0.1c0.1,0,0.3,0.3,0.5,0.8
		c0.2,0.5,0.3,0.8,0.2,0.8c0,0.2-0.4,0.1-1.1-0.4c-0.9-0.6-1.7-0.9-2.5-1.1c-0.7-0.1-2.2-0.3-4.6-0.5c-0.6-0.1-1.8-0.2-3.8-0.2
		s-4,0-6.1,0s-4.3,0-6.3,0.1s-3.5,0.2-4.4,0.3c-1.8,0.2-3.1,0.4-3.7,0.4c-0.7,0-1.7,0.1-3.4,0.4c-0.7,0.1-1.4,0.2-2,0.3
		c-0.7,0.1-1.1,0.1-1.3,0.3c-0.2,0.1-0.7,0.4-1.2,0.7c-0.6,0.4-0.9,0.7-0.9,0.9l-0.4,0.7l-0.4,0.7c0.1,0,0.1,0.1,0,0.2
		c0,0.1-0.2,0.5-0.5,1.1c-0.4,0.6-0.7,1.2-1.1,2c-0.4,0.7-0.8,1.7-1.4,3.1l-0.4,0.7c-0.2,0.2-0.4,0.5-0.4,0.7c0,0.1-0.1,0.3-0.2,0.5
		s-0.2,0.4-0.4,0.6c-0.1,0.2-0.2,0.4-0.4,0.6l-0.7,1.8c-0.1,0-0.2,0.1-0.2,0.2s0,0.2-0.1,0.4c-0.1,0.1-0.1,0.2-0.1,0.4
		c-0.2,0.5-0.4,0.8-0.5,0.9c-0.1,0-0.2,0.1-0.2,0.2s0,0.2-0.1,0.4c-0.1,0.1-0.1,0.2-0.1,0.4c-0.2,0.5-0.4,0.8-0.4,0.9
		c-0.1,0-0.2,0.1-0.2,0.2s0,0.2-0.1,0.4c-0.1,0.1-0.1,0.2-0.1,0.4c-0.1,0.1-0.2,0.3-0.2,0.5c0,0.1-0.1,0.2-0.2,0.4
		c-0.1,0.1-0.2,0.2-0.2,0.4c-0.1,0-0.2,0.1-0.2,0.4c0,0.2-0.2,0.5-0.5,0.9c-0.2,0.2-0.3,0.4-0.2,0.4c0.2-0.2,0.3-0.3,0.3-0.1
		c-0.1,0.2-0.3,0.4-0.6,0.6l-0.2,0.4c0.2-0.2,0.4-0.2,0.4,0s-0.1,0.5-0.4,0.7l-0.4,0.2c0.7-0.2,0.8-0.1,0.2,0.5
		c-0.1,0-0.2,0.1-0.2,0.2v0.4c0,0.1-0.1,0.3-0.4,0.5v0.2c0.1,0,0.1,0.1,0.1,0.2c-0.1,0.1-0.2,0.2-0.4,0.4c-0.2,0.4-0.3,0.5-0.2,0.5
		c0.2,0,0.3,0.1,0.1,0.3s-0.4,0.4-0.8,0.6c-0.2,0.1-0.2,0.1,0.2,0c0.6,0,0.7,0.2,0.4,0.5c-0.2,0-0.4,0.2-0.4,0.7
		c-0.1,0.2-0.2,0.4-0.3,0.6s-0.2,0.3-0.3,0.4c-0.1,0.2-0.1,0.4,0,0.4v0.2l-0.4,0.4l-0.2,0.4c0.2-0.1,0.3-0.1,0.3,0
		c-0.1,0.1-0.2,0.3-0.4,0.5s-0.3,0.4-0.2,0.5c0.2,0,0.2,0.1,0,0.4c-0.5,0.2-0.5,0.4-0.2,0.4c0.2,0.2,0.2,0.4-0.2,0.5
		c-0.2,0.4-0.2,0.5,0,0.5c0.1,0,0.1,0.1-0.2,0.2c-0.2,0.2-0.4,0.5-0.4,0.7c0,0.4-0.2,0.6-0.5,0.7c-0.1,0.2-0.1,0.3,0,0.2
		c0.2-0.1,0.4-0.1,0.4,0s-0.1,0.3-0.4,0.5c-0.2,0.2-0.3,0.4-0.2,0.4c0.4,0,0.4,0.1,0.2,0.4c-0.2,0.4-0.3,0.5-0.2,0.5
		c0,0.1-0.1,0.3-0.4,0.5c-0.1,0.1-0.1,0.2,0,0.2c0.4,0,0.3,0.1-0.2,0.4c-0.2,0.4-0.2,0.5,0,0.5c0.1,0,0,0.2-0.4,0.5l-0.2,0.4
		c0.1-0.1,0.2-0.1,0.2,0.2c0,0.2-0.1,0.4-0.2,0.4c-0.2,0-0.4,0.1-0.4,0.2h0.2c0.2-0.1,0.3-0.1,0.3,0.2c-0.1,0.2-0.2,0.4-0.4,0.5
		c-0.2,0.1-0.3,0.2-0.2,0.2c0.2,0,0.4,0.1,0.4,0.2c0,0.1-0.1,0.2-0.4,0.2c-0.1,0.1-0.1,0.2,0,0.4c0,0.4-0.1,0.5-0.2,0.5
		c-0.1-0.1-0.2-0.1-0.2,0.2c0.1,0.2,0.1,0.5-0.2,0.7l-0.2,0.2c0.2,0,0.4,0.1,0.4,0.2l-0.4,0.4c-0.1,0-0.2,0-0.2,0.1
		c0,0.1,0.1,0.1,0.2,0.1c0.2,0.2,0.2,0.4-0.2,0.5c-0.2,0.2-0.2,0.4,0,0.4c0,0.1-0.1,0.2-0.2,0.4c-0.1,0.1-0.2,0.3-0.2,0.5
		c0,0.4-0.1,0.9-0.4,1.6l-0.4,1.1c-0.1,0-0.2,0.1-0.2,0.2s0,0.3,0,0.6s-0.1,0.6-0.4,1c-0.2,0.7-0.5,1.7-0.8,3.2s-0.6,2.9-1,4.4
		c-0.4,1.5-0.7,3-1,4.3s-0.5,2.2-0.6,2.8c-0.1,0.2-0.2,0.5-0.2,0.7s-0.1,0.5-0.2,0.7c-0.1,0.2-0.2,0.5-0.2,0.7
		c0,0.2-0.1,0.5-0.2,0.7c0,0.5-0.1,0.8-0.2,0.9c0,0.2,0,0.4-0.1,0.6c-0.1,0.2-0.1,0.4-0.1,0.6c0,0.4-0.1,1-0.4,2
		c-0.4,2-0.6,3.7-0.8,4.8c-0.2,1.1-0.4,2.5-0.6,3.9c0,0.2,0,0.5-0.1,0.9c-0.1,0.4-0.1,0.7-0.1,0.9c0,0.4,0,0.7-0.1,1
		c-0.1,0.3-0.1,0.5-0.1,0.6c0,0.2,0,0.5-0.1,0.8s-0.1,0.6-0.1,1c-0.1,0.5-0.2,0.9-0.2,1.4s-0.1,0.9-0.2,1.2
		c-0.2,2.5-0.4,4.7-0.4,6.7c-0.1,2-0.1,5.2-0.1,9.4c0,2.2,0,4.2,0.1,5.5c0.1,1.4,0.1,2.7,0.2,3.8c0.1,1.1,0.1,2.2,0.2,3.5
		c0.1,1.1,0.2,2.6,0.4,4.1c0.5,3.6,1,6.5,1.5,8.9c0.5,2.2,1.2,4.2,1.9,5.8c1.2,2.5,2.4,3.9,3.5,4.5c0.5,0.2,0.8,0.4,1.1,0.4
		c0.2,0.1,0.6,0.1,1.2,0.1c0.9,0,1.7-0.1,2.5-0.4c0.6-0.2,1.3-0.8,2-1.6l1.1-0.9l-0.5,0.7c-0.6,0.9-1.5,2-2.8,3.1l-0.7,0.5l0.7-0.2
		c1.1-0.2,1.9-0.7,2.6-1.4c0.4-0.4,0.5-0.5,0.5-0.4h0.4l-0.2,0.2c-0.1,0.1-0.2,0.3-0.4,0.5c-0.1,0.2-0.2,0.5-0.4,0.7
		c-0.1,0.2-0.3,0.5-0.5,0.8c-0.2,0.3-0.5,0.6-0.7,0.8c-0.6,0.5-0.9,0.7-0.9,0.8s0.2,0,0.5-0.1c0.5-0.2,0.8-0.4,0.9-0.5
		c0.2-0.2,0.3-0.2,0.1,0.2c-0.2,0.4-0.4,0.7-0.8,1.1c-0.4,0.4-0.9,0.5-1.8,0.5c-0.2,0.1-0.6,0.1-1,0.1
		C502.5,751.8,502.2,751.7,501.9,751.6z M468.2,626c0.4-0.9,1.4-2.4,3.4-4.3c1.8-1.8,3.7-3.5,5.5-4.8c0.7-0.5,1.6-1.1,2.9-1.8
		c1.1-0.7,2.4-1.4,3.6-2.1c1.2-0.7,2.2-1.3,3.3-1.9c0.9-0.5,1.6-0.9,2-1c0.5-0.1,0.7-0.3,0.7-0.5h-0.2c-0.4,0.4-0.9,0.6-1.8,0.7
		c-2,0.9-4.4,2.2-7.2,3.8s-4.9,3.1-6.6,4.5c-0.9,0.7-2,1.7-3.3,3s-1.9,2.2-2.1,2.8c-0.2,0.5-0.4,1-0.5,1.5c-0.1,0.5-0.1,0.8,0.2,0.8
		L468.2,626z M468.4,627.7l-0.2-0.2c-0.1,0-0.2,0.1-0.2,0.2l0.2,0.2C468.4,627.9,468.4,627.8,468.4,627.7z M473.5,622.7
		c0.7-0.7,1.7-1.5,3.1-2.6c1.3-0.9,2.4-1.6,3.1-2c0.4-0.1,0.5-0.3,0.5-0.5h0.2c0.2,0,0.4-0.1,0.4-0.2l0.2-0.2c0.2,0,0.4-0.1,0.4-0.2
		s0.2-0.3,0.5-0.4c0.4-0.2,0.6-0.2,0.7-0.1c0.1,0,0.2,0,0.2-0.1c0-0.1-0.1-0.1-0.2-0.1c0-0.2-0.1-0.3-0.4-0.2
		c-0.2,0.1-1.1,0.7-2.8,1.6c-0.6,0.4-1.2,0.7-2,1.2c-0.7,0.4-1.3,0.8-1.8,1.2c-0.5,0.4-1,0.8-1.6,1.3c-0.6,0.5-1.2,1.1-1.8,1.6
		c-0.6,0.5-1.1,1-1.5,1.4c-0.4,0.4-0.6,0.7-0.6,0.8s-0.1,0.2-0.2,0.2s-0.2,0.1-0.4,0.2c0,0.1,0.1,0.1,0.2,0c0.1,0,0.2,0.1,0.2,0.2
		c0.1,0,0.2-0.1,0.4-0.2l0.9-0.9c0.4-0.4,0.8-0.7,1.2-1.2C472.9,623.2,473.3,622.9,473.5,622.7z M483.5,615.8
		c0.5-0.2,0.6-0.4,0.4-0.4c-0.2,0-0.5,0.1-0.7,0.4C482.4,616.3,482.5,616.3,483.5,615.8z M488,714.8c0-0.1-0.1-0.2-0.2-0.4
		c-0.1,0-0.2,0.1-0.2,0.2l0.2,0.2L488,714.8L488,714.8z M490.9,732.6c-0.5-1.9-0.9-4.4-1.4-7.3c-0.5-2.9-0.8-5.4-1.1-7.5
		c0-0.2,0-0.5-0.1-0.8c-0.1-0.3-0.1-0.6-0.1-0.8c0-0.1,0-0.2-0.1-0.4c-0.1-0.1-0.1-0.2-0.1-0.4c0-0.4-0.1-0.5-0.2-0.5
		c-0.1,0-0.2,0.4-0.1,1.2c0.1,0.8,0.2,1.9,0.4,3.2c0.2,1.2,0.4,2.7,0.5,4.2c0.2,1.5,0.4,2.9,0.6,4.1c0.1,0.5,0.3,1.1,0.4,1.9
		c0.2,0.8,0.4,1.5,0.6,2.2c0.2,0.7,0.5,1.5,0.9,2.6L490.9,732.6z M488.5,673.3c0,0.1,0.1,0.2,0.2,0.2l0.4-0.2H488.5z M488.9,672.4
		v-0.2c-0.1,0-0.2,0.1-0.2,0.2v0.2C488.8,672.5,488.9,672.5,488.9,672.4z M489.4,671.3v-0.9c0.2-0.5,0.4-0.8,0.4-1.1
		c0.4-1.9,0.9-4.2,1.5-6.8c0.6-2.6,1.4-5.3,2.1-8.1c0.8-2.8,1.5-5.5,2.4-8.2s1.4-5,2-7.1c1.3-3.8,2.8-7.7,4.4-11.6
		c1.5-4,2.9-7.2,4-9.6l0.5-1.1c0.1-0.2,0.2-0.4,0.2-0.5c0.4-0.9,0.8-1.8,1.2-2.8c0.4-0.7,0.7-1.4,1.1-2.1c0.4-0.7,0.6-1.4,0.9-2
		c0.5-0.8,0.7-1.4,0.7-1.8s-0.4-0.4-1.1,0c-0.2,0.2-0.7,1.2-1.5,2.8c-0.8,1.6-1.6,3.3-2.5,5c-0.2,0.8-0.5,1.5-0.7,2
		c-0.2,0.5-0.6,1.2-1.1,2.1c-0.2,0.5-0.6,1.3-1,2.6c-0.4,1.2-0.9,2.6-1.5,4s-1.2,2.9-1.7,4.4c-0.5,1.4-1,2.8-1.3,3.8
		c-0.7,1.8-1.4,3.9-2.1,6.3c-0.7,2.5-1.4,4.9-2.1,7.4c-0.7,2.5-1.3,4.9-1.9,7.2c-0.5,2.2-1,4.2-1.3,5.8c0,0.2-0.1,0.7-0.2,1.2
		c-0.1,0.6-0.2,1.2-0.4,2c-0.2,0.8-0.4,1.7-0.6,2.8c-0.2,0.9-0.3,1.7-0.4,2.4c-0.2,0.9-0.4,1.5-0.4,1.7s0.1,0.3,0.4,0.3h0.2V671.3z
		 M489.1,671.7c-0.1,0-0.2,0.1-0.2,0.2s0.1,0.2,0.2,0.2l0.2-0.2C489.2,671.7,489.2,671.7,489.1,671.7z M491.3,608.5
		c-0.2,0-0.4,0.1-0.4,0.2c-0.1,0.1-0.1,0.2,0,0.2L491.3,608.5z M507.5,630.7c0.2-0.2,0.2-0.3,0-0.2l-0.4,0.4v0.2
		C507.4,631,507.5,630.9,507.5,630.7z M508.1,629.6c0.1-0.2,0.1-0.2-0.2,0c-0.2,0-0.4,0.1-0.4,0.4
		C507.5,630.1,507.7,630,508.1,629.6z M510,624.9c0.1-0.2,0.1-0.2-0.2,0l-0.4,0.4C509.4,625.4,509.6,625.2,510,624.9z M516.3,597.5
		c0.2-0.1,0.5-0.3,0.7-0.5l0.2-0.4c0.1,0,0.2-0.1,0.2-0.4l1.4-2.6c0.4-0.7,0.7-1.3,1-1.8s0.4-0.8,0.4-0.9c0-0.1,0.1-0.2,0.2-0.2
		c0.2,0,0.4-0.2,0.4-0.5c0.2-0.5,0.4-0.7,0.5-0.7s0.2-0.1,0.2-0.2s0.1-0.2,0.2-0.4l0.4-0.7c0.1-0.1,0.2-0.2,0.2-0.4
		c0-0.1,0.1-0.2,0.2-0.4c0-0.1,0.1-0.2,0.2-0.2c0-0.1,0.2-0.5,0.7-1.2s1.1-1.5,1.8-2.6c0.2-0.5,0.5-0.9,0.8-1.4
		c0.3-0.5,0.6-0.9,0.8-1.2c0.2-0.5,0.5-0.8,0.7-1.1c0.2-0.2,0.4-0.5,0.5-0.7c0.4-0.4,0.6-0.6,0.7-0.9c0.4-0.6,0.8-1.3,1.4-2.1
		c0.2-0.4,0.5-0.8,0.8-1.2c0.3-0.5,0.6-0.8,0.8-1.1c0.9-1.3,1.8-2.5,2.6-3.5c0.7-0.9,1.2-1.5,1.4-1.8c0.6-0.6,1.1-1.2,1.4-1.8
		c0.4-0.6,0.5-1,0.5-1.2s0-0.4-0.1-0.4s-0.3,0.2-0.6,0.7c-0.2,0.2-0.4,0.5-0.6,0.7c-0.2,0.2-0.3,0.4-0.4,0.5
		c-0.1,0.1-0.5,0.7-1.2,1.6c-0.7,0.9-1.5,2-2.5,3.3c-0.9,1.2-1.7,2.4-2.7,3.5c-0.8,1.1-1.4,1.8-1.6,2.1c-0.7,0.9-1.1,1.5-1.2,1.8
		c-0.1,0.1-0.5,0.6-1.1,1.5c-0.6,0.9-1.3,1.9-2,3.2c-0.8,1.2-1.5,2.5-2.4,3.6c-0.8,1.2-1.4,2.1-1.9,2.9c-0.2,0.5-0.6,1.1-1.1,1.9
		c-0.5,0.8-0.9,1.5-1.4,2.2c-0.5,0.7-1,1.7-1.6,2.9C515.2,598,515.6,598,516.3,597.5z"/>
	<path class="st1" d="M529.9,721.1c-0.6,0-1.4-0.4-2.6-1.1c-0.9-0.6-1.5-0.9-1.8-0.9c-0.2,0-0.6-0.2-1.1-0.6c-0.5-0.4-1-0.9-1.7-1.4
		c-0.7-0.5-1.3-1.1-1.9-1.8c-0.6-0.6-1.1-1.2-1.4-1.7c-0.6-0.9-1.2-2.4-1.9-4.2c-0.6-1.8-1.1-3.4-1.3-4.7c-0.2-1.2-0.3-2.8-0.2-4.6
		c0.1-1.8,0.3-3.4,0.5-4.6c0.8-3.4,2.1-6.8,3.9-10.2c1.7-3.5,3.9-6.3,6.2-8.8c0.6-0.7,1.5-1.6,2.8-2.8c1.2-1.1,2.1-1.8,2.8-2.1
		c0.8-0.5,1.7-0.2,2.8,0.7c0.5,0.6,0.6,1,0.4,1.2c-0.2,0.4-0.4,0.5-0.5,0.5c-0.1-0.1-0.3,0-0.4,0.4c-0.2,0.4-0.3,0.7-0.4,1.1
		c-0.1,0.8,0.1,1.1,0.5,0.7c0.1-0.1,0.1-0.4-0.2-0.7l-0.2-0.4h0.5c0.1-0.1,0.4-0.1,0.7,0.2c0.2,0.1,0.4,0.1,0.4,0.1
		c0.1-0.1,0.3-0.2,0.8-0.4c0.4-0.5,0.8-0.7,1.2-0.7c0.2,0,0.5,0.2,0.7,0.4c0.2,0.3,0.3,0.5,0.2,0.6c-0.2,0.8-0.1,1.7,0.4,2.8
		c0.2,0.5,0.4,0.8,0.4,1.1c0,0.1,0.1,0.2,0.2,0.2c0.2,0,0.5,0.1,0.7,0.4c0.2,0.2,0.2,0.6,0,1.1c-0.1,0.2-0.3,0.6-0.6,1
		s-0.7,0.9-1.2,1.3c-4.4,5.2-7.6,9.9-9.5,14.1c-2,4.2-3,8.3-3,12.3v2.4l0.9,0.2c0.9,0.2,2.2,0.3,3.9,0.1c1.6-0.2,3-0.4,3.9-0.6
		c2.5-0.6,5.2-1.6,8.4-3c3.2-1.4,7.3-3.4,12.4-5.9c1.9-0.9,3.6-1.8,5.1-2.7c1.4-0.8,3-1.6,4.5-2.6c1.5-0.9,3.4-2,5.3-3.3
		c2-1.2,4.4-2.9,7.4-4.8c2.9-2,4.7-3.4,5.4-3.8c0.7-0.5,1-0.6,0.9-0.4c0,0.1-0.4,0.5-1.3,1.2c-0.9,0.7-2,1.5-3.4,2.6
		c-4.2,3.2-7.8,5.7-10.7,7.7c-2.9,2-5.6,3.8-8.2,5.3c-0.8,0.5-1.6,0.9-2.5,1.4c-0.8,0.5-1.3,0.8-1.7,1.1c-0.5,0.2-0.8,0.4-0.9,0.5
		c-0.1,0.1-0.2,0.2-0.4,0.2c-0.5,0-0.7,0.2-0.7,0.5c0,0.2,0.3,0.2,0.9-0.2c0.2-0.1,0.6-0.3,1-0.4c0.4-0.2,0.7-0.4,1-0.6
		c2.9-1.5,5.5-3.1,7.9-4.6s5.1-3.4,8.3-5.5c3.2-2.1,5.7-4,7.8-5.4c2-1.4,3.1-2.1,3.1-2l-0.2,0.2c-0.2,0-0.5,0.2-0.9,0.5
		c-0.4,0.4-0.5,0.6-0.5,0.7c0,0.5-0.2,0.8-0.7,1.1c-0.2,0.1-0.4,0.1-0.4,0c0.1-0.1,0.1-0.2,0-0.2c-0.1,0.1-0.2,0.2-0.2,0.4
		c0.1,0.1-0.6,0.8-2.1,2s-3.5,2.8-5.6,4.4s-4.4,3.3-6.7,5c-2.2,1.7-4.1,3-5.4,3.8c-1.1,0.6-1.6,1-1.6,1.2c0,0.1,0.2,0,0.7-0.4
		c0.2-0.2,0.5-0.4,0.9-0.6c0.4-0.2,0.6-0.3,0.9-0.4c0.2-0.2,0.5-0.4,0.7-0.4c0.2-0.1,0.4-0.1,0.5-0.3c0.2-0.2,0.4-0.4,0.5-0.4
		c0.1-0.1,0.3-0.1,0.5-0.3c0.1,0,0.2-0.1,0.4-0.2c0-0.1,0.1-0.2,0.4-0.2c0.1,0,0.2-0.1,0.2-0.2c0-0.1,0.1-0.2,0.2-0.2
		c0.1,0,0.2-0.1,0.4-0.2c0.1-0.1,0.6-0.5,1.5-1.1c0.9-0.6,1.9-1.4,3.2-2.4c1.1-0.8,2-1.5,2.9-2.1c0.8-0.6,1.2-0.8,1.1-0.7
		c0,0.1-0.3,0.4-0.9,0.9c-0.6,0.5-1.3,1-2.1,1.6c-1.7,1.3-2.9,2.2-3.6,2.9s-1.2,0.9-1.4,1.1c-0.2,0.2-1,0.8-2.2,1.7
		c-1.2,0.9-2,1.4-2.5,1.7c-0.1,0.4-0.5,0.7-1.1,0.9c-0.2,0.4-0.5,0.5-0.7,0.5c-0.1,0-0.2,0.1-0.4,0.2c-2,1.4-3.8,2.7-5.2,3.6
		c-1.4,0.9-2.8,1.7-4.2,2.7c-1.4,0.8-2.6,1.5-3.4,2c-2.1,1.2-3.9,2.1-5.2,2.8c-1.2,0.6-2.6,1.1-3.7,1.6c-1.3,0.5-2.8,0.8-4.2,1.1
		C532.5,721.3,531.1,721.3,529.9,721.1z M521.2,695.6c0-0.1,0-0.2,0.1-0.3c0.1-0.1,0.1-0.1,0.1-0.3c0-0.1,0.1-0.2,0.2-0.4
		c0.1-0.1,0.2-0.2,0.2-0.4c0-0.2,0.1-0.4,0.2-0.5c0.1-0.2,0.2-0.5,0.4-0.9c0.1-0.4,0.2-0.6,0.4-0.9c0.2-0.7,0.6-1.7,1.2-3
		c0.6-1.2,1-2,1.2-2.2c0.2-0.2,0.4-0.5,0.5-0.7c0.1-0.2,0.2-0.5,0.4-0.7c0-0.2,0.1-0.4,0.2-0.4l0.2-0.2c-0.2-0.1-0.2-0.3,0-0.5
		c0.1-0.2,0.2-0.4,0.2-0.5c0-0.1-0.1-0.1-0.2,0c-0.1,0.1-0.1,0.2,0,0.2c0,0.1-0.1,0.2-0.2,0.2l-0.4,0.7c-0.1,0.4-0.4,0.9-0.9,1.6
		c-0.4,0.4-0.7,0.9-1.2,1.8c-0.4,0.8-0.8,1.7-1.2,2.8c-0.4,0.9-0.8,1.9-1.2,2.9c-0.4,0.9-0.6,1.7-0.7,2.5c-0.1,0.5-0.1,0.7,0,0.5
		C520.7,696.5,520.9,696.2,521.2,695.6z M528.1,682c0.1-0.4,0.1-0.5,0-0.5c-0.1,0.1-0.3,0.3-0.4,0.5c-0.2,0.2-0.2,0.4-0.1,0.4
		C527.7,682.3,527.9,682.2,528.1,682z M529.7,679.7l-0.4,0.4C529.3,680.3,529.5,680.2,529.7,679.7z M535.1,674.7
		c0-0.1,0.1-0.2,0.2-0.2s0.2,0.1,0.2,0.2s-0.1,0.2-0.2,0.2C535.3,674.7,535.2,674.7,535.1,674.7z M544.7,662.4c-1.7-1.2-3-3-3.7-5.3
		c-0.8-2.4-1.2-5.7-1.2-10c0.1-2.8,0.3-5.1,0.6-6.8c0.3-1.8,0.9-3.5,1.9-4.9c0.2-0.4,0.6-0.9,1.2-1.6c0.5-0.7,1.1-1.4,1.7-2.1
		c0.6-0.7,1.2-1.4,1.7-2c0.5-0.6,0.9-0.9,1.2-1.1c1.1-0.6,1.9-0.7,2.6-0.4c1.2,0.5,1.8,1.1,1.8,2l0.2,0.2c0.2-0.6,0.6-0.6,1.2,0
		c0.1,0,0.2,0.4,0.2,1.1c0,0.6,0.2,1.1,0.7,1.6c0.4,0.4,0.5,0.9,0.5,1.6c0,0.6-0.1,1.2-0.3,1.8c-0.2,0.6-0.5,1.4-1,2.6
		c-0.8,1.7-1.5,3.3-2.1,4.7s-1.1,2.9-1.6,4.2c-1.7,4.5-2.9,7.7-3.4,9.7c-0.5,2-0.7,3.4-0.6,4.3c0,0.7,0.1,1.1,0.4,1.1
		c0.2,0.2,0.1,0.4-0.4,0.4C546.2,663.1,545.7,662.9,544.7,662.4z M544.4,642.4c0.1-0.2,0.3-0.6,0.4-1c0.2-0.4,0.4-0.9,0.6-1.5
		c0.2-0.5,0.4-0.9,0.6-1.3c0.2-0.4,0.3-0.7,0.4-1c0.2-0.5,0.5-0.9,0.7-1.2c0.2-0.4,0.3-0.6,0.2-0.9c0.1-0.1,0.2-0.2,0.4-0.2
		c0.1,0,0.2-0.1,0.2-0.4v-0.2l0.4-0.2c0-0.4,0.1-0.5,0.4-0.5l0.2-0.2c-0.1,0-0.1-0.2,0.2-0.5c0.5-0.2,0.6-0.4,0.4-0.4
		c-0.1,0,0.1-0.2,0.5-0.7c0.6-0.6,0.8-1.1,0.5-1.4c-0.2,0-0.5,0.4-0.9,1.2c-0.2,0.2-0.4,0.5-0.6,0.8c-0.2,0.3-0.3,0.5-0.4,0.6
		l-0.7,1.1c-0.1,0.2-0.2,0.4-0.4,0.5c-0.1,0.1-0.2,0.2-0.2,0.4l-0.4,0.4c-0.2,0.2-0.2,0.4,0,0.4l-0.2,0.2c-0.2,0.2-0.6,0.9-1.2,2
		c-0.5,1.1-0.9,2-1.2,2.8c-0.1,0.5-0.2,0.9-0.4,1.4c-0.1,0.5-0.1,0.7,0,0.7s0.2-0.1,0.2-0.2C544.2,642.8,544.2,642.6,544.4,642.4z
		 M553.4,706.4l0.2-0.2c0.2-0.2,0.3-0.4,0.3-0.4c-0.1-0.1-0.2,0-0.4,0.3c-0.5,0.2-0.7,0.4-0.7,0.5c0.1,0,0.2-0.1,0.4-0.2
		C553.3,706.2,553.4,706.2,553.4,706.4z M581.7,689c0.1,0,0.2-0.1,0.4-0.2l0.2-0.2C581.9,688.3,581.7,688.4,581.7,689z"/>
	<path class="st1" d="M572.8,721.1c-0.2-0.2-0.5-0.4-0.7-0.6c-0.2-0.2-0.5-0.3-0.7-0.3c-1.1,0-1.7-0.4-2-1.1c0-0.2-0.4-0.6-1.1-1.1
		c-1.4-1.2-2.2-2.5-2.6-3.6c-0.2-0.7-0.4-1.2-0.5-1.4c-0.2-0.4-0.3-1.3-0.2-2.8c0.1-1.5,0.3-2.7,0.5-3.4c0.6-1.8,1.5-3.9,2.9-6
		c1.3-2.2,2.8-4.2,4.2-5.9c0.2-0.2,0.7-0.7,1.2-1.3c0.6-0.6,1.2-1.4,2-2.2c2-2.5,4.3-4.7,6.6-6.9c2.4-2.2,5.2-4.9,8.6-7.9
		c2.6-2.1,4.5-3.8,5.8-4.7c0.6-0.2,1.1-0.5,1.4-0.8c0.4-0.3,0.6-0.5,0.9-0.6c0.6-0.4,1.4-0.8,2.7-1.4c1.1-0.6,2-1,2.8-1.2
		c0.6-0.2,1.1-0.4,1.5-0.4c0.4-0.1,1-0.1,1.9-0.1c1.1,0,1.9,0.1,2.5,0.3c0.5,0.2,1.3,0.6,2.2,1.2c1.3,0.9,2.5,2.5,3.5,4.4
		c0.5,0.9,0.7,1.5,0.7,1.6c0.1,0,1-0.4,2.8-1.2c1.4-0.7,2.6-1.1,3.2-1.2s1.4-0.1,2.5,0.2c0.8,0.2,1.5,0.6,2,1.1
		c0.5,0.7,1.2,1.2,2.1,1.6c1.7,0.9,2.8,2.6,3.3,4.7c0.1,0.2,0.3,0.6,0.4,1c0.2,0.4,0.4,0.8,0.6,1.2c0.2,0.6,0.4,1,0.5,1.3
		c0.1,0.3,0.2,0.7,0.4,1.2c0.1,0.5,0.2,1.1,0.4,1.9c0.1,0.8,0.2,1.9,0.4,3.4c0.5,3.6,0.9,6.3,1.2,8.2s0.6,3.1,1,3.8
		c0.5,0.9,0.8,1.5,0.9,1.6c0.7,0.6,2.1,0.8,4.4,0.7c2.1-0.1,4.2-0.5,6.1-1.1c1.5-0.6,3-1.2,4.1-1.9c1.1-0.6,2.8-1.7,4.8-3.2
		c2.5-1.8,4.5-3.5,6.1-5c1.7-1.5,3.6-3.5,5.8-5.9c0.8-0.9,1.7-1.9,2.6-2.8c0.8-0.9,1.4-1.4,1.6-1.7l0.7-1.1l-0.5,0.9
		c-2.2,4.1-5.7,8.4-10.3,12.7c-0.6,0.6-1.3,1.3-2.2,2c-0.9,0.8-1.7,1.5-2.7,2.2c-0.8,0.7-1.6,1.3-2.2,1.9c-0.7,0.5-1,0.9-1.2,1
		c-0.4,0-0.5,0.2-0.5,0.5c0,0.2-0.1,0.4-0.2,0.4l-0.2,0.2c0,0.2,0.6-0.1,1.8-1c1.2-0.9,2.9-2.2,4.9-3.9c2-1.7,4.3-3.8,6.6-6.3
		c2.4-2.6,4.3-4.8,5.7-6.8c0-0.2,0.1-0.5,0.4-0.7c0.1-0.1,0.2-0.2,0.4-0.2s-0.3,1.2-1.6,3.6c-0.5,0.7-0.8,1.2-0.9,1.4
		c-0.1,0.2-0.2,0.4-0.2,0.5s-0.1,0.2-0.2,0.2l-0.7,1.1c-0.2,0.2-0.4,0.5-0.6,0.8c-0.2,0.3-0.3,0.6-0.4,0.8c-0.4,0.2-0.5,0.5-0.5,0.7
		c0.1,0,0.4-0.2,0.9-0.7c0.5-0.5,0.7-0.7,0.7-0.6s-0.3,0.4-0.9,1.2c-0.5,0.7-1,1.5-1.7,2.5c-0.7,0.9-1.1,1.5-1.3,1.7
		c-0.1,0.1-0.4,0.5-0.9,1.2l-2,2l-1.6,1.6c-0.1,0.5-0.3,0.7-0.5,0.7c0-0.1-0.1-0.1-0.2-0.1c-0.1,0.1-0.2,0.2-0.2,0.4l-0.5,0.5
		c-0.2,0-0.4,0.1-0.4,0.4l-0.2,0.4c-0.2,0-0.7,0.3-1.2,0.9c-0.6,0.8-1.4,1.5-2.6,2.1c-4.6,3.4-8.8,4.7-12.5,4
		c-1.7-0.2-3.6-1-5.5-2.4c-2-1.3-3.6-2.9-4.8-4.5c-3.1-4-5-10.1-6-18.3c-0.2-1.5-0.4-2.6-0.5-3c-0.1-0.4-0.4-0.5-0.9-0.3
		c-0.2,0-1.1,0.6-2.6,1.7s-3.2,2.6-5.1,4.2c-1.9,1.6-4,3.4-6,5.2c-2.1,1.8-4.1,3.7-5.9,5.3c-0.2,0.2-0.4,0.4-0.6,0.5
		c-0.2,0.1-0.3,0.2-0.4,0.4c-0.2,0.1-0.4,0.2-0.4,0.4c-0.1,0-0.6,0.4-1.4,1.2c-0.8,0.8-1.5,1.5-2.1,2.1c-0.4,0.4-0.7,0.5-0.9,0.5
		l-0.7,0.7c-0.6,0.6-1.5,1.4-2.9,2.6c-1.2,1.1-3.4,3-6.4,5.6c-2,1.7-3.9,3.1-5.3,4.1c-1.5,1-3,1.9-4.4,2.7c-3.1,1.5-5.1,2-6.3,1.2
		c-0.2-0.2-0.4-0.3-0.4-0.3c-0.1,0.1,0,0.2,0.3,0.4c0.1,0.1,0.1,0.2-0.2,0.2C573.9,722,573.4,721.7,572.8,721.1z M569,710.3l0.4-0.7
		c0.2-0.2,0.4-0.5,0.4-0.7c0-0.1,0.1-0.4,0.4-1c0.2-0.5,0.5-1.1,0.7-1.7c0.7-1.4,1.4-2.8,2.2-4c0.8-1.2,1.7-2.5,2.9-3.8
		c0.2-0.2,0.4-0.5,0.6-0.7c0.2-0.2,0.3-0.4,0.3-0.5c0.4-0.5,0.7-0.9,1.2-1.3c0.4-0.4,0.7-0.6,0.8-0.6V695l0.2-0.4
		c0.2,0,0.4-0.1,0.4-0.2c0-0.2,0.2-0.5,0.5-0.9c0.2-0.1,0.4-0.2,0.4-0.4c0.1-0.1,0-0.2-0.1-0.2c0.1-0.1,0.2-0.2,0.4-0.2
		c0.4-0.1,0.5-0.3,0.5-0.5c0-0.2,0.1-0.4,0.2-0.4s0.3-0.2,0.5-0.5c0.1-0.4,0.3-0.5,0.5-0.5c0.1-0.1,0.2-0.2,0.2-0.4
		c0-0.1,0.1-0.2,0.2-0.2c0.2,0,0.4-0.1,0.5-0.3c0.1-0.2,0.1-0.3,0-0.4c0-0.1,0.1-0.2,0.4-0.2c0.1,0,0.2-0.1,0.2-0.4
		c0-0.1,0.1-0.2,0.2-0.2c0.4,0,0.5-0.2,0.5-0.5l1.1-1.1c0.6-0.6,0.8-0.9,0.7-0.9c0-0.1,0.1-0.2,0.2-0.2c0.1,0,0.2-0.1,0.4-0.2
		l0.5-0.5c0.2-0.1,0.4-0.2,0.4-0.4c0.1-0.1,0-0.2-0.1-0.2l0.2-0.2c0.1-0.1,0.2-0.2,0.2-0.3s0.1-0.1,0.4-0.3l0.5-0.5
		c0.1-0.1,0.2-0.2,0.2-0.4c0-0.1,0.1-0.2,0.2-0.2c0.1-0.1,0.3-0.2,0.5-0.4c0.4-0.1,0.7-0.5,1.1-1.1c0.5-0.5,0.9-0.9,1.4-1.4
		c0.5-0.5,0.9-0.8,1.2-1.1l0.7-0.7c-0.1,0-0.2-0.1-0.2-0.2c0.1-0.1,0.2-0.2,0.4-0.2c0.1,0,0.5-0.3,1.2-0.9c0.6-0.6,1.3-1.2,2-2
		c0.1-0.1,0.2-0.2,0.4-0.3c0.1-0.1,0.2-0.1,0.4-0.3l0.2-0.2c0.1,0,0.5-0.2,1.2-0.7c0.6-0.5,1-0.8,1-0.9h-0.2H601
		c-0.1-0.2-0.2-0.3-0.4-0.3c-0.1,0.1-0.2,0.2-0.2,0.4c0,0.1,0,0.2,0.1,0.2c0.1,0,0.1-0.1,0.1-0.2l0.4-0.2l-0.5,0.5
		c-0.4,0.2-0.5,0.2-0.4,0c0.1-0.4-0.2-0.2-1.1,0.5c-0.8,0.6-1.5,1-1.9,1.3c-0.4,0.3-1.3,1-2.7,2.2c-0.5,0.5-1.3,1.2-2.6,2.4
		c-1.2,1.1-2.5,2.2-3.7,3.6c-1.2,1.2-2.5,2.5-3.5,3.6c-1,1.1-1.7,1.9-2,2.2c-0.2,0.2-0.5,0.5-0.8,0.9s-0.6,0.7-0.8,0.9
		c-0.5,0.7-0.9,1.2-1.2,1.6c-0.6,0.7-1.2,1.5-1.9,2.2c-0.6,0.8-1.2,1.3-1.5,1.7c-0.9,1.3-1.7,2.4-2.4,3.2c-0.6,0.8-1,1.4-1.2,1.9
		c-0.7,1.1-1.4,2.5-2,4.1s-1,2.8-1.2,3.4c-0.1,0.2-0.2,0.4-0.2,0.6c0,0.2-0.1,0.3-0.2,0.4c0,0.2,0.1,0.4,0.2,0.4L569,710.3z
		 M570.9,718.8l-0.4-0.2c-0.2,0.1-0.3,0.2-0.2,0.4c0.1,0.1,0.3,0.2,0.5,0.2C571.1,719.1,571.1,719,570.9,718.8z M581.2,704.5
		c0.4-0.4,0.9-0.8,1.8-1.4c0.8-0.6,1.7-1.2,2.6-2c0.8-0.7,1.6-1.4,2.4-2c0.7-0.6,1.2-1,1.6-1.2c0.2-0.2,0.7-0.7,1.4-1.3
		c0.7-0.6,1.4-1.3,2.1-1.9c0.7-0.6,1.7-1.4,3.1-2.7c1.3-1.1,2.6-2.2,3.6-3.2c1.2-0.9,2.4-1.9,3.5-2.9c1.1-0.9,1.8-1.5,2.1-1.8
		c0.6-0.6,1.5-1.4,2.8-2.5c1.2-1,2.9-2.2,4.6-3.7c1.5-1.4,2.4-2.2,2.4-2.4c0-0.5-0.2-1.1-0.7-1.9c-0.5-0.8-0.9-1.3-1.2-1.5
		c-0.2-0.2-0.4-0.4-0.6-0.4s-0.6,0.1-1.2,0.4c-0.4,0.1-0.8,0.3-1.4,0.5c-0.6,0.2-1.1,0.5-1.6,0.7c-0.8,0.6-1.9,1.4-3.3,2.5
		c-1.3,1-2.2,1.8-2.9,2.5c-0.2,0.1-0.5,0.4-0.8,0.7c-0.3,0.4-0.6,0.7-1,0.9l-2,2c-0.9,1.1-2,2.4-3.4,3.7c-1.2,1.4-2,2.2-2.2,2.5
		l-0.7,0.7c-0.4,0.4-0.8,0.9-1.2,1.6c-0.6,0.6-1.1,1.1-1.4,1.6c-0.4,0.5-0.6,0.7-0.7,0.7c-0.2,0.2-0.5,0.5-0.7,0.9
		c-0.2,0.2-0.5,0.5-0.7,0.8s-0.5,0.6-0.7,1c-0.6,0.7-1.1,1.4-1.5,2c-0.4,0.6-0.7,0.9-0.8,1.1c-0.1,0.1-0.3,0.3-0.4,0.4
		c-0.2,0.2-0.3,0.4-0.4,0.6c-0.4,0.6-0.6,0.9-0.7,0.9c-0.1,0.1-0.2,0.2-0.3,0.4c-0.1,0.1-0.2,0.2-0.3,0.4s-0.3,0.5-0.5,0.7
		c-0.4,0.5-0.7,1.2-1.2,2c-0.4,0.9-0.5,1.3-0.3,1.3c0.1,0,0.2-0.1,0.4-0.2c0.1-0.1,0.2-0.2,0.4-0.3
		C580.8,704.9,580.9,704.7,581.2,704.5z M586.8,706.3c0.1-0.1,0.1-0.3,0-0.5c-0.1,0-0.2,0.1-0.2,0.2c0.2,0,0.2,0.1,0,0.4l-0.2,0.2
		C586.5,706.4,586.7,706.4,586.8,706.3z M588,704.3l0.4-0.2v-0.2c0,0.1-0.1,0.2-0.2,0.2l-0.4,0.2l-0.2,0.4L588,704.3z M589.5,703.8
		c0.2-0.2,0.3-0.4,0.2-0.4c-0.2,0-0.3-0.1-0.2-0.2c0-0.5-0.1-0.5-0.4,0c-0.2,0.1-0.4,0.3-0.4,0.5l0.2,0.4c-0.1,0.1-0.1,0.2,0,0.2
		L589.5,703.8z M589,703.8c0-0.1,0.1-0.2,0.2-0.4c0.1,0,0.2,0.1,0.2,0.2v0.2C589.1,704.2,589,704.2,589,703.8z M593.1,700.8
		c0.6-0.4,1.2-0.7,1.7-1.2c0.5-0.4,0.9-0.7,1.2-1c0.2-0.2,0.6-0.6,1.1-1.1s0.9-0.9,1.4-1.2c0.5-0.5,0.9-0.9,1.2-1.2
		c0.4-0.4,0.6-0.6,0.9-0.7c0.2,0,0.4-0.1,0.5-0.3c0.1-0.2,0.3-0.4,0.5-0.6c0.6-0.6,1.1-1,1.4-1.2c0.4-0.4,0.9-0.9,1.8-1.7
		c0.8-0.8,1.6-1.4,2.4-2l0.5-0.5c0.1-0.1,0.2-0.2,0.4-0.2c0.1,0,0.5-0.3,1.1-0.9c0.6-0.6,0.8-0.9,0.7-0.9c-0.4,0-0.4-0.2-0.2-0.5
		c0.2-0.2,0.2-0.2-0.2,0l-1.2,1.2l-0.7,0.4h-0.4c0,0.1,0,0.2-0.1,0.3c-0.1,0.1-0.1,0.2-0.1,0.3c-0.2,0-0.8,0.4-1.6,1.2
		c-0.4,0.4-0.8,0.7-1.3,1.2c-0.5,0.4-0.9,0.7-1.2,1c-0.4,0.4-0.8,0.8-1.3,1.2c-0.5,0.5-1,0.9-1.5,1.2c-1.5,1.4-2.9,2.6-3.7,3.5
		c-0.9,0.8-1.4,1.4-1.7,1.6c-0.1,0.1-0.2,0.2-0.3,0.2s-0.2,0.1-0.3,0.2l-0.2,0.2c-0.1,0-0.4,0.2-0.7,0.5c-0.2,0.4-0.4,0.5-0.5,0.5
		l-0.4,0.4c-0.1,0.1-0.3,0.2-0.4,0.4c-0.2,0.1-0.3,0.3-0.4,0.5c-0.8,0.7-1.3,1-1.4,0.9l-0.4,0.4c-0.2,0.2-0.3,0.4-0.3,0.4
		c0.1,0,0.1-0.1,0.3-0.4h0.4c0.2,0,0.4-0.1,0.4-0.4c0.1-0.1,0.3-0.2,0.5-0.2v0.4c-0.4,0.2-0.5,0.4-0.5,0.6c0,0.2,0.1,0.2,0.4-0.1
		c0.1-0.2,0.4-0.5,0.8-0.9C592,701.7,592.5,701.3,593.1,700.8z M591.3,702.1c-0.1-0.1,0.1-0.4,0.5-1c0.5-0.5,0.8-0.8,0.9-0.8
		c0.2,0,0.6-0.3,1.2-0.9l0.7-0.7c0.1-0.1,0.2-0.2,0.4-0.2s0.6-0.3,1.2-1c0.6-0.6,0.9-1,0.9-1.2V696c0.1,0.2,0.3,0.2,0.5,0
		c0.2-0.2,0.3-0.3,0.2-0.1c-0.1,0.2-0.3,0.4-0.5,0.6c-0.4,0.4-0.6,0.5-0.7,0.5s-0.1,0.1,0,0.2c0,0.1-0.1,0.2-0.2,0.2l-1.1,1.1
		l-0.7,0.7c-0.1,0.1-0.2,0.2-0.4,0.2l-1.6,1.2c-0.4,0.4-0.7,0.7-1,1C591.5,702.1,591.3,702.2,591.3,702.1z M591.8,701.5
		c0.4-0.4,0.5-0.5,0.4-0.5l-0.5,0.5c-0.1,0.1-0.2,0.2-0.2,0.4c0,0.1-0.1,0.2-0.2,0.2L591.8,701.5z M595,699l0.2-0.4l-0.2,0.2
		c-0.1,0-0.2,0-0.2,0.1s-0.1,0.1-0.2,0.1l-0.2,0.4c0-0.1,0.1-0.2,0.2-0.2C594.7,699.1,594.8,699.1,595,699z M598.3,695.6l0.4-0.4
		c0.2-0.1,0.3-0.1,0.2,0.2C598.4,695.8,598.3,695.8,598.3,695.6z M599,673.6c0.1-0.1,0.2-0.2,0.4-0.2c0,0.1-0.1,0.2-0.2,0.4
		C599,673.9,599,673.9,599,673.6z M599.3,694.9l0.4-0.4C599.4,695,599.3,695.1,599.3,694.9z M602.3,671.8c0.1,0,0.2,0,0.2-0.1
		s0.1-0.1,0.2-0.1l0.2-0.2c0-0.2-0.4-0.1-1.1,0.4l-0.4,0.4h-0.1c-0.1-0.1-0.2-0.1-0.2-0.1c0,0.1,0.1,0.2,0.2,0.3
		c0,0.2,0,0.4,0.1,0.4s0.1-0.1,0.1-0.4C601.6,672.3,601.9,672.1,602.3,671.8z M601.6,693c0-0.1,0.1-0.2,0.2-0.4l0.7-0.7
		c0.6-0.7,1-0.9,1.2-0.7c0.1,0.1,0.1,0.2,0,0.2c-0.2-0.1-0.7,0.1-1.2,0.6c-0.6,0.5-0.8,0.9-0.7,1v0.2
		C601.7,693.2,601.6,693.1,601.6,693z M603.9,670.5c-0.1,0-0.2,0.1-0.4,0.2c-0.2,0.2-0.3,0.4-0.3,0.4c0.1,0.1,0.2,0,0.4-0.1
		C603.9,670.8,604,670.6,603.9,670.5z M604.6,690.2l0.5-0.5c0.2-0.2,0.4-0.4,0.5-0.4c0.1-0.1,0.1,0,0,0.1v0.4
		c-0.2,0-0.5,0.1-0.7,0.4C604.7,690.2,604.6,690.3,604.6,690.2z M606.7,688.3l0.5-0.5c0.2,0,0.4,0.1,0.4,0.2l-0.4,0.2
		c-0.1,0-0.3,0.1-0.5,0.4C606.5,688.7,606.5,688.6,606.7,688.3z M607.7,687.2l0.2-0.2c0.1,0,0.2-0.1,0.4-0.2c0.1,0,0.3-0.1,0.5-0.4
		c0.5-0.5,0.8-0.6,1.1-0.5c0,0.1-0.1,0.2-0.4,0.2l-0.4,0.4c-0.2,0.2-0.5,0.5-0.9,0.7C607.9,687.5,607.7,687.5,607.7,687.2z
		 M611.2,685c0.2-0.2,0.2-0.3,0-0.2c-0.2,0.2-0.4,0.3-0.4,0.3c-0.1-0.1,0-0.2,0.1-0.4c0-0.1-0.1-0.2-0.2-0.2l-0.2,0.4
		c0,0.1-0.1,0.2-0.2,0.4s-0.1,0.3,0.2,0.3C610.8,685.5,611,685.2,611.2,685z M611.2,683.9c0.2-0.2,0.2-0.3,0-0.2l-0.4,0.4v0.2
		L611.2,683.9z M612.2,683.6c0.1-0.2,0.1-0.3-0.2-0.2c-0.2,0.4-0.3,0.5-0.2,0.5L612.2,683.6z M613.5,682.5c0.1-0.2,0.1-0.2-0.2,0
		c-0.5,0.2-0.5,0.4-0.2,0.4L613.5,682.5z M614.7,682.3c0-0.1-0.1-0.2-0.2-0.2c-0.2,0-0.3,0.1-0.2,0.2c0,0.1,0.1,0.2,0.2,0.2
		C614.5,682.4,614.6,682.3,614.7,682.3z M615.6,681.4C615.7,681.4,615.7,681.4,615.6,681.4c0-0.1-0.1-0.2-0.2-0.2l-0.2,0.2l0.2,0.2
		C615.5,681.6,615.6,681.6,615.6,681.4z M631.4,683.6c0-0.7-0.1-1.2-0.4-1.4c-0.2-0.1-0.2,0.1,0,0.5c0,0.2,0,0.4,0.1,0.6
		c0.1,0.2,0.1,0.4,0.1,0.6c0.1,0.6,0.2,0.8,0.3,0.7C631.6,684.5,631.5,684.2,631.4,683.6z M631.6,685.6v0.4v0.5
		C631.8,686.3,631.8,686,631.6,685.6z M632,687.4c-0.1-0.1-0.2,0-0.2,0.4s0.1,0.5,0.2,0.4V687.4z M632.7,692.8
		c-0.1-0.9-0.2-1.7-0.4-2.5c-0.1-0.6-0.2-1.1-0.2-1.3c-0.1-0.4-0.2-0.3-0.2,0.2c0,0.4,0.1,0.9,0.2,1.6c0.1,0.7,0.2,1.5,0.4,2.4
		c0.1,0.8,0.4,1.8,0.7,2.9c0.1-0.1,0.1-0.5,0-1.1C633.1,694.4,632.9,693.7,632.7,692.8z M669.3,693.5c0-0.1-0.1-0.1-0.3,0
		c-0.2,0.1-0.3,0.3-0.4,0.5l-0.2,0.5l0.4-0.5l0.4-0.4C669.1,693.6,669.2,693.5,669.3,693.5z"/>
	<path class="st1" d="M697.4,752.3c-1.7-0.5-3.3-1.1-4.7-2c-1.4-0.8-3.1-2.1-4.7-3.8c-1.8-1.7-3.4-3.5-4.5-5.2
		c-1.2-1.8-2.7-4.4-4.4-7.8c-3.3-6.6-5.4-14.6-6.5-23.9c-0.1-0.9-0.2-2.2-0.3-4c-0.1-1.7-0.1-3.5-0.1-5.2c0-1.7,0-3.6,0-5.3
		s0.1-3.2,0.2-4.3c0.2-3.6,0.5-6.9,0.9-10s1-6.8,2-11.6c0.1-0.4,0.3-1,0.5-2c0.2-0.9,0.5-2,0.8-3.3s0.6-2.5,0.9-3.6
		c0.3-1.2,0.6-2.2,0.8-3.1c0.5-1.5,1-3.3,1.5-5.2c0.5-1.8,1.1-3.7,1.7-5.3c0.6-1.7,1.2-3.3,1.7-4.7c0.5-1.4,1-2.6,1.3-3.5l0.4-0.7
		l0.4-1.1c0.1-0.2,0.2-0.5,0.4-0.7c0.1-0.2,0.2-0.4,0.2-0.5c0.9-2.1,1.7-4,2.5-5.4c0.6-1.4,1.3-2.9,2-4.4c0.5-1.1,0.9-1.9,1.2-2.7
		c0.4-0.6,0.7-1.3,1.1-2c0.4-0.6,0.8-1.4,1.2-2.2c0.5-0.8,1.1-2,2-3.5c0.4-0.7,0.9-1.7,1.8-3.2c0.8-1.4,1.7-2.8,2.8-4.1
		c2.7-3.9,5.2-7.1,7.6-9.7c2.4-2.6,4.9-5,7.7-7.4c1.7-1.3,3.1-2.2,4.1-2.9c1-0.6,2.1-1.1,3.4-1.4c2.2-0.5,4.2-0.1,5.8,1.2
		c0.7,0.7,1.4,1.2,2.1,1.6c1.2,0.7,2,2,2.6,3.8c0.1,0.2,0.2,0.6,0.4,1.1c0.1,0.5,0.3,0.8,0.5,1.1c0.4,0.5,0.6,0.9,0.6,1.2
		c0.1,0.3,0.1,1,0.1,2c0.1,0.9,0.1,1.7,0,2.2c-0.1,0.5-0.3,1.3-0.5,2.5c-0.2,1.3-0.6,2.8-1.2,4.4c-0.5,1.6-1,3-1.5,4.1
		c-0.2,0.5-0.6,1.2-1,2.2c-0.4,1-0.9,2-1.4,3.2c-0.5,1.1-1.2,2.5-2,4h-0.2c0,0.2-0.1,0.6-0.3,1s-0.3,0.5-0.4,0.3
		c-0.1,0-0.2,0.1-0.2,0.2v0.5c-0.1,0.5-0.2,0.7-0.4,0.5c-0.1-0.1-0.2,0-0.2,0.4c0,0.2,0,0.4-0.1,0.4c-0.1,0.1-0.1,0-0.1-0.3
		c-0.1-0.2-0.2-0.2-0.2,0.2s-0.1,0.5-0.2,0.4c-0.1,0.1-0.2,0.2-0.2,0.4s-0.1,0.3-0.2,0.2c-0.1-0.1-0.2,0-0.2,0.4
		c0,0.4-0.1,0.5-0.2,0.4c-0.1-0.2-0.2-0.2-0.2,0.2c0,0.2,0,0.4-0.1,0.4c-0.1,0.1-0.1,0-0.1-0.1c-0.1,0-0.2,0.1-0.2,0.4
		c0.2,0.5,0.2,0.6,0,0.4c-0.1-0.1-0.3,0-0.4,0.3c-0.2,0.3-0.3,0.6-0.3,0.8s-0.1,0.3-0.2,0.2s-0.2-0.1-0.2,0c0,0.2-0.1,0.4-0.2,0.5
		c-0.1,0-0.3,0.2-0.5,0.6c-0.2,0.4-0.4,0.7-0.4,1c0,0.2-0.1,0.3-0.2,0.2c-0.1-0.2-0.2-0.1-0.2,0.4c0,0.4-0.1,0.5-0.2,0.4
		c-0.1-0.1-0.2,0-0.4,0.4c0,0.4-0.1,0.5-0.4,0.5c0-0.1,0-0.1-0.1,0.1c-0.1,0.2-0.1,0.4-0.1,0.6c0.1,0.1,0.1,0.2-0.2,0.2
		c0-0.1,0-0.1-0.1-0.1c-0.1,0.1-0.1,0.1-0.1,0.3c-0.1,0.1-0.2,0.2-0.2,0.4c0,0.1-0.1,0.2-0.2,0.2l-0.2,0.2c0,0.1,0,0.2-0.1,0.2
		c-0.1,0-0.1,0.1-0.1,0.2l-0.2,0.4c0,0.1-0.1,0.2-0.2,0.2c-0.1,0-0.3,0.2-0.5,0.7c0,0.5-0.1,0.7-0.4,0.7c-0.2,0-0.4,0.2-0.4,0.7
		c-0.2,0.5-0.4,0.7-0.4,0.5c-0.1,0-0.4,0.4-0.7,1.1l-0.4,0.7l-0.2,0.2c-0.2,0-0.6,0.5-1.1,1.6c-0.2,0.6-0.6,1.2-1.2,2
		c-0.5,0.7-1,1.4-1.3,2c-0.8,1.2-1.5,2.1-2,2.8c-0.5,0.6-0.8,1.2-1.1,1.8c-0.2,0.2-0.6,0.7-1.1,1.4c-0.2,0.2-0.4,0.4-0.4,0.4
		c0,0.1-0.1,0.2-0.2,0.3c-0.1,0.1-0.2,0.2-0.2,0.4c0,0.1-0.2,0.4-0.5,0.7c-0.2,0.2-0.5,0.6-0.7,1.1c-0.2,0.4-0.8,1.2-1.6,2.5
		s-1.4,2-1.6,2.2c0.1,0-0.1,0.3-0.7,0.9l-0.4,0.7l-0.2,0.2l-0.7,1.1l0.2-0.1c-0.1,0.1-0.2,0.2-0.2,0.4c-0.1,0.1-0.4,0.5-1,1.2
		c-0.5,0.7-1,1.4-1.3,2c-0.2,0.2-0.4,0.5-0.6,0.7c-0.2,0.2-0.3,0.4-0.4,0.5c-0.1,0.1-0.4,0.5-0.9,1.1c-0.5,0.6-1.5,1.9-3.1,4
		c-1.2,1.5-2.5,3.1-3.8,4.6s-2.5,2.8-3.5,3.9c-0.2,0.2-0.4,0.4-0.6,0.5s-0.3,0.3-0.4,0.5c-0.2,0.2-0.4,0.4-0.4,0.5
		c0,0.2-0.2,0.5-0.5,0.9c-0.4,0.4-0.6,0.9-0.8,1.7c-0.2,0.8-0.4,2.2-0.6,4.3c-0.6,5.8-0.9,11.4-0.8,17.1c0.1,5.5,0.4,10.6,1,15
		c0.4,2,0.8,4.2,1.2,6.4c0.5,2.2,0.8,3.8,1.1,4.6c0.4,1.1,0.9,2.4,1.5,3.7c0.6,1.4,1.1,2.4,1.3,3c0.5,0.9,1.1,1.9,1.9,2.9
		c0.8,0.9,1.6,1.7,2.5,2.7c2.7,2.5,5.7,3.6,9.2,3.6c0.5-0.1,0.9-0.2,1.2-0.2c0.4,0,0.6-0.1,0.7-0.2c0.4-0.2,0.4-0.2,0.3,0
		c-0.2,0.2-0.4,0.5-0.8,0.7l-0.9,0.4l0.7,0.2h0.9c0.5-0.1,0.7-0.1,0.6,0.1c-0.1,0.2-0.4,0.4-1,0.6l-0.9,0.5l0.7-0.2h0.5l-0.4,0.4
		l-0.4,0.7l0.5-0.2c0.5-0.1,0.7-0.1,0.6,0c-0.1,0.1-0.4,0.3-1,0.5C701.1,753,699.4,753,697.4,752.3z M680,725.6
		c-0.5-1.7-0.9-3.7-1.2-6c-0.4-2.2-0.7-4.2-0.9-5.6c-0.1-0.8-0.2-1.5-0.4-2.1c-0.1-0.6-0.2-0.9-0.2-1.1c-0.1,0.1-0.2,0.2-0.4,0.2
		v0.4c0.2,0,0.4,0.3,0.4,0.9c-0.1,1.2,0,2.9,0.4,5.1c0.4,2.1,0.7,4.1,1.1,5.8c0.2,0.8,0.5,1.8,0.9,2.9c0.4,1.1,0.5,1.5,0.5,1.4
		C680.3,727.4,680.2,726.8,680,725.6z M678.4,674.3c0.5-1.9,1-4.1,1.6-6.4s1.2-4.7,1.9-7.1c0.6-2.4,1.3-4.6,2-6.8
		c0.7-2.1,1.4-4.2,2.1-6c0.9-2.6,2-5.4,3.4-8.5c1.2-3.2,2.4-5.7,3.4-7.7c0.1-0.1,0.2-0.2,0.2-0.4c0-0.1,0.1-0.2,0.2-0.4
		c0-0.1,0.1-0.2,0.2-0.4v-0.4c0.1-0.1,0.4-0.6,0.8-1.4c0.4-0.8,0.9-1.8,1.5-2.9c0.6-1.1,1.1-2,1.5-2.9c0.4-0.8,0.7-1.3,0.8-1.4
		c0-0.1,0.1-0.2,0.2-0.4l0.4-0.7l2.8-4.5c0.1-0.1,0.2-0.3,0.3-0.4c0.1-0.2,0.2-0.4,0.4-0.6l0.4-0.7V614l0.4-0.4
		c0.2-0.2,0.4-0.4,0.4-0.5c0-0.1,0.1-0.3,0.4-0.5l0.2-0.2c-0.1,0,0.1-0.4,0.7-1.2c0.6-0.8,0.9-1.4,0.9-1.6l0.4-0.4
		c0.1-0.1,0.3-0.4,0.6-0.7c0.3-0.4,0.4-0.6,0.4-0.9c0.1,0,0.2-0.1,0.2-0.2s0.1-0.2,0.2-0.4c0.4-0.4,0.9-1.1,1.6-2.1
		c0.8-1.2,1.4-1.8,1.6-1.8l-0.2-0.2c-0.1-0.2-0.1-0.4,0-0.5s0.3-0.1,0.5,0.2c0.1,0,0.1-0.1,0-0.2c0-0.1,0.1-0.2,0.2-0.4v-0.2v-0.2
		c0-0.1,0.1-0.2,0.2-0.4c0.6-0.6,1.2-1.2,1.8-1.9c0.6-0.6,0.9-1,0.9-1.2v-0.2c0.2,0,0.4-0.1,0.4-0.2c-0.1-0.1-0.2-0.2-0.4-0.2
		c-0.1,0.1-0.2,0.2-0.3,0.2s-0.2,0.1-0.3,0.2l-0.4,0.4c0.1,0.1-0.3,0.7-1.2,1.6c-0.7,0.8-1.3,1.4-1.7,1.9c-0.4,0.4-1.1,1.3-2,2.7
		c-0.7,0.9-1.2,1.6-1.6,2c-0.4,0.5-0.9,1.3-1.7,2.5c-0.8,1.1-1.6,2.5-2.6,3.8c-0.9,1.4-1.7,2.8-2.7,4.2c-0.8,1.4-1.5,2.6-2,3.4
		c-0.2,0.4-0.4,0.8-0.6,1.2c-0.2,0.5-0.3,0.8-0.4,1.1c-0.9,1.5-2.1,3.8-3.5,6.6s-2.5,5.3-3.5,7.4c-0.5,1.2-0.8,1.9-0.9,2.1
		c-0.4,0.9-0.8,2.2-1.4,3.8c-0.6,1.5-1.2,3.3-1.8,5s-1.2,3.5-1.7,5.1c-0.5,1.6-1,3-1.3,4.1c-0.5,1.5-0.9,3.3-1.4,5
		c-0.5,1.7-0.9,3.5-1.2,5.2c-0.4,1.7-0.7,3.3-1,4.8s-0.5,2.8-0.6,3.7c-0.2,0.8-0.3,1.1-0.1,0.9C677.9,676.1,678.1,675.4,678.4,674.3
		z M687.6,679c0.9-1.2,1.9-2.5,3-3.7c1-1.2,1.6-2,1.9-2.2c0.2-0.5,0.6-0.9,1.1-1.4c0.1-0.1,0.2-0.2,0.2-0.3s0.1-0.1,0.2-0.3
		c0-0.1,0.1-0.2,0.2-0.4c-0.1,0-0.2,0.1-0.4,0.2c-0.1,0.1-0.2,0.1-0.2,0c-0.1,0-0.2,0.1-0.2,0.2l-0.4,0.7c-0.5,0.5-0.7,0.8-0.7,0.9
		c0,0.1-0.1,0.2-0.2,0.4l-0.7,0.7c-0.4,0.4-0.8,0.9-1.2,1.6c-0.2,0.2-0.4,0.4-0.5,0.6c-0.1,0.2-0.3,0.3-0.5,0.4l-0.4,0.7l-0.2,0.2
		c-0.1-0.1-0.5,0.3-1.2,1.2c-0.2,0.4-0.6,0.7-1,1.2c-0.4,0.4-0.7,0.7-1,1c-0.2,0.2-0.4,0.5-0.6,0.7c-0.2,0.2-0.3,0.5-0.3,0.7
		C684.3,682.7,685.4,681.6,687.6,679z M689.9,669.4c1.5-2.1,3-4.1,4.2-5.8c1.2-1.7,2.4-3.4,3.5-5c1.1-1.6,2.2-3.3,3.4-5
		s2.4-3.6,3.7-5.8c3.5-5.7,6.4-10.5,8.7-14.5c2.2-4,4.5-7.9,6.5-11.8c2.2-4.6,4-8.5,5.2-11.6c1.1-3.2,2-6.4,2.8-10
		c0.5-1.7,0.7-2.8,0.6-3.1c-0.1-0.4-0.4-0.4-1-0.2c-0.4,0.2-1,0.7-2,1.5c-0.9,0.8-2,1.6-3.2,2.7c-1.1,0.9-2.2,2-3.3,3.1
		c-1,1.1-1.8,2-2.5,2.8c-0.4,0.4-0.8,0.9-1.4,1.8c-0.6,0.8-1.2,1.7-1.9,2.7c-0.7,0.9-1.2,1.7-1.8,2.6c-0.5,0.8-0.9,1.3-1.2,1.7
		c-0.5,0.7-0.8,1.1-0.9,1.1v0.2c0,0.1-0.1,0.2-0.2,0.4c-0.2,0.2-0.4,0.5-0.5,0.7c-0.1,0.2-0.3,0.5-0.4,0.7c-0.2,0.2-0.4,0.6-0.6,1.1
		c-0.4,0.4-0.5,0.7-0.5,0.9c0,0.1-0.1,0.2-0.2,0.4c-0.1,0-0.2,0.1-0.4,0.4c-0.1,0.3-0.3,0.6-0.5,0.8s-0.4,0.5-0.5,0.9
		c-0.1,0.4-0.3,0.7-0.5,0.9c-0.5,0.7-0.7,1.2-0.7,1.4c0,0.1-0.1,0.2-0.2,0.4c-0.1,0.1-0.3,0.4-0.5,0.9c-0.5,0.7-0.7,1.1-0.7,1.2
		s-0.1,0.3-0.4,0.5c-0.1,0.1-0.3,0.4-0.4,0.7c-0.1,0.3-0.2,0.6-0.1,0.7l-0.2,0.2c-0.1,0-0.4,0.5-1,1.4c-0.5,0.9-0.7,1.5-0.6,1.6
		c-0.1,0-0.2,0.1-0.2,0.2l-0.2,0.4c-0.2,0.2-0.3,0.4-0.2,0.4v0.2c0,0.1,0,0.2-0.1,0.2s-0.1,0.1-0.1,0.2c-0.2,0.2-0.4,0.4-0.4,0.5
		c0,0.2-0.1,0.5-0.4,0.7l-0.2,0.4c0.1,0,0,0.2-0.4,0.5c-0.2,0.4-0.2,0.5,0,0.5c0.1-0.1,0.1-0.1,0,0.2c-0.2,0.2-0.5,0.6-0.7,1.1
		c-0.2,0.5-0.3,0.7-0.2,0.7l-0.2,0.2l-0.2,0.4c0.1,0,0.1,0.1,0,0.2c-0.1,0.1-0.3,0.4-0.5,0.9c-0.2,0.5-0.3,0.7-0.2,0.7
		c0,0.1-0.1,0.2-0.2,0.4c-0.2,0.2-0.3,0.4-0.2,0.5c0,0.1-0.1,0.2-0.2,0.2s-0.2,0.2-0.2,0.5c-0.1,0.1-0.2,0.2-0.2,0.4
		c0,0.1-0.1,0.2-0.2,0.4l-0.2,0.4v0.2c-0.1,0.1-0.2,0.3-0.2,0.5c0,0.1-0.1,0.2-0.2,0.4c-0.2,0-0.4,0.2-0.4,0.5
		c0,0.2-0.1,0.4-0.2,0.4c-0.1,0.1-0.2,0.3-0.2,0.5v0.4c-0.1,0-0.2,0.1-0.2,0.4c0.1,0,0.1,0.1-0.2,0.4c-0.1,0.1-0.2,0.3-0.2,0.5
		c0,0.2-0.1,0.4-0.2,0.4c-0.4,0-0.4,0.1-0.2,0.4c0.4,0,0.3,0.1-0.2,0.4c-0.2,0.2-0.3,0.4-0.2,0.5c0.4,0,0.3,0.1-0.2,0.4
		c-0.5,0.2-0.5,0.4-0.2,0.4c0.1,0,0.1,0.1,0,0.2c-0.2,0.2-0.4,0.5-0.4,0.7c0,0.1-0.1,0.3-0.4,0.5c-0.1,0-0.2,0-0.2,0.1
		s0.1,0.1,0.4,0.1c0.1,0,0.1,0.1,0,0.2c-0.1,0.1-0.2,0.3-0.2,0.5c0.1,0.1,0.1,0.2-0.2,0.2c-0.1,0.1-0.1,0.2,0,0.4
		c-0.1,0-0.2,0.1-0.2,0.2l-0.2,0.4c-0.2,0.2-0.2,0.4,0,0.4c0.1-0.1,0.2-0.1,0.2,0s-0.1,0.2-0.2,0.2c-0.1,0-0.2,0.1-0.2,0.4v0.4
		l-0.4,0.4c0,1.2-0.2,1.8-0.5,1.8c-0.2,0-0.3,0.1-0.2,0.2c0.2,0.1,0.3,0.2,0.2,0.4c-0.1,0-0.2,0.1-0.2,0.4c0,0.1-0.1,0.2-0.2,0.4
		c-0.2,0.2-0.2,0.4,0,0.4c0,0.1-0.1,0.2-0.2,0.4c-0.2,0-0.4,0-0.4,0.1s0.1,0.1,0.2,0.1c0.2,0,0.2,0.1,0,0.4l-0.2,0.4
		c0,0.2-0.1,0.7-0.3,1.2c-0.2,0.6-0.4,0.9-0.6,1.1v0.2c0.2-0.1,0.4-0.1,0.4-0.1c0,0.1-0.1,0.4-0.4,1c-0.1,0.2-0.2,0.5-0.4,0.7
		c-0.1,0.2-0.2,0.4-0.2,0.5c-0.1,0-0.2,0-0.2,0.1s0.1,0.1,0.2,0.1c0.1,0,0,0.6-0.4,1.7c-0.4,1.1-0.7,1.8-0.9,2
		c-0.1,0.1-0.1,0.2,0,0.2c0.1-0.1,0.2-0.1,0.2,0.2c0,0.2-0.1,0.4-0.2,0.4c0,0.5-0.2,1.3-0.5,2.6c-0.1,0.6-0.2,1.1-0.4,1.6
		c-0.1,0.5-0.2,0.8-0.2,0.9C684.6,676.4,686.3,674.4,689.9,669.4z M685.6,678.5c0.2-0.2,0.9-1,1.9-2.2s2.1-2.8,3.5-4.4
		c1.2-1.6,2.6-3.3,3.8-5s2.4-3.2,3.2-4.4c0.4-0.6,1.1-1.7,2.1-3.3c1.1-1.5,2.2-3.3,3.5-5.1s2.4-3.6,3.5-5.2c1.1-1.7,1.9-3,2.6-3.8
		c2-3.2,3.7-5.7,5-7.9c1.2-2.1,1.9-3.3,1.9-3.6c0-0.1,0.1-0.2,0.2-0.2l0.2-0.2c0.1-0.1,0.2-0.2,0.2-0.4c0.2-0.5,0.4-0.8,0.5-0.9
		c0.2-0.2,0.5-0.7,0.9-1.5c0.4-0.8,0.7-1.4,1.1-2c0.4-0.6,0.6-1.2,0.9-1.8c0.2-0.5,0.6-1.2,1.2-2.4c0.6-1.1,1.2-2.2,1.8-3.6
		c0.6-1.2,1.2-2.5,1.7-3.6c0.5-1.1,0.9-2,1.2-2.7c0.6-1.3,1.2-2.9,1.8-4.5c0.6-1.7,1-3.1,1.2-4c0.1-0.5,0.2-1,0.4-1.5
		c0.1-0.5,0.2-1.1,0.4-1.7c0.1-0.6,0.2-1.2,0.4-2c-0.1-0.1-0.2,0.1-0.4,0.7c-0.1,0.6-0.4,1.7-0.9,3.4c-0.5,1.6-0.9,3.1-1.4,4.4
		c-1.7,4.5-4.2,9.7-7.5,15.6s-7.5,13-12.7,21c-0.1,0.2-0.4,0.7-0.8,1.4c-0.4,0.7-0.9,1.4-1.3,2c-0.8,1.4-1.4,2.2-1.6,2.6
		c-0.1,0.2-0.7,1.2-1.8,2.8s-2,3.1-2.9,4.3c-1.3,1.8-2.9,4-4.7,6.5c-1.8,2.6-3.7,5-5.6,7.5c-1.4,1.9-2.5,3.4-3.1,4.3
		s-0.9,1.4-0.9,1.7C684.9,679.3,685.1,679.2,685.6,678.5z M695.5,668.7c0-0.1-0.1-0.1-0.2,0.2c-0.1,0.2-0.4,0.5-0.7,0.9
		c-0.2,0.2-0.4,0.4-0.4,0.5s0.2-0.1,0.7-0.5C695.4,669.4,695.5,669.1,695.5,668.7z M696.4,668c0.2-0.5,0.4-0.8,0.5-0.9
		s0.1-0.2-0.2-0.2c-0.1,0.1-0.2,0.2-0.2,0.4l-0.2,0.4c-0.2,0-0.4,0.1-0.4,0.4C695.6,668.7,695.7,668.7,696.4,668z M701.8,749.9
		c-0.2-0.1-0.4-0.1-0.5,0h0.2H701.8z M713.1,598.4c0.1-0.1,0.2-0.2,0.2-0.4c0.2-0.1,0.4-0.1,0.4,0.2c-0.1,0.1-0.2,0.2-0.4,0.2H713.1
		z M714.7,597.5C714.9,597.5,714.9,597.5,714.7,597.5c0-0.1-0.1-0.2-0.2-0.2l-0.2,0.2l0.2,0.2C714.7,597.7,714.7,597.6,714.7,597.5z
		"/>
</g>
<g>
	<path class="st1" d="M746.7,532.1v4.3h-6v18h-5.4v-18h-6v-4.3H746.7z"/>
	<path class="st1" d="M774,532.3v22.1h-5.4v-13.8l-4.8,13.8h-4.7l-4.8-13.9v13.9H749v-22.1h6.6l6,15.4l5.9-15.4H774z"/>
</g>
<g>
</g>
<g>
</g>
<g>
</g>
<g>
</g>
<g>
</g>
<g>
</g>
</svg>
