<svg xmlns="http://www.w3.org/2000/svg" viewBox="0 0 1534.06 496.33">
  <defs>
    <style>
      .a {
        fill: #fff;
      }

      .b {
        fill: #c5b358;
      }
    </style>
  </defs>
  <title>logotype</title>
  <g>
    <path class="a" d="M163.49,492.6c-.47-2.11-.94-3.74-1.17-4.67s-.47-2.34-.94-4c-.23-2.1-.46-3.5-.93-3.74-.23-.23-.23.7,0,2.81a17.56,17.56,0,0,1,.47,2.8v2.1l.93,2.56V491l-.47.94c-.23.23-.7,0-1.16-.94-.24-.23-.47-.47-.47-.7s-.23-.23-.47-.7l-.46-.47c-.94.24-1.64-1.4-2.8-4.9a115.54,115.54,0,0,1-2.34-12.84c-.23-1.63-.47-4.43-.7-8.4s-.23-8.17-.23-12.84,0-9.1.23-13.77.23-8.17.7-11c.47-6.3,1.17-14.7,1.87-24.74.7-10.27,1.4-20.08,2.33-29.41.24-4.2.7-8.17.94-11.91.46-3.73.93-7.7,1.16-12.13.47-4.44.94-9.58,1.17-15.41.47-5.84.93-12.84,1.87-21a92.67,92.67,0,0,1,.93-10.5c.24-2.57.47-4.67.47-5.84v-2.57c0-.46-.23-.7-.47-.7-.46-.46-.93-.7-1.4-.46s-2.8,1.63-7.23,4.2a18.67,18.67,0,0,0-3.74,1.87,15.56,15.56,0,0,1-2.57,1.4,8.16,8.16,0,0,1-2.1,1.4c-.93.46-1.63.93-2.57,1.4-.46.46-.93.93-1.4.93-.46.24-.7.24-.93.7l-.93.47c-.47,0-.94.23-.94.47a.49.49,0,0,1-.46.46c-.47,0-.94.24-.94.47s-.23.47-.93.47l-.47.46-.46.47c-.24,0-.47.23-.94.47-.23.23-.7.46-1.17.93a3.17,3.17,0,0,1-2.1,1.17,1.2,1.2,0,0,1-.93.46c-.23.24-.47.47-.7.47s-.23.23-.7.47-.93.47-.93.93c-.24.24-.24.47-.7.47a9.44,9.44,0,0,0-2.57,1.4c-1.4.93-2.1,1.63-2.57,1.87a.5.5,0,0,1-.47.46,3,3,0,0,0-1.63.94c-.93.46-1.63.93-2.1,1.16a3.31,3.31,0,0,0-.7.94c-.23.23-.47.46-.93.93l-1.64.94A4.73,4.73,0,0,0,114,321a7,7,0,0,0-1.63,1.17l-.47.47a3.59,3.59,0,0,0-2.8,1.63,15.63,15.63,0,0,1-3.27,2.57c-.23.23-1.17.93-2.8,2.1a6.3,6.3,0,0,1-1.4,1.17c-.47.23-.7.46-.7.93a24,24,0,0,0-4,2.8c-1.17.93-2.57,2.1-4,3l-3.27,2.57a4.22,4.22,0,0,0-1.63,1.17,9.07,9.07,0,0,1-1.4,1.17,12.93,12.93,0,0,0-1.87,1.63c-6.07,4.9-11.2,9.34-15.64,13.07-4.2,3.74-9.1,8.17-14.7,13.54-2.1,2.1-4,4-5.37,5.6a19.14,19.14,0,0,0-3.27,4.67,20.12,20.12,0,0,0-2.1,6.3c-.47,2.57-1.17,5.84-2.1,10.27-.47,3-.93,5.61-1.4,7.47s-.7,3.27-.93,3.74c0,.23-.24,1.4-.47,3-.23,1.87-.7,4-1.17,6.54-1.4,6.3-2.57,12.37-3.5,17.74-.93,5.6-1.87,11-2.8,16.57-.23,1.17-.93,1.63-1.63,1.63-.94,0-1.4-.23-1.64-.93a1.17,1.17,0,0,0-1.63-.93,2.16,2.16,0,0,1-2.1-1.64c-.24-1.16-.7-1.63-1.17-1.63-1.4,0-2.33-3.27-2.8-10a116.35,116.35,0,0,1,.47-21.94c.46-4.2.93-6.3.93-6.77s-.23-.7-.93-.7c-.24,0-1.17.94-2.57,2.8s-2.8,3.74-4.67,6.07c-1.87,3-3.5,4.67-4.67,4.67a1.55,1.55,0,0,1-1.63-1.17c-.47-.46-.94-.93-1.17-.93H5.23c0-.23-.24-.47-.94-.47-.23,0-.46-.7-.46-2.1s-.24-2.1-.94-2.1a.85.85,0,0,0-.93.93c.23.47.23.7-.23.47A5.84,5.84,0,0,1,.33,416a12.59,12.59,0,0,1,.23-6.53,84.26,84.26,0,0,1,5.6-13.07,127.29,127.29,0,0,1,7.47-13.31,128.27,128.27,0,0,1,8.64-12.37,18,18,0,0,0,2.8-4.43c.93-1.4,1.4-2.57,2.1-3,.47-.47.93-1.87,1.4-4s.93-4.2,1.4-6.3c.93-4.2,1.63-7.94,2.57-11.67.93-3.5,1.86-7.47,2.8-11.44,1.17-4,2.33-8.4,3.73-13.07s3-10.27,4.9-16.57c1.17-3.5,2.11-6.54,2.81-8.87s1.4-4.67,2.33-7.24,1.63-5.37,2.8-8.63c.93-3.27,2.34-7.47,4-12.38,2.1-6.53,5.13-14.93,8.4-24.74,3.5-10,7-19.84,10.27-29.88,3.5-10,6.54-18.9,9.57-26.84,2.8-7.93,4.9-13.3,6.07-15.64a15.23,15.23,0,0,0,1.4-3.5,53.64,53.64,0,0,1,2.8-6.77,76,76,0,0,0,2.8-7.47,18.7,18.7,0,0,1,1.87-4.2,43.4,43.4,0,0,0,1.87-4.9c.93-2.8,2.1-5.6,3-8.64,2.1-5.13,4-9.33,5.14-12.37s2.33-5.83,3.5-8.17a4,4,0,0,0,1.17-2.57.49.49,0,0,0,.46-.46,4.43,4.43,0,0,1,.47-1.64,29.16,29.16,0,0,0,1.17-3,18.6,18.6,0,0,1,2.1-4.44c.47-1.63,1.17-3.26,1.63-4.66a7.36,7.36,0,0,1,1.64-2.81c.23-.46.7-1.63,1.4-3.26s1.4-3.5,2.33-5.84c4.67-10.5,9.34-19.84,13.77-28.48,4.44-8.4,8.87-16.57,13.77-24.74a155,155,0,0,1,11.91-17.5,45.52,45.52,0,0,1,9.8-9.34,6.9,6.9,0,0,1,4.9-1.17,11,11,0,0,1,8.64,4.2A33.39,33.39,0,0,0,192,7.55c4.44,1.87,7.71,5.84,9.57,11.91.24.93.7,1.86.94,3,.46,1.17.93,2.57,1.4,4,.46,1.16,1.16,2.33,1.63,3.73a19.33,19.33,0,0,0,1.17,2.8c1.87,6.31,2.8,17.51,2.57,33.62s-1.64,34.78-3.74,56.25c-.23,1.87-.47,3.73-.7,5.6s-.23,3-.7,4v2.1a4.59,4.59,0,0,1-.47,2.1,8.12,8.12,0,0,1-.23,2.1,8.2,8.2,0,0,0-.23,2.1,25.8,25.8,0,0,1-.94,5.84,21.71,21.71,0,0,1-.23,4,13.55,13.55,0,0,0-.23,2.8,9.89,9.89,0,0,0-.47,2.33v1.87a12.34,12.34,0,0,0-.47,4.2,22.76,22.76,0,0,0-.93,6.3,16,16,0,0,0-.47,3.27A7.06,7.06,0,0,1,199,174c-.46,3.27-.93,6.53-1.16,9.8s-.47,5.37-.47,6.3c-.23,1.87-.47,4.21-.93,7-.24,2.8-.7,5.83-1.17,9.1a5.89,5.89,0,0,1-.23,1.87,5.66,5.66,0,0,0-.24,1.87c-.93,7.93-1.16,12.13-1.16,12.37-.24.93-.47,2.1-.7,3.5-.24,1.63-.47,3-.7,4.67a19.73,19.73,0,0,1-.24,4.2c-.23.93-.23,2.57-.7,5.37a17.34,17.34,0,0,0-.46,2.8v1.63a1.19,1.19,0,0,0-.47.93V247a7.8,7.8,0,0,1-.24,2.1,8.12,8.12,0,0,0-.23,2.1,16,16,0,0,0-.47,4.2c-.23,1.4,0,2.1.94,2.57.93.23,2.8.23,6.3,0,2.1-.23,4-.47,5.14-.47a27.29,27.29,0,0,1,6.06.94,24,24,0,0,1,10.74,4.66c2.1,1.41,3.5,2.57,3.74,3.74l.7,1.4c.23.47.23.93.7,1.4s.7.93.23,1.4-.93.23-1.4-.23-1.87-.94-4-.94a14.11,14.11,0,0,0-5.6.94,65.78,65.78,0,0,0-8.64,1.86,63.94,63.94,0,0,0-10,3.51c-3.27,1.16-5.37,2.1-6.31,3.26-.46.47-.93.94-.93,1.4-.23.47-.23,1.17-.7,2.34-.23,1.17-.47,2.8-.93,4.9-.24,2.1-.7,5.37-1.17,9.57a30,30,0,0,1-.23,3.74q-.36,2.79-.7,6.3a57.07,57.07,0,0,0-1.17,7.93,68.27,68.27,0,0,1-.93,7.94,47.93,47.93,0,0,1-.94,6.07c-.23,1.87-.47,3-.47,3.5a5.89,5.89,0,0,1-.23,1.87,5.86,5.86,0,0,0-.23,1.86,5.66,5.66,0,0,1-.24,1.87,5.89,5.89,0,0,0-.23,1.87c0,.47-.23,2.1-.7,4.9s-.7,5.84-.93,9.1-.7,6.31-.94,9.11c-.46,2.8-.7,4.43-.7,4.9s-.23,1.87-.46,4.2c-.24,2.1-.7,4.67-.94,7.24-.46,2.57-.7,5.13-.93,7.47s-.47,4-.47,4.67a16.19,16.19,0,0,1-.23,2.8,17.86,17.86,0,0,0-.23,3.5c-.24.93-.47,2.1-.71,3.5-.23,1.63-.46,2.8-.7,4a15.7,15.7,0,0,1-.23,3.5,8.84,8.84,0,0,0-.23,2.33,13.87,13.87,0,0,0-.7,3.5c-.24,1.87-.47,3.74-.7,6.07a44.28,44.28,0,0,1-.94,6.54c-.23,1.87-.46,3-.46,3.5a5.66,5.66,0,0,1-.24,1.87,7.28,7.28,0,0,0-.23,2.33,10.5,10.5,0,0,0-.47,2.34v1.86a13.74,13.74,0,0,1-.23,2.34,28,28,0,0,1-.7,4,26.09,26.09,0,0,0-.47,4.2,6.8,6.8,0,0,1-.46,2.8c-.47,6.3-.94,11.67-1.17,16.1s-.47,9.34-.47,14.48c-.23,4.66-.47,7.93-.47,9.8s-.23,2.57-.46,2.33a1.8,1.8,0,0,0-1.17.47C164,494.7,163.72,494.23,163.49,492.6ZM7.56,410.9A13.89,13.89,0,0,1,8.49,409a5.31,5.31,0,0,1,1.17-1.87c1.4-2.8,2.57-4.9,3.5-6.53a10.74,10.74,0,0,1,2.34-3.27l.93-1.63c0-.24.47-.94,1.64-2.1.93-1.4,1.16-2.11.93-2.11v-.46c.47,0,1.17-.47,1.63-1.64,1.4-1.4,1.87-2.1,1.64-2.1a14.15,14.15,0,0,0,2.33-4.2c.93-2.1,1.17-3.27.7-3.27-.23,0-.93.7-1.87,2.1s-2.1,3.27-3.73,5.37-3,4.67-4.67,7.24-3,5.13-4.43,7.24C6.39,409,5,412.53,5.93,412.53,6.63,412.53,7.09,412.07,7.56,410.9Zm34.08-66.29c4.44-15.41,9.8-32.91,16.11-52.29s13.07-38.75,20.3-57.89q1.41-4.2,2.8-8.4c1.17-2.8,1.87-5.13,2.57-6.3,1.4-4.44,3.5-10.51,6.54-18.21,2.8-7.7,5.83-15.64,8.87-23.34,3-7.94,5.83-14.94,8.17-21,2.33-6.3,3.73-9.8,4.43-11l.94-1.63c0-.47.93-3,2.8-7.47,1.4-3.27,2.33-5.6,2.8-6.77a29.3,29.3,0,0,1,2.33-4.67l.94-2.57c1.4-3.26,2.56-6.07,3.26-8.17a52.27,52.27,0,0,1,2.81-6.3c.93-2.1,1.63-3.73,2.33-5.13a8.18,8.18,0,0,0,1.63-3.27c.47-.94.94-1.87,1.4-2.8.47-1.17.94-2.1,1.4-3.27l1.4-2.8c.47-1.17.71-1.87.94-2.57,1.17-2.1,2.57-5.37,4.67-9.34,1.86-4,4-8.17,6.07-12.37s4-8.17,5.83-11.9c1.87-3.5,3-6.3,4-7.94a3,3,0,0,0,.93-1.63c.24-.47.24-1.17.7-1.64a2.36,2.36,0,0,1,.94-1.16c0-.24.23-.47.46-.94a3,3,0,0,0,.7-.93c.24-.23.47-.7.94-1.17,1.16-1.87,2.33-4.2,3.73-6.53a29,29,0,0,0,2.1-4.2l1.17-1.17c.47-.47.93-.94.93-1.17s.24-.47.47-.93a7.48,7.48,0,0,0,1.17-2.1c1.16-1.64,1.4-2.57,1.16-2.57s.94-1.64,3.27-4.9a8.92,8.92,0,0,0,1.64-2.57c.23-.47.23-.47-.47,0h-1.17c0,.93-.7,1.87-2.1,3.27a17.28,17.28,0,0,0-2.1,2.33,8.52,8.52,0,0,1-1.17,1.4,14.85,14.85,0,0,1-1.4,2.34c-.7.93-1.4,2.1-2.33,3.5-4,5.83-8.4,13.54-13.77,23.11S142.48,68.94,138,78.51c-1.16,2.57-2.33,5.37-4,8.64s-3,6.53-4.43,9.57-3,6.77-4.9,11.2a14.8,14.8,0,0,1-1.64,3.74c-.46,1.16-1.16,2.56-2.1,4.66-.93,1.87-1.63,4-2.56,5.84a31.66,31.66,0,0,1-1.87,5.6c-.7,1.64-1.17,2.57-1.4,3-.94,1.4-2.1,4.43-3.74,8.87-1.63,4.66-3.73,9.8-6.07,15.63s-4.66,12.14-7.23,18.91c-2.57,6.54-4.9,12.84-7,18.44s-4,10.74-5.61,14.94-2.33,6.77-2.8,7.7a5.66,5.66,0,0,1-.93,2.57,28.23,28.23,0,0,0-1.17,3c-.47,1.63-1.17,3.26-2.1,5.6A47.65,47.65,0,0,1,76,234a72.5,72.5,0,0,0-2.56,7.47c-.94,1.86-2.11,5.6-4,11s-3.74,10.73-5.6,16.34c-7,20.54-12.38,37.34-16.34,50.42-4,13.3-6.54,22.87-7.71,28.94-.46,1.63-.46,2.1.24,1.4C40.47,348.34,40.94,346.94,41.64,344.61ZM69.88,336c1.17-1.17,3-2.8,5.84-5.13s5.6-4.67,8.64-7.24,5.83-4.9,8.63-7.24,4.9-4,6.54-5.13c2.1-1.64,4.43-3.27,6.3-4.67,2.1-1.4,3.5-2.57,4.44-3a17.77,17.77,0,0,0,2.1-1.4,2.12,2.12,0,0,1,1.16-.71,4.09,4.09,0,0,0,1.64-1.16,5.13,5.13,0,0,0,1.4-.94,4.86,4.86,0,0,0,1.4-.93c2.57-1.4,3.73-2.57,3.73-3.27a3.66,3.66,0,0,1-2.8,1.17v.47c.24,0,.24,0,.24.23a.88.88,0,0,1-.7.23.86.86,0,0,0-.94.94c0,.23-.23.46-.93.46,0-.23-.24-.23-.94.47a.85.85,0,0,1-.93.93,2.23,2.23,0,0,0-1.63.47c0,.47-.47.94-1.64.94a.85.85,0,0,0-.93.93c0,.23-.47.47-1.17.47-.93.23-.93.46-.46.93.23,0,.23,0,.23.23-.23.24-.47,0-.94-.23a3.18,3.18,0,0,0-2.56.93.5.5,0,0,1,.46.47c0,.47-.23.7-.93.47a6.19,6.19,0,0,0-3.27,1.16,7.43,7.43,0,0,0-1.63,1.17l-.47.47c.24,0,.47,0,.47.23s-.23.23-.47.23a7.85,7.85,0,0,0-3.27,1.64c-1.63,1.17-3.26,2.1-4.66,3.27a57.27,57.27,0,0,1-4.91,4.2c-5.6,4.43-10.73,8.63-15.4,12.84s-8.17,7.23-10.74,9.57c-1.63,1.63-2.8,2.8-3,3.5a7.91,7.91,0,0,0-.94,2.8l-.93,2.8,6.3-5.84c1.64-1.63,3.27-3,4.67-4.43C68.72,337.14,69.42,336.2,69.88,336Zm-2.1-12.37c4.67-4.2,8.87-7.7,12.61-11s7-5.84,10-8.17,6.07-4.67,9.11-6.54c3-2.1,6.3-4.2,10-6.53,3.5-1.87,5.36-3.27,5.36-3.74.24,0,.47,0,.47-.23s.23-.23.47-.23l.93-.47c.23-.23.7-.47.93-.7a5,5,0,0,0,1.41-.93,180.52,180.52,0,0,1,18.2-10,180.38,180.38,0,0,1,19.84-8.4c2.1-.94,4.2-1.64,6.07-2.57s3-1.4,3.5-1.64a2.84,2.84,0,0,0,.94-1.86,81.35,81.35,0,0,0,.93-8.17c.23-2.57.7-6.54,1.17-12.14s1.16-11.91,2.1-18.91,1.63-14,2.57-21.47,1.63-14.47,2.56-21,1.4-12.37,2.1-17.27c.47-4.9.94-9.11,1.4-13.07s.7-7.47.94-10.74.7-7,1.17-10.74c.46-6.53.93-11.2,1.16-13.54a60,60,0,0,1,.94-6.77,17.94,17.94,0,0,1,.23-3.26,25.85,25.85,0,0,0,.23-4.21c.24-1.63.47-4,.94-6.53.23-2.8.46-5.84.7-8.87.23-3.27.23-6.3.7-9.34.23-3,.46-5.6.46-7.93,0-2.57,0-5.37.24-8.87s.23-7,.23-10.27V33.93c-.47-1.64-2.33-.7-5.37,2.8a47.47,47.47,0,0,0-4.2,6.3,5.9,5.9,0,0,1-.93,2.1,29.63,29.63,0,0,1-2.34,3.5c-.93,1.17-1.63,2.34-2.33,3.27s-1.17,1.63-1.4,1.87-.47.46-.47.7.23,0,.47-.24c.23,0,.23.24-.47.94-.23.46-.47.93-.93.93-.24.23-.47.23-.47.7a1.75,1.75,0,0,1-.47,1.17c-.93,0-.93.23-.46.93a.51.51,0,0,0-.47.47l-.47.93-.93.94v.46l-.47.94a17.08,17.08,0,0,0-2.33,3.26c-.93,1.64-1.17,2.34-.7,2.11l-.47.46a13.18,13.18,0,0,0-1.4,1.87,12.45,12.45,0,0,0-1.4,3,13.89,13.89,0,0,1-.93,1.87,4.78,4.78,0,0,1-.94,1.87,47.26,47.26,0,0,0-2.33,4.2c-.93,1.87-2.1,4.2-3.27,6.54-1.17,2.56-2.33,4.9-3.5,7.23s-1.87,4.2-2.57,5.6a14.52,14.52,0,0,0-1.16,2.81,6.62,6.62,0,0,1-1.17,2.56c-.47,1.17-.94,1.87-.94,2.1a1.24,1.24,0,0,0-.46.94,6,6,0,0,1-.94,2.1,8.66,8.66,0,0,0-2.1,4.67,13.27,13.27,0,0,1-.93,1.86,4.77,4.77,0,0,1-.93,1.87,4.24,4.24,0,0,0-.47,1.64.5.5,0,0,1-.47.46,1.56,1.56,0,0,1-1.16,1.64,1.74,1.74,0,0,0-.47,1.16c0,.24-.23.47-.47.94a2.19,2.19,0,0,1-.47,1.63c-.46,1.17-.93,1.87-.93,2.1a4.78,4.78,0,0,1-1.17,2.1c-1.16,1.17-1.16,1.64-.46,1.64a1.79,1.79,0,0,1-.47,1.16c-.47.47-.93.94-.93,1.17a.51.51,0,0,1-.47.47c-.23,0-.23.23,0,.46a2,2,0,0,1-.93,1.64l-.47.93v.47c.23,0,.23.47-.47,1.63-.46,1.17-.93,1.87-.93,2.1a4.16,4.16,0,0,1-1.17,1.64c-.47.93-.7,1.4-.47,1.63s.24.47,0,.93a3,3,0,0,0-.93,1.64c0,.47,0,.93-.23.93-.24.24-.24.24-.24.7-.46.47-.93.94-.93,1.17a5.28,5.28,0,0,1-.7,2.1c-.47.93-.93,1.63-1.4,2.57-.47,1.17-.7,1.63-.47,1.63,0,.47-.46.94-1.16,1.17-.47.93-.7,1.17-.47,1.17.23-.24.47-.24.47,0,0,.93-.24,1.16-.47,1.16-.47.24-.7.47-.47.94a1.22,1.22,0,0,1-.46,1.63c-1.17.47-1.17.93-.47.93.47,0,.47.47-.47,1.17l-1.63.94c-.24,0-.24.23,0,.46s.46.24.93,0,.7-.23.47.24a6.25,6.25,0,0,1-1.17,1.4l-.93.93c1.63-.47,1.87-.23.46,1.17-.46,0-.93,0-.93.23s.23.23.47.23a1.24,1.24,0,0,1-.47,1.64c-.93.93-.93,1.16-.47,1.16.94,0,.7.24-.46.94l-.94,1.63c.24,0,.24.24.24.47l-.94.93c-.46.47-.46.7,0,.47s.7-.23.7.23a4.61,4.61,0,0,1-.93,1.4l-.47.47h.94c0,.47-.24.93-.47.93a1.07,1.07,0,0,0-.93,1.17,2,2,0,0,1-.94,1.64l-.93.46c.47-.23.93-.23.93,0,.24.24,0,.7-.7,1.17-.23.47-.23.93,0,.93.94,0,.7.24-.46.94-.47.46-.7.93-.47.93a2,2,0,0,1-.93,1.63c-.47.47-.71.94-.47.94.47,0,.47.23,0,.93l-.94.93h-.46c-.24,0-.47.24-.94.47h.94c.46,0,.46.24,0,.94-.24.46-.24.93,0,.93l-.47,1.17-.93.93c0,.23.23,0,.46-.23a.73.73,0,0,1,.47-.24c0,.24-.23.24-.47.7-.46.47-.7.94-.46,1.17a.5.5,0,0,0-.47.47l-.47.93-.46.93c.23,0,.23.24,0,.94-.47.46-.7.93-.47,1.17v.46l-.93.94c-.24.23-.47.46-.47.7s.23,0,.47-.24c.23,0,.23.24-.47.94-.47.46-.47.93,0,.93s.47.47-.47,1.17l-.46.93c.23,0,.23.23-.47.93-.47.47-.7.94-.47.94.47,0,.47.23,0,.93-.46.47-.7.94-.46,1.17a.51.51,0,0,1-.47.47,2.92,2.92,0,0,0-.94,1.63c.24,1.17,0,1.63-.93,1.63-.23.24-.23.47,0,.94.23.23.23.46-.47.93l-.46.93c0,.47-.24.94-.47.94a1.21,1.21,0,0,0-.47.93c0,.24.24.24.94,0,0,.24-.24.47-.47.94a1.21,1.21,0,0,0-.47.93.5.5,0,0,1-.46.47A4.24,4.24,0,0,1,92.76,227l-.47.47c.94,0,.94.23.47.93l-.93.47v.47c.46,0,.7.23.46.46l-.46.94c-.47,1.63-.94,2.57-1.17,2.57s-.23.23,0,.46c.47.47.47.94-.47,1.17-.46.23-.7.47-.46.47.46,0,.46.23,0,.93l-.47.93c.23,0,.23.24,0,.47l-.47.93c.24,0,.24.24-.47.94l4.21-4.67v.93a2.71,2.71,0,0,0-.47,1.64c0,.93-.23,1.17-.93,1.17l-.47.46c.47,0,.47.24,0,.94a4.43,4.43,0,0,1-.47,1.63c0,.23-.23.7-.93,1.17-.47.46-.47.93,0,.93h.46l-.93.47v.46c0,.47-.23.94-.47.94v.93c0,.47-.23.94-.46.94h-.47c.23.23.23.46,0,.93,0,.23-.23.47-.47.7s-.46,0-.46-.23c-.24,0-.24.23,0,.46,0,.47.23.47.93,0v.47c-.47.47-.7.93-.47,1.17a.49.49,0,0,1-.46.46H86a4.06,4.06,0,0,1-.23,1.64c-.24.46-.47.93-.94.93a.51.51,0,0,0,.47.47c.47.23.47.46,0,.46-.23,0-.47.24-.47.94,0,.47-.23.93-.46.93v.94a.5.5,0,0,1-.47.46c-.47,0-.7.24-.47.47.47.23.7.47.47.47-.93,0-.93.23-.47.93a1.77,1.77,0,0,1-.23.93c-.23.24-.23.47-.23.94-.47.46-.7.93-.47,1.16a.5.5,0,0,1-.47.47h-.46a4,4,0,0,1,0,2.34c-.24.93-.47,1.4-.94,1.4h-.47a12.24,12.24,0,0,1-.46,2.1c-.24.93-.47,1.4-.94,1.63-.46.47-.46.93,0,.93l-.46.47c-.24.47-.24.93,0,.93.23.24.23.47,0,.47l-.94.47c.24,0,.24.7-.46,2.1a9.66,9.66,0,0,0-.94,2.8c0,.23,0,.47-.23.47s-.23.23-.23.46v.47a3,3,0,0,0-.94,2.1.86.86,0,0,1-.93.94c-.23,0-.23.23,0,.46.47,0,.47.24,0,.94-.93.93-.93,1.4-.47,1.63,0,.47,0,.93-.23.93-.23.24-.23,0-.23-.23-.24,0-.47.47-.47,1.17,0,.46-.23.93-.47.93V290a1.72,1.72,0,0,1-.47.93c-.23.47-.46.47-.93.23v.47q.34.36,0,2.1c-.93.94-.93,1.17-.47,1.17,0,.23-.23.47-.46.93a4.24,4.24,0,0,0-.47,1.64,1.21,1.21,0,0,0-.47.93,1.79,1.79,0,0,0-.46,1.17V300c-.47,0-.94.47-.94,1.64s-.23,1.4-.93.93c-.23,0-.23.24,0,.47.47.47.47.93-.47,1.17-.23.23-.23.46,0,.46,1.17-.46,1.17-.23,0,.94-.46.46-.7.93-.46,1.16s.23.47,0,.47-.7.7-.94,1.87a4.1,4.1,0,0,0-.23,2.8l-.47.47a3,3,0,0,0-.93,2.1c-.47,1.16-.94,1.63-1.17,1.16l-.47.47.94.47a.7.7,0,0,1,.46-.24c0,.24-.23.47-.93.94-.47,1.17-.7,1.87-.47,2.1a1.81,1.81,0,0,1-.46,1.17,1.18,1.18,0,0,0-.47.93c0,.23-.23.47-.47.93,0,.94-.23,1.17-.93,1.17v.47a7,7,0,0,1-.47,2.56,2.79,2.79,0,0,0-.46,1.64.84.84,0,0,1-.24.7.87.87,0,0,0-.23.7,1.77,1.77,0,0,1,1.17.47,1,1,0,0,0,1.4.46C64.05,327.1,65.45,325.7,67.78,323.6Zm31.75-14.47.93-.47c0,.23-.23.47-.46.93C99.53,309.59,99.29,309.36,99.53,309.13Zm4.67-3.27c0-.23.23-.47.93-.47.93,0,.93.24.47.94C104.66,306.79,104.2,306.56,104.2,305.86Zm23.11-13.3c.46-.24.93-.47.93-.94.23-.23.23-.47.7-.47,0-.46-.23-.46-.93,0a4.24,4.24,0,0,1-1.64.47c.47.47.47.94-.47.94a1.2,1.2,0,0,1-.93.46.51.51,0,0,0-.47.47c0,.23-.46.47-1.16.47a.86.86,0,0,0-.94.93c0,.23.24.47.7.23C123.8,294.66,125.2,294,127.31,292.56ZM124.5,151.34l.47-.94-.47.47c-.23,0-.46,0-.46.23s-.24.24-.47.24l-.47.93a.51.51,0,0,1,.47-.47A1.77,1.77,0,0,0,124.5,151.34Zm1.64-3.27c.23-.47.23-.47-.47,0l-.93.93A10.9,10.9,0,0,0,126.14,148.07ZM199.43,33.69a4.65,4.65,0,0,1-.47-2.1,5.66,5.66,0,0,0-.46-2.1,8.77,8.77,0,0,0-.47-2.8c-.23-.7-.47-.93-.93-.7l.93,4.9c.23,1.4.47,2.57.7,3.5s.23,1.4.7,1.4v-2.1ZM223.94,266c0-.24-.23-.47-.93-.47V266a1.2,1.2,0,0,0,.93.46c.23,0,.47,0,.47-.23C224.17,266.18,224.17,266,223.94,266Z"/>
    <path class="b" d="M219.74,442.41c-2.1-.93-4.44-1.87-6.3-2.8a17.78,17.78,0,0,1-5.61-4.67c-8.16-8.64-6.53-20.77,4.91-36.88,4.66-6.3,11.43-13.77,19.84-22.41a366,366,0,0,1,27.77-25.21c2.1-2.1,4.21-4,6.07-5.6,1.87-1.4,2.8-2.33,2.8-2.8s-2.56-2.8-7.47-6.54c-8.17-6.3-14.23-11.9-18-16.57a54.05,54.05,0,0,1-8.87-16.1,50.73,50.73,0,0,1-.93-9.57,42,42,0,0,1,.93-10,81,81,0,0,1,4.9-11.67c2.57-4.67,4.67-8.17,6.54-10.27A110.8,110.8,0,0,1,255.22,251a74.46,74.46,0,0,1,7.7-7,28.09,28.09,0,0,1,5.84-3.73,10.75,10.75,0,0,1,4.2-1.63c1.87,0,4,1.16,6.3,3.26,1.4,1.4,2.57,2.1,3.74,2.1q2.79,0,2.1,4.21c0,1.4.23,2.33.93,2.8a3.75,3.75,0,0,1,.47,2.56.86.86,0,0,0,.23.7c.23.24.23.24.23.7.47,0,.7-.23.47-.93l-.47-1.17,1.17,1.17a3,3,0,0,1,.93,1.63c0,1.64-3.26,6.31-10,14-2.1,2.57-4.9,5.84-7.94,10s-5.13,7.23-6.3,8.87a39.64,39.64,0,0,0-4,7.7c-1.17,2.8-2.1,5.13-2.8,6.77-.93,1.4-1.17,3.5-1.17,6.3-.23,1.87-.23,3.27.24,4a17.12,17.12,0,0,0,3.5,3c.46.47,1.86,1.64,4,3.27s4.43,3.5,6.76,5.37c2.57,2.1,4.67,4,6.54,5.37a14.4,14.4,0,0,0,3.27,2.1c.47.47,2.1-.47,4.9-2.8,2.1-1.64,5.14-3.74,8.4-6.07a50.18,50.18,0,0,0,6.07-4.44c1.17-.46.47.24-1.63,2.11a99.67,99.67,0,0,1-8.17,6.53,64,64,0,0,0-5.37,4,6.87,6.87,0,0,0-2.1,2.33,1.07,1.07,0,0,0,1.17.94c.46.46,2.56-.47,5.83-3.27,6.07-4.44,6.77-4.67,2.1-.93-.23.23-1.63,1.16-3.73,2.8l-2.8,2.56,2.56,2.57c1.41,1.64,3.27,4,5.37,6.77s3.74,5.14,4.67,6.3a10.49,10.49,0,0,1,.94,2.57c.46,1.17.93,2.1,1.4,3.27.23.93.7,1.87,1.16,3.27s1.17,2.56,1.64,3.73a29.21,29.21,0,0,1,2.1,19.84c-.47,2.8-2.34,6.77-5.37,11.91a63.69,63.69,0,0,1-9.1,12.37,105.54,105.54,0,0,1-16.81,14.7,121.46,121.46,0,0,1-19.61,11.44,94.93,94.93,0,0,1-19.37,6.54C229.08,443.34,223.94,443.58,219.74,442.41ZM211.1,410.2c.24-.24.47-.47.47-.7s.23-.24.47-.7c0-.24.23-.47.46-.94a27.34,27.34,0,0,1,2.57-4c1.63-2.34,3.27-4.44,4.67-6.07a56.56,56.56,0,0,1,5.13-6.31c2.57-2.8,4.67-5.13,6.07-6.76.94-.94,2.34-2.34,4.44-4.67,2.1-2.1,4.43-4.67,6.77-7l7-7a47.34,47.34,0,0,1,4.67-4.2c3-2.8,6.07-5.6,9.34-8.17q4.89-4.2,7.7-6.3a5.11,5.11,0,0,0,1.87-2.34c.23-.7-.24-.93-.94-.93-.47,0-1.87.93-4,2.8s-4.66,4-7.93,6.77-6.54,5.84-10,9.1-6.77,6.54-9.8,9.57a289.11,289.11,0,0,0-19.84,21.48c-4.91,6.07-8.64,11.67-10.74,17a31.23,31.23,0,0,0-2.34,5.6c-.7,2.1-.93,3.27-.7,3.5.24,0,.94-1.17,2.11-3.73A15.85,15.85,0,0,1,211.1,410.2Zm11.44,17.27c7-2.1,13.77-5.83,21-10.5a150.3,150.3,0,0,0,20.07-16.81,95.79,95.79,0,0,0,9.57-11.67,83.71,83.71,0,0,0,7-11.9,52.37,52.37,0,0,0,3.27-8.41,29.22,29.22,0,0,0,.94-6.53,15.35,15.35,0,0,0-1.17-5.84,43.68,43.68,0,0,0-3.27-4.67c-1.4-1.86-2.33-2.8-2.8-2.8a2.24,2.24,0,0,1-1.63-.46c-.47-.47-.94-.7-1.4-.47s-1.64,1.63-4,3.73c-4.9,4.2-9.57,8.17-14,12.37s-8.63,8.17-12.84,12.38c-4.66,4.66-8.87,9.1-12.37,13.3s-5.37,6.54-5.37,7l-.46.47c-.47,0-.94.23-.94.47a2.24,2.24,0,0,1-.46,1.63l-.94.47c.47,0,.47.46-.46,1.16l-.94,1.17,1.64-1.17c.46-.23-.24.94-2.1,3.74-2.1,3-4,5.83-5.37,8.17-1.4,2.57-1.87,4-1.64,4.67v.46c-.23,0-.7.7-1.16,2.11a31.91,31.91,0,0,0-.47,5.36c0,2.1.23,3.51.47,3.74.46.47,1.86.7,3.73.23A31.86,31.86,0,0,0,222.54,427.47Zm2.1-28.94.93-.94c0,.24-.23.7-.93,1.17C224.17,399.46,224.17,399.46,224.64,398.53ZM244,290a11.19,11.19,0,0,1,.94-2.8,3,3,0,0,0,.93-1.64c.24-.46.24-.93.7-1.16a15.17,15.17,0,0,1,1.4-3.74c.7-1.4,1.4-2.57,1.87-3.73a3.73,3.73,0,0,0,1.17-2.81,1.2,1.2,0,0,0,.46-.93c0-.23.24-.47.47-.93,1.17-.47.93-.47-.93,0l-.47.46a5.83,5.83,0,0,1-.93,2.11,56.77,56.77,0,0,0-4.2,7.7,56,56,0,0,0-2.57,6.3,1.72,1.72,0,0,1-.24,1.17,1.75,1.75,0,0,0-.23,1.16c-.23.47-.23.47.47,0C243.78,290.69,244,290.22,244,290Zm10-21.48.94-.93c-.24,0-.7.23-1.17.93-.47.47-.7.94-.47.94Zm2.1-2.8c.24-.46.24-.93,0-.93,0,.23-.23.47-.46.7a1.19,1.19,0,0,0-.47.93c-.23.24-.47.47-.47.7s.24,0,.47-.23l.47-.47c0-.23,0-.46.23-.46S256.15,266,256.15,265.71Zm23.11-20.07c.23-.47,0-.94-.93-1.17A10.6,10.6,0,0,0,276,244c-.93,0-1.16.24-1.16.94,0,.46.7.93,2.1,1.16S279,246.34,279.26,245.64Zm-2.1,152.89c.47-.47.93-.94,1.4-1.4l.93-.94c.94-.23,1.17-.46.94-.93-.47-.23-.47-.47,0-.47h.93l.47-.46v-.47l.93-.93a11,11,0,0,0,1.4-2.34c.7-1.17,1.4-2.57,2.34-4.2a40.26,40.26,0,0,0,2.33-4.44l1.4-2.8c.47-2.56.7-3.5.24-3.26s-1.41,1.86-2.81,4.66a76.6,76.6,0,0,1-5.13,9.57,49.38,49.38,0,0,1-6.07,8.17c-.47.47-.93.94-.93,1.17s-.24.47-.47.93l-.47.47C275.29,401.1,276.23,400.16,277.16,398.53Zm9.1-61.63.94-.93c.46-.23.7-.23.46,0C286.73,336.9,286.26,337.14,286.26,336.9Zm2.1-1.4a.86.86,0,0,1,.94-.93C288.6,336,288.36,336.2,288.36,335.5Zm6.77,28.71a1.79,1.79,0,0,0-.23-.93c-.23-.23-.23-.23-.23,0v2.1a.5.5,0,0,0,.46.47v-1.64Zm1.17-36.88.93-.93c.47-.23.47-.23,0,.47C296.53,328,296.3,328,296.3,327.33Z"/>
    <path class="b" d="M379.16,388.26a55.47,55.47,0,0,1-15.4-5.84c-1.87-1.17-3.5-2.1-4.67-2.8a23,23,0,0,1-4.43-4.2,46.79,46.79,0,0,1-6.31-7.24,56.61,56.61,0,0,1-3.26-6.53c-5.84-17,.7-39.68,19.37-67.46a193.86,193.86,0,0,1,14-17.74,149.3,149.3,0,0,1,16.34-15.87,118.65,118.65,0,0,1,17-12.61A77.17,77.17,0,0,1,427.72,240c6.3-1.87,11.67-2.1,16.1-.94a10.07,10.07,0,0,0,2.8,1.17,7.14,7.14,0,0,1,2.34,1.17,8.18,8.18,0,0,0,2.1,1.63c.93.47,1.63,1.17,2.57,1.63a21.71,21.71,0,0,1,3.26,3c.94.93,1.87,3.5,3.27,7.23a70.28,70.28,0,0,1,2.8,8.17,12.27,12.27,0,0,1,0,5.84l-.93,3.27c-.47,0-.94.93-.94,2.57a.88.88,0,0,1-.23.7.86.86,0,0,0-.23.7v.93a.84.84,0,0,1-.24.7c-.23.23-.23.47-.23.93-.47,2.57-1.17,5.14-1.87,8.17a64.64,64.64,0,0,1-2.33,7.94c-.93,2.33-1.63,4.43-2.1,6.07s-.94,2.57-1.17,2.57a.51.51,0,0,1-.47-.47c0-.47-.23-.23-.93.93l-.93,1.64-.47-2.1c0-.94.23-1.17.47-.94l.46.47v-1.63c.24-.24.47-.47.47-.71s-.23,0-.47.71c-.93.93-.93,0,0-2.57a13.6,13.6,0,0,0,.94-4,59.25,59.25,0,0,0,1.16-6.77c.47-2.57.94-4.9,1.17-7a24.6,24.6,0,0,0,.7-4.67c.24-1.4.24-1.63,0-.93-.23.46-.46,1.63-.93,3.26-.23,1.64-.7,3.5-1.17,5.84-1.17,5.6-2.1,10.27-3.27,14-1.16,4-1.86,5.61-2.56,4.91-.24,0-.47-.24-.47-.94a64.74,64.74,0,0,0,1.87-7c.7-3.27,1.4-6.77,1.86-10.5s1.17-7.47,1.64-11a80.91,80.91,0,0,0,.93-8.64c.23-2.57.23-4.2.23-4.9a12.61,12.61,0,0,0-.93-2.8,4.82,4.82,0,0,0-1.63-2.81c-.47-.23-1.87-.23-4.2.47-4.21,1.17-8.87,3.5-14.48,7.24a138.94,138.94,0,0,0-17.27,13.77c-5.83,5.37-11.67,11.44-17.51,18a227.2,227.2,0,0,0-15.17,19.84q-5.25,8.76-9.8,17.51c-2.8,5.83-5.14,11-6.3,15.64q-2.1,6-2.81,8.4a17.48,17.48,0,0,0-.23,6.07c0,1.87.23,3,.94,3.5.46.47,2.56.7,6.3.94a99.27,99.27,0,0,0,19.84-.47,150.31,150.31,0,0,0,25.21-4.67q11.21-2.81,26.61-7.7c10.27-3.27,19.84-6.3,28.71-9.81,3-1.16,6.53-2.33,10.73-4,4.21-1.4,6.54-2.57,7-3a7.33,7.33,0,0,0,2.8-.93c1.17-.47,2.57-1.17,4-1.64,8.17-2.8,18.2-7,29.87-12.37q5.26-2.44,12.61-5.6c4.9-2.1,9.57-4,13.77-6.07,4.44-1.87,8.17-3.5,11.44-4.9a30.92,30.92,0,0,1,5.6-2.1,4,4,0,0,1,1.17-.47c-.47.47-3.5,2.1-8.64,4.9s-11.2,5.84-18,9.34-13.31,6.77-19.61,9.8-10.74,5.14-13.3,6.31c-3,1.4-5.61,2.56-7.47,3.5s-2.81,1.63-2.81,1.87.47.23,1.17-.47a3,3,0,0,1,1.64-.94,4.41,4.41,0,0,0,1.63-.46c.47-.24,1.17-.47,2.1-.94a12.18,12.18,0,0,1,3.27-1.86,42.7,42.7,0,0,1,4.9-1.87c3.5-1.63,7.24-3.27,10.74-5.14s8.63-4.2,14.94-7.23c11.2-5.14,18.67-8.87,22.4-10.51,3.51-1.86,5.61-2.56,5.84-2.33l-.47.47c-.23,0-.46,0-.46.23s-.24.23-.47.23c-1.17.47-1.4,1.17-.93,1.64.23,0,.23.23.23.46a13.62,13.62,0,0,1-2.1,1.41c-1.17.7-3.27,1.86-5.84,3.26a129.68,129.68,0,0,1-11.43,6.31c-3.27,1.86-6.07,3.5-8.17,4.66s-4.21,2.57-6.54,3.74-4.9,2.57-7.7,4-6.3,3.26-10.74,5.83c-4,1.87-5.6,2.8-5.37,2.8l1.64-.93a.88.88,0,0,0,.7-.23c.23-.24.23-.24.7-.24H512c-.23-.23-.23-.46.47-.93a4.33,4.33,0,0,1,1.63-.47.5.5,0,0,0,.47-.46c0-.24.23-.24.46,0a.51.51,0,0,0,.47-.47l.47-.47c.23.24.46.24.46,0s.24-.47.94-.47h.47a.49.49,0,0,1,.46-.46,59.2,59.2,0,0,0,5.37-2.57c3.27-1.63,7-3.73,11.44-6.07,4.2-2.33,8.4-4.67,12.6-6.77a62.56,62.56,0,0,0,9.11-5.37h.93a48.46,48.46,0,0,1-4.9,3.27c-3,1.87-7.94,4.9-14.47,8.64a15.71,15.71,0,0,1-4,2.33,43.11,43.11,0,0,0-6.3,3.5,66.35,66.35,0,0,1-6.77,4c-2.34,1.17-4.2,2.34-5.61,3q-3.15,1.74-9.8,4.9l-13.54,6.77c-4.67,2.33-9.1,4.43-13.3,6.53-4.2,1.87-7,3.27-8.64,3.74-3.5,1.63-8.17,3.73-13.77,6.07s-10.74,4.43-15.17,6.07C415.34,386.16,394.34,390.36,379.16,388.26ZM354,338.07c1.16-2.8,2.33-5.6,3.5-8.63a84.72,84.72,0,0,1,3.5-7.94c.46-.93,1.16-1.87,1.63-3a18,18,0,0,1,1.64-3c.93-1.87,1.4-2.8,1.63-2.8,0-.23.23-.47.47-.93a7.24,7.24,0,0,0,1.16-2.11c.94-1.4,1.87-3,2.8-4.66,1.17-1.87,1.87-3,2.57-3.5l.47-.94c0-.23.23-.47.47-.93l.46-.47.94-1.63a35.86,35.86,0,0,0,3.73-4.67,14.48,14.48,0,0,0,1.64-3.74H381c.24.24.7,0,.94-.7a3.67,3.67,0,0,0,.7-1.4c-.24-.23-.24-.46.46-.46l1.64-1.64c.23-1.16.7-1.4,1.16-1.16h.47c-.23-.24.23-1.17,1.63-2.81s2.34-2.8,2.81-3.26c.93-.47,1.16-.94.93-1.17a.51.51,0,0,1,.47-.47l2.8-2.8a23.49,23.49,0,0,1,2.56-2.33c.94-.7,1.41-1.4,2.11-1.87,0-.47-.24-.47-.94,0-.46,0-.46-.23,0-.47.47-.46.7-.93.47-.93s-.7.23-1.17.93l-.93.94-.47.46a.86.86,0,0,0-.93.94c0,.46-.47.93-1.17,1.16a3.07,3.07,0,0,1-.93.7,3.14,3.14,0,0,1-.94.7c-.23.47-.23.7,0,.47l-2.56,2.57a47.56,47.56,0,0,0-5.37,6.3,16.53,16.53,0,0,0-2.1,2.34,9.6,9.6,0,0,1-1.17,1.4c-.47.46-1.63,1.86-3.27,4a41.17,41.17,0,0,0-3.27,4.44c-1.4,2.1-2.8,4.43-4.67,6.77-1.63,2.33-2.8,4.2-3.73,5.6a114.5,114.5,0,0,0-8.87,16.81c-2.57,5.83-4.43,10.73-5.13,14.7-.94,3-1.17,4.67-.94,4.67A35.33,35.33,0,0,0,354,338.07Zm42.24-67.92a1.8,1.8,0,0,0,1.17-.47c.47-.23.47-.23,0,.47C396.9,271.08,396.44,271.08,396.2,270.15Zm5.37-4.9v-.47l-.46.47c-.24.23-.24.46,0,.46A.49.49,0,0,0,401.57,265.25Zm2.1-1.41c-1.16.47-1.4.94-.93.94Zm49.25,34.08c0-.23-.23-.23-.46.47a1.19,1.19,0,0,0-.47.93v.47c0,.23.23.23.47,0a1.77,1.77,0,0,1,.23-.93C452.69,298.39,452.92,298.16,452.92,297.92Zm.71-3.26c0-.24,0-.47-.24-.47s-.23.23-.23.93l.47.47Zm5.13-34.55c-.47-1.4-.93-1.87-.93-1.63-.24.23,0,1.16.7,2.8.23,1.4.46,1.86.93,1.63a2.6,2.6,0,0,0-.23-1.17A2,2,0,0,1,458.76,260.11Zm35.95,80.76a.88.88,0,0,0,.7-.23c.23-.23.23-.23.7-.23h.46c.24,0,.47-.24.94-.47.23-.47.23-.7-.47-.47a19.86,19.86,0,0,1-2.8,1.17c-1.17.47-1.63.93-1.4.93a.5.5,0,0,1,.47-.46A1.13,1.13,0,0,0,494.71,340.87Zm4.9-2.33a.73.73,0,0,0-.94,0c-.46.23-.7.47-.7.93s.47.47,1.17,0C499.61,339,499.61,338.77,499.61,338.54Zm67.22-28.71a.43.43,0,0,0,0-.7c-.23-.24-.7,0-1.16.23-.24,0-.47.23-.24.47s.24.47.7.47C566.37,310.29,566.83,310.29,566.83,309.83Z"/>
    <path class="b" d="M605.35,394.09a60.26,60.26,0,0,1-8.64-1.86,47.82,47.82,0,0,1-9.1-4,40.63,40.63,0,0,1-5.6-3.5c-1.17-.94-3.27-2.57-6.07-4.67a52.78,52.78,0,0,1-11.21-14,47.8,47.8,0,0,1-3.27-7.47,67.35,67.35,0,0,1-2.56-9.1c-.94-3.27-1.17-7.94-1.17-14a80,80,0,0,1,.93-14.47,97.82,97.82,0,0,1,7.94-24.51c7-14.24,15.41-23.81,25.68-28.47,7.7-4,14.7-3.27,20.77,2.1.47.46,1.4,1.16,2.57,2.1s2.1,1.63,2.8,2.1c3.27,2.1,5.6,5.6,7,10a10,10,0,0,1,.94,2.56,14.8,14.8,0,0,0,1.4,2.8,33.65,33.65,0,0,1,1.16,3.74c.24,1.17.47,2.8.94,4.9.23,2.1.46,4,.46,4.9a10.56,10.56,0,0,1-.93,4.2c-.47,2.1-1.17,4.67-2.1,7.47s-1.63,4.44-2.1,4.91a1.74,1.74,0,0,0-.47,1.16.5.5,0,0,1-.47.47,1.22,1.22,0,0,0-.46.93.51.51,0,0,1-.47.47c0,.23-.23.7-.93,1.17a.85.85,0,0,1-.24.7.86.86,0,0,0-.23.7c.23,0,.23,0,.23.23-.23.23-.23.23-.7.23l-.93.94c0,.46-.23.93-.47.93l-.46.47a2,2,0,0,1-.94,1.63l-1.16,1.17c.23.23.23.47,0,.47-.94,0-1.64.7-2.57,2.1q-9.45,8.75-20.31,6.3a14.33,14.33,0,0,1-4.9-1.87,29.62,29.62,0,0,1-4.2-3,8.16,8.16,0,0,1-2.1-1.4,2.14,2.14,0,0,0-1.17-.7c-.23,0-.7.93-.93,3q-.7,3.15-1.41,7.7a81.8,81.8,0,0,0-.46,9.34c0,4.2.23,7.47.46,9.8.94,3.51,2.11,5.84,4.21,7,4,1.63,10,2.33,18.9,2.1a109.33,109.33,0,0,0,26.61-4.2c2.1-.47,4-.94,5.37-1.17s2.8-.7,4-.93c1.17-.47,2.8-.94,4.43-1.41s4-1.16,6.54-2.1A210.84,210.84,0,0,0,687,346.71a250.71,250.71,0,0,0,33.85-21.48,36.58,36.58,0,0,1,4.43-2.8c.24.24-.93,1.4-3,3.5a111.05,111.05,0,0,1-19.14,15.41,31.17,31.17,0,0,1-4,2.8c-1.17.7-1.87,1.17-1.87,1.4a1.74,1.74,0,0,0-1.16.47c-.47.23-.94.47-.94.93l-.93.94-4.9,2.8a15.33,15.33,0,0,0-3.27,2.56.84.84,0,0,0-.7.24c-.23.23-.23.23-.7.23s-.93.23-.93.47a1.24,1.24,0,0,1-.94.46l-.93.94c0,.47.93.23,2.8-.7s4.43-2.34,7.47-4.2,6.3-3.74,9.57-5.84,6.54-4.2,9.57-6.3c2.1-1.64,5.14-4,8.4-6.54a91.66,91.66,0,0,0,7.24-6.3l1.63-1.63-.46.46a27.87,27.87,0,0,0-3.51,4.21c-.93,1.4-1.16,1.86-.7,1.63.24-.23.24-.23,0,.47a7.36,7.36,0,0,1-1.16,1.63,117,117,0,0,1-8.87,8.4c-4.2,3.74-8.87,7.47-13.54,11a6.53,6.53,0,0,0-1.17,1.4,2.36,2.36,0,0,1-1.16.94c-.47.46-.94.93-1.17.93l.46-.47a1.24,1.24,0,0,1,.94-.46c.23,0,.7-.24,1.17-.94a2.29,2.29,0,0,0,1.16-.93,1.25,1.25,0,0,1,.94-.47.49.49,0,0,0,.46-.46l.47-.47,1.63-.93a122.62,122.62,0,0,0,11.21-8.64l4.9-4.2-2.8,3.27-2.8,2.8-3.27,2.56-4.2,4.21c-1.64,1.16-2.57,1.86-2.57,2.1a33,33,0,0,0-4,2.8l-6.3,4.9c-1.87,1.4-4.67,3.27-8.17,5.6s-6.54,4.2-9.1,5.6c-2.1,1.4-4.9,2.81-8.17,4.67-3.27,1.64-6.77,3.27-10.27,4.9s-7,3.27-10.27,4.67a64.4,64.4,0,0,1-8.17,3.5,121.93,121.93,0,0,1-18,5.14C615.38,394.09,610,394.56,605.35,394.09ZM568.7,319.4a1.25,1.25,0,0,0,.47-.94,1.78,1.78,0,0,1,.46-1.16,6.6,6.6,0,0,1,1.17-2.57,2.19,2.19,0,0,1,.47-1.63,22.86,22.86,0,0,0,1.17-3.27c0-.24.23-.47.46-.94l.94-1.63c.46-1.63.93-2.57,1.16-2.57a6,6,0,0,1,.94-2.1c.46-1.16,1.16-2.33,1.86-3.73s1.4-2.57,2.1-3.74a15.81,15.81,0,0,1,1.41-2.1v-1.4c0-.23.23-.47.46-.93a3,3,0,0,0,.94-1.64,4.84,4.84,0,0,1,1.16-2.1c1.4-1.4,2.1-2.33,2.57-2.8.23-.46.23-.7,0-.7h-.93c.23.24-.24.94-1.17,2.1a38.69,38.69,0,0,0-4,4.67c-1.17,1.87-1.63,3-1.4,3.5-.93,0-1.4.47-1.63,1.64a11.8,11.8,0,0,0-.94,2.33c-.46.93-.93,1.87-1.4,2.8a53.93,53.93,0,0,0-3.73,8.64,59.33,59.33,0,0,0-2.1,7.47,4.52,4.52,0,0,0-.47,2.1c-.23.46-.23.93,0,.93Zm31.28,10a46.16,46.16,0,0,0,5.13-4,26,26,0,0,0,4.44-4.67,40.19,40.19,0,0,0,5.37-11.44,44.38,44.38,0,0,0,2.1-12.6,24.6,24.6,0,0,0-.7-5.14,12.32,12.32,0,0,0-1.4-4c-.94-1.16-2.8-.46-6.07,1.87a55,55,0,0,0-9.34,8.87c-2.1,3-4.43,6.54-6.53,10a111.89,111.89,0,0,0-5.37,10.5,39.21,39.21,0,0,0-2.34,6.77c-.23,1.17.47,2.33,1.87,3.5s3.27,1.64,5.84,1.64A12.73,12.73,0,0,0,600,329.44Zm7,1.16a28,28,0,0,1,2.34-1.86,17.73,17.73,0,0,1,2.8-1.87,34,34,0,0,0,8.17-17.51c.46-1.4.7-2.1.46-1.87a6.64,6.64,0,0,0-1.16,2.34,9.8,9.8,0,0,0-1.64,2.8c-.46,1.4-1.16,2.8-1.63,4.2a48.35,48.35,0,0,1-2.8,4.67,32,32,0,0,1-3,3.5l-5.37,5.37c-1.16.93-1.4,1.17-.93,1.17a4.67,4.67,0,0,1,1.17-.7C605.81,331.07,606.28,330.84,607,330.6Zm4.9,2.57c0-.23-.46-.23-1.63.47-1.4,1.16-2.1,1.63-2.33,1.86s.23,0,1.4-.7Zm11.67-39.45c-.23-2.8-.7-4.2-1.16-4.2-.24,0-.24,1.17.46,3.27l.94,3.27v-2.34Zm56.73,61.39h-.47a1.2,1.2,0,0,0-.47.94c0,.23,0,.46.23.46s.24-.23.24-.46A1.25,1.25,0,0,0,680.28,355.11Zm1.63-.47a.88.88,0,0,0-.23-.7c-.24-.23-.24,0-.24.24a.85.85,0,0,0-.93.93,1.22,1.22,0,0,0,.93.47C681.68,355.11,681.91,354.88,681.91,354.64Zm11.9.94a3.94,3.94,0,0,0,.7-.94c-.23,0-.46.24-.93.94l-.93.93C692.88,356.28,693.35,356.05,693.81,355.58Z"/>
    <path class="b" d="M719.49,393.16a8,8,0,0,1-1.63-2.57c-1.64-1.87-2.81-2.57-3.74-1.63q-.35.35-2.1,0c-1.4-.94-2.1-1.4-2.1-2.1,0-.24-.47-.94-1.63-2.1s-1.41-1.87-1.17-2.11a.51.51,0,0,1,.47.47l.46-.47q1.41-.69,0-2.1c-.93-.23-1.4-.23-1.63.47v1.4a.51.51,0,0,1-.47.47c-.23,0-.93-.7-1.63-2.34a6.1,6.1,0,0,1-1.17-3,7.06,7.06,0,0,0-.47-2.57,12.81,12.81,0,0,1-.93-4.67,19.31,19.31,0,0,1,.93-6.07c.24-.93.94-2.56,1.87-4.9.93-2.56,2.1-5.37,3.27-8.4,1.17-3.27,2.57-6.54,4-10s2.8-6.77,4.2-9.8c.46-1.17,1.4-3,2.8-5.84,1.17-2.8,2.57-5.6,4-8.63,5.13-10.51,9.33-18,12.14-22.88a40.3,40.3,0,0,1,8.16-10.27c.94-.93,1.41-1.4,2.11-1.4a4,4,0,0,1,1.63-.23c2.1.46,3.5,2.1,3.73,4.67,0,2.1.47,2.56,1.17.93.47-1.4,1.17-1.87,1.87-1.17.7.47.93,1.64.93,3.27a5.8,5.8,0,0,0,1.64,3.74,4,4,0,0,1,.93,3.73c-.47,4.67-3.5,13.77-8.64,27.31-1.4,4-2.56,7.24-3.73,10a20.91,20.91,0,0,0-1.64,4.67c0,1.4.24,2.1.47,2.1a18.84,18.84,0,0,0,2.34-1.17,41.77,41.77,0,0,0,4-3.27c3-2.57,5.61-4.67,7.47-6.3s3.74-3.27,5.61-4.67,4-3,6.3-4.67c2.33-1.87,5.37-4,8.87-6.77a149.12,149.12,0,0,1,14.7-10c4.67-2.8,9.34-5.61,14.24-8.17q19.61-9.46,29.41-2.1a28,28,0,0,0,2.34,1.86,67.55,67.55,0,0,1,7.7,6.54,19.93,19.93,0,0,1,3.27,4.9c1.16,2.8,2.1,5.14,2.8,6.77a53.3,53.3,0,0,1,1.87,5.6c.46,1.87,1.16,4.44,1.63,7.24s1.17,7,2.1,12.14c.93,4.66,1.63,8.87,2.57,12.37a30.07,30.07,0,0,1,1.17,6.3c1.4,3.27,3.26,5.37,5.36,6.3a18.21,18.21,0,0,0,6.54.94,18.63,18.63,0,0,0,7.7-.71,81.41,81.41,0,0,0,19.14-7.93,174.9,174.9,0,0,0,24.51-16.57c4-2.81,7.47-5.61,11-8.41s7-6.07,10.51-9.33,7.23-7,11-11,7.93-8.64,12.6-13.78a42.88,42.88,0,0,1,3-3.5c1.16-1.16,2.1-2.33,2.8-3,.46-.47,1.16-1.4,2.1-2.57s1.4-2.1,2.1-2.8c2.1-2.57,3-3.27,2.57-2.1a34.42,34.42,0,0,1-4.21,6.3q-5.25,7.35-14,17.51c-5.84,6.77-11.44,12.84-17,18.44-1.63,1.63-3.73,3.73-6.3,6.07S936.1,336,934,338.07c-1.87,1.64-4.2,3.5-7,5.84-2.8,2.1-5.6,4.43-8.17,6.53-2.8,2.1-5.14,3.74-7,5.14a14.4,14.4,0,0,1-3.27,2.1.51.51,0,0,1-.47.47c-.23.23-.46.46-.7.46s-.23.24-.7.47c-.47.47-.93.93-1.17.93l-.46.47-.94.93a.86.86,0,0,1-.93.94h-.47l-.93.46a1.55,1.55,0,0,1-1.17.94c-.23,0-.46.23-.46.93h.46c.24,0,.47-.23.94-.47a13.37,13.37,0,0,1,1.86-.93,13.18,13.18,0,0,0,1.87-1.4,23,23,0,0,0,2.8-1.17c.94-.46,1.87-1.16,2.8-1.63.24-.23.7-.47.94-.7.46-.23.7-.23.93-.7a1.22,1.22,0,0,1,.93-.47,3.42,3.42,0,0,0,.94-.93,6.25,6.25,0,0,0,1.4-1.17,23.16,23.16,0,0,1,3-2.33c1.4-.94,3-2.1,4.44-3a41.41,41.41,0,0,1,4.67-3.5,14.59,14.59,0,0,0,3.26-2.8,12.61,12.61,0,0,0,2.57-1.63l1.17-1.17a102,102,0,0,0,10-9.1c4-4,8.17-7.94,12.13-12.38,4.21-4.43,8.17-8.86,12.14-13.53s7.47-8.87,10-12.61a6.9,6.9,0,0,1,1.17-1.63l.93-.94c.23.24.23.7-.47,1.17-.23.23-.23.47,0,.47a.73.73,0,0,1,.47-.24c0,.24-.23.24-.93.71l-.47.46c.47,0-1.4,3.27-5.84,9.57a307.27,307.27,0,0,1-21.47,26.61,218.45,218.45,0,0,1-24,22.88,7.77,7.77,0,0,0-2.1,1.63l-1.17,1.17c0,.23.47.23,1.17-.47a23.76,23.76,0,0,1,3.26-2.8c1.64-1.17,2.57-1.87,2.8-2.1a3.57,3.57,0,0,0,.94-.93,6.3,6.3,0,0,0,1.4-1.17c.47-.47,1.17-.93,1.63-1.4a6,6,0,0,1,1.64-.94,19.18,19.18,0,0,0,2.8-2.56l4.9-4.9c1.87-1.87,3.5-3.51,4.9-4.67s2.1-2.1,2.57-2.34c.23-.23.23,0-.47.94a10.62,10.62,0,0,1-2.8,3c-1.17,1.17-2.57,2.57-3.73,4s-2.34,2.57-3,3.27a23.09,23.09,0,0,0-5.37,5.37,33.82,33.82,0,0,0-3.26,2.8,27.31,27.31,0,0,0-2.57,2.33,30,30,0,0,1-2.57,2.33c-1.17.94-2.1,1.87-3.27,2.81a135.2,135.2,0,0,1-18.9,14.47c-7,4.43-12.84,7.23-17.28,8.17-11,2.8-21,.23-29.88-7.94a38.94,38.94,0,0,1-8.87-11.9c-2.1-4.44-3.73-10.27-5.13-17.51-1.4-7.47-2.57-13.3-3.27-17.51q-1.4-6.3-2.1-9.8a16.35,16.35,0,0,0-1.4-4.43,4.06,4.06,0,0,0-1.4-1.41,8.64,8.64,0,0,0-4.2-.93,31.32,31.32,0,0,1-4.67.93,16.94,16.94,0,0,0-4.67,2.34c-2.1,1.17-4.43,2.33-6.77,3.73a46.07,46.07,0,0,0-5.6,3.74L810.76,321a38.46,38.46,0,0,1-4.67,3.27c-2.57,1.63-4,2.57-4.2,2.8a1.07,1.07,0,0,1-1.17.93,66.68,66.68,0,0,1-6.54,5.61c-2.8,2.33-4.66,3.73-5.13,4.43-1.4,1.4-3,2.8-4.67,4.67-1.87,1.63-3.5,3.27-5.14,4.67-2.1,1.63-4.9,4-8.16,6.77s-6.54,5.83-9.81,8.87-6.53,5.83-9.57,8.63-5.37,4.91-7,6.54c-4.44,4-8.17,7-11.21,9.8-3,2.57-5.13,4.67-6.53,6.07-1.17.94-1.87,1.4-2.34,1.4-.46.24-.93,0-1.4-.23-.93-.23-1.4-.23-1.63,0C721.12,393.63,720.42,393.63,719.49,393.16Zm-1.17-39.45c1.64-4.2,2.8-7,3.5-8.4s1.4-2.8,1.87-3.5a1.77,1.77,0,0,1,.23-1.17c.24-.23.24-.47.24-.93,0-.24.23-.47.46-.94a6,6,0,0,1,.94-2.1l2.8-7a38.27,38.27,0,0,1,2.1-4.67c.47-1.4,1.4-3,2.33-5.13s2.11-4.44,3.51-7.24c1.63-3.27,3.5-7.24,5.83-11.91a65.48,65.48,0,0,1,4.67-8.87,5.67,5.67,0,0,0,.93-2.56c-.46-.47-1.63.7-2.8,3.73a46.26,46.26,0,0,0-3.27,5.6c-1.4,2.57-2.8,5.61-4.43,8.64-1.63,3.27-3,6.3-4.67,9.57s-2.8,5.84-3.5,7.7a10.14,10.14,0,0,0-1.63,4.67,25.56,25.56,0,0,0-2.81,6.54,14.6,14.6,0,0,1-1.4,3.27,7.35,7.35,0,0,1-.93,1.63,1.77,1.77,0,0,1-.23.93c-.24.24-.24.47-.24.94a13.65,13.65,0,0,0-.93,1.86c-.23.94-.7,2.1-1.17,3.51-2.56,6.06-4,9.8-4.43,11.43s-.24,2.1.23,1.87c.23,0,.7-.7,1.17-2.1A18.54,18.54,0,0,1,718.32,353.71Zm38-58.82v-.47l-.47.47v.93C756.37,295.59,756.37,295.36,756.37,294.89Zm16.11,32.91-.94.94H772C772.24,328.27,772.24,328,772.48,327.8Zm4.66-2.1c0-.23-.46,0-1.16.93-.47.47-.47.7.46.47A3.58,3.58,0,0,0,777.14,325.7Zm-.46-.93c-.24-.24-.47-.24-.94,0Zm3-.7c.23,0,.23-.24,0-.47-.47-.23-.47-.7,0-1.17l-.47.47a.5.5,0,0,1-.46.47v.93c-.24,0-.47.23-.47.93C779,324.3,779.24,324.07,779.71,324.07Zm1.64-3,.46-.93a.85.85,0,0,0-.93.93V322A1.82,1.82,0,0,0,781.35,321Zm1.63,0c.23-.23.23-.23-.47,0l-1.16,1.17c-.24.23-.47.47-.24.47s.24-.24.7-.47C782.51,322,783,321.73,783,321Zm2.33-1.63c0-.47-.23-.7-.46-.47a1.82,1.82,0,0,1-1.17.47c0-.94-.47-.94-1.17,0-.23,0-.23.23.47.93C784.38,320.8,785.08,320.57,785.31,319.4Zm1.87-1.64h-.47c-.23,0-.46.24-.46.94,0,.23.23.23.46,0C787,318.23,787.18,318,787.18,317.76Zm2.8-1.63c.47-.47.7-.93.47-.93a.5.5,0,0,0-.47.46l-.46.47c-.47-.47-.94-.47-.94.47-.47.46-.7.7-.23.7A7.2,7.2,0,0,0,790,316.13Zm2.8-2.1c0-.23-.46-.23-1.16,0-.24,0-.47.23-.7.47s0,.46.23.46c0,.24,0,.24.23.24.24-.24.24-.24.24-.7A1.74,1.74,0,0,1,792.78,314Zm1.4-1.17a.49.49,0,0,0-.46-.46.5.5,0,0,1-.47.46.47.47,0,1,0,.93,0Zm60.69,36.88a27.45,27.45,0,0,1-1.16-5.6,103.21,103.21,0,0,0-2.11-10.5c-.93-4.2-1.4-7.47-1.86-10s-.7-4.44-.94-5.6a11.82,11.82,0,0,0-.7-2.57c-.23-.47-.23-.7-.7-.93-.23-.47-.46-.7-.46-.24a19.82,19.82,0,0,0,.46,2.34,27.1,27.1,0,0,1,1.17,5.6c.47,3.27,1.17,6.77,2.1,11,1.4,6.54,2.34,11.2,2.8,13.77s1.17,4,1.64,4v-.47C855.11,350.21,854.87,350,854.87,349.74Zm64.66,8.17c.23-.23-.23-.23-1.17,0l-1.16,1.17c0,.23.23.23.93-.23C918.6,358.61,919.06,358.15,919.53,357.91Zm3.73-2.8c.47-.93.47-1.17,0-.93-.46.46-1.16.93-1.63,1.4s-.47.7,0,.7l.47-.47A2.09,2.09,0,0,0,923.26,355.11Zm32-28.94c.94-.94,1.4-1.4,1.64-1.4.23-.24.23,0-.47.7-1.4,1.63-2.1,2.56-2.57,2.56l.47-.46A1.67,1.67,0,0,1,955.24,326.17Zm2.8-3a.86.86,0,0,1,.94-.93l-.47.93Z"/>
    <path class="b" d="M999.83,462.72c-4.67-1.17-9.57-4.67-14.94-10.27-8.17-7.94-14.71-20.31-19.61-36.88-5.14-16.58-8.17-35.25-9.34-56.26a273.13,273.13,0,0,1-.23-27.54c.47-8.87,1.4-19.37,2.8-30.81,1.17-8.87,2.57-18.21,4.67-28.48,1.87-10,4.2-20.31,6.77-30.58s5.37-20.54,8.4-30.57,6.3-19.61,9.57-28.48c1.64-4.2,3-7.7,4.2-11s1.87-5.14,2.57-6.07c.23-.47.47-.94.7-1.4s.23-.7.7-.94c2.1-5.6,4-9.57,4.9-12.37,1.17-2.8,2.1-5.13,3.27-7.47,2.1-4.2,3-6.3,2.8-6.77-.47-.46-2.8,0-6.77,1.41-3.27,1.16-7.7,2.56-13.07,4.66-5.37,1.87-10,3.74-14,5.37-1.87.94-4.44,1.87-7.47,3.27s-5.84,2.8-8.87,4.2a88.61,88.61,0,0,0-8.17,4.44c-2.57,1.63-4.44,2.8-5.84,3.5-2.8,1.87-5.37,4-8.17,6.07a54,54,0,0,0-6.53,6.07,24.93,24.93,0,0,0-2.57,3c-.47.93-.47,1.4,0,1.4.23,0,.23.47,0,1.17,0,.93.23,1.16.47,1.16s.46.24.46.94c0,.47-.46.7-1.16.23a15.13,15.13,0,0,1-2.11-1.4,4.44,4.44,0,0,1-1.63-3.27c-.23-.23-.47-.23-.93,0-.47,0-.94-1.16-.94-3.26a12,12,0,0,1,2.1-6.54,55.3,55.3,0,0,1,7.94-8.87c11-11.67,29.64-22.88,55.55-33.85a82.64,82.64,0,0,1,9.11-3.73c3.26-1.17,7.47-2.57,12.37-4.2,3-1.17,5.6-2.1,7.93-2.8,2.11-.94,3.51-1.4,3.74-1.64,1.17-.46,2.33-2.1,3.73-4.9,4.44-7.94,9.81-16.81,16.34-26.61,6.54-9.57,12.37-18,18-24.74,1.63-2.1,3.26-4.2,4.66-5.84a14.82,14.82,0,0,1,2.81-2.8c.23-.46.7-1.16.93-1.63.47-.47.93-1.17,1.4-1.64a95.73,95.73,0,0,1,8.17-8.63c3-2.8,5.14-4.2,6.3-4.2a7,7,0,0,1,2.1.93,5.38,5.38,0,0,1,1.64,1.87c0,.46.46.93,1.63.93.93,0,1.17.7,1.17,2.1a8,8,0,0,0,1.17,2.8,1.28,1.28,0,0,1,.7.94,28.23,28.23,0,0,0-1.41,4,50.83,50.83,0,0,1-2.33,5.37,9.58,9.58,0,0,1-1.87,2.8,3.17,3.17,0,0,0-1.16,2.11,21.87,21.87,0,0,1-2.1,4c-1.41,2.34-2.34,4-2.81,4.67a3.64,3.64,0,0,0-.93,1.4,12.79,12.79,0,0,0-.93,1.87,19.42,19.42,0,0,0-2.1,3.27c-.94,1.63-1.87,3.27-2.8,4.9a34.77,34.77,0,0,0-2.81,4.67c-.7,1.4-1.16,2.1-1.4,2.57a29.73,29.73,0,0,1-2.8,4.66q-1.74,2.8-3.5,5.61c-1.17,1.86-2.57,4-4.67,6.76v.94c0,.93-.7,1.87-2.1,3.27l-1.63,3.26c0,.24.7.47,2.33.7,1.4.24,5.37.24,11.91.24a259.35,259.35,0,0,1,30.11,2.1,126,126,0,0,1,22.17,4.9,69.47,69.47,0,0,1,9.34,4.67c3.27,2.1,4.67,3.27,4.43,4v1.16a.5.5,0,0,0,.47-.46c-.23,0-.47,0-.47-.24s.24-.23.47-.23.7.7,1.17,1.87.7,1.87.47,1.87c0,.46-.94.23-2.57-.94a19.43,19.43,0,0,0-5.6-2.57c-1.64-.23-5.14-.7-10.51-1.16a57.51,57.51,0,0,0-8.64-.47h-14c-4.9,0-9.8,0-14.47.23s-7.94.47-10,.7c-4.2.47-7,.94-8.4.94a43.43,43.43,0,0,0-7.71.93c-1.63.23-3.26.47-4.66.7-1.64.23-2.57.23-3,.7-.46.23-1.63.94-2.8,1.64q-2.1,1.4-2.1,2.1l-.93,1.63-.94,1.63c.24,0,.24.24,0,.47a14.76,14.76,0,0,1-1.16,2.57,40.15,40.15,0,0,0-2.57,4.67c-.94,1.63-1.87,4-3.27,7l-.93,1.63a3,3,0,0,0-.94,1.64,3.92,3.92,0,0,1-.46,1.16,4.85,4.85,0,0,1-.94,1.4,4.77,4.77,0,0,1-.93,1.41l-1.64,4.2a.49.49,0,0,0-.46.46,1.74,1.74,0,0,1-.24.94c-.23.23-.23.46-.23.93a6.93,6.93,0,0,1-1.17,2.1.5.5,0,0,0-.46.47,1.71,1.71,0,0,1-.24.93c-.23.24-.23.47-.23.94-.47,1.16-.93,1.86-.93,2.1a.5.5,0,0,0-.47.46,1.8,1.8,0,0,1-.23.94c-.24.23-.24.46-.24.93a1.79,1.79,0,0,0-.46,1.17c0,.23-.24.46-.47.93a1.25,1.25,0,0,0-.47.94c-.23,0-.46.23-.46.93a4.78,4.78,0,0,1-1.17,2.1c-.47.47-.7.93-.47.93.47-.46.7-.7.7-.23a3.93,3.93,0,0,1-1.4,1.4l-.47.93c.47-.46.94-.46.94,0a2,2,0,0,1-.94,1.64l-.93.46c1.63-.46,1.87-.23.47,1.17a.51.51,0,0,0-.47.47v.93c0,.24-.23.7-.93,1.17v.47c.23,0,.23.23.23.46l-.93.94c-.47.93-.7,1.16-.47,1.16.47,0,.7.24.23.7a6.18,6.18,0,0,1-1.86,1.4c-.47.24-.47.24.46,0,1.4,0,1.64.47.94,1.17-.47,0-.94.47-.94,1.64l-.7,1.4a3.07,3.07,0,0,1-.7.93c-.23.47-.23.93,0,.93v.47l-.93.93-.47.94c.47-.24.7-.24.7,0-.23.23-.47.7-.93,1.16s-.7.94-.47,1.17c.47,0,.47.24,0,.94-1.17.46-1.17.93-.47.93.47.47.47.93-.46,1.17-.47.93-.47,1.16,0,1.16.23,0,.23.24-.47.47a3,3,0,0,0-.93,1.63,1.56,1.56,0,0,1-1.17,1.64c-.23.47-.23.7,0,.47.47-.24.93-.24.93,0s-.23.7-.93,1.16c-.47.47-.7.94-.47.94.94,0,.94.23.47.93-.47.93-.7,1.17-.47,1.17,0,.23-.23.7-.93,1.16-.23.24-.23.47,0,.47.93,0,.7.23-.47.93-.46.94-.46,1.17,0,1.17.24,0,0,.47-.93,1.17l-.47.93c.23-.23.47-.23.47.47,0,.47-.23.93-.47.93-.47,0-.93.24-.93.47h.46c.47-.23.7-.23.7.47a2.29,2.29,0,0,1-.93,1.16c-.47.24-.7.47-.47.47.47,0,.94.23.94.47s-.24.46-.94.46c-.23.24-.23.47,0,.94,0,.93-.23,1.16-.46,1.16-.24-.23-.47-.23-.47.47a1.24,1.24,0,0,1-.47,1.64l-.46.46c.46,0,.93.24.93.47L998,233c-.24,0-.47,0-.47.24s.23.23.47.23c.46.47.46.93-.47,1.17-.47.46-.47.93,0,.93,0,.23-.23.47-.47.93a1.81,1.81,0,0,0-.46,1.17,9.59,9.59,0,0,1-.94,3.74l-.93,2.56a.51.51,0,0,0-.47.47v1.4a3.79,3.79,0,0,1-.93,2.34c-.47,1.63-1.17,4-1.87,7.23s-1.4,6.54-2.33,10-1.64,6.77-2.34,9.8-1.16,5.14-1.4,6.3a4.41,4.41,0,0,0-.46,1.64,4.33,4.33,0,0,1-.47,1.63,4.43,4.43,0,0,0-.47,1.64,4.25,4.25,0,0,1-.47,1.63,3.38,3.38,0,0,1-.46,2.1,2.89,2.89,0,0,1-.24,1.4,3,3,0,0,0-.23,1.4,17.28,17.28,0,0,1-.93,4.67c-.94,4.67-1.4,8.4-1.87,11s-.93,5.6-1.4,8.87a8.12,8.12,0,0,1-.23,2.1,7.87,7.87,0,0,0-.24,2.1,7.32,7.32,0,0,1-.23,2.34,4.14,4.14,0,0,0-.23,1.4,5.63,5.63,0,0,1-.24,1.86,7.35,7.35,0,0,0-.23,2.34,16,16,0,0,0-.47,3.27,8.85,8.85,0,0,1-.46,2.8c-.47,5.6-.94,10.73-.94,15.4-.23,4.67-.23,11.91-.23,21.48,0,5.13,0,9.57.23,12.6.24,3.27.24,6.07.47,8.64s.23,5.13.47,7.94c.23,2.56.46,5.83.93,9.33q1.75,12.25,3.5,20.31a73.58,73.58,0,0,0,4.44,13.3c2.8,5.61,5.36,8.87,7.93,10.27a8.73,8.73,0,0,0,2.57.94,8.17,8.17,0,0,0,2.8.23,14.11,14.11,0,0,0,5.6-.93,12.54,12.54,0,0,0,4.67-3.74l2.57-2.1-1.17,1.64a33.25,33.25,0,0,1-6.3,7l-1.63,1.17,1.63-.47a9.63,9.63,0,0,0,5.83-3.27c.94-.93,1.17-1.17,1.17-.93h.94l-.47.46a14.84,14.84,0,0,1-.94,1.17,5.7,5.7,0,0,1-.93,1.64,21.1,21.1,0,0,1-1.17,1.86,12.93,12.93,0,0,1-1.63,1.87c-1.4,1.17-2.1,1.63-2.1,1.87s.47,0,1.17-.24a7.29,7.29,0,0,0,2.1-1.16c.46-.47.7-.47.23.46a8.76,8.76,0,0,1-1.87,2.57c-.93.94-2.1,1.17-4.2,1.17a6.59,6.59,0,0,1-2.33.23C1001.23,463.18,1000.53,463,999.83,462.72Zm-77-286.87c.93-2.11,3.27-5.37,7.7-9.81a106.38,106.38,0,0,1,12.6-11c1.64-1.17,3.74-2.57,6.54-4.2,2.57-1.63,5.37-3.27,8.17-4.9s5.14-3,7.47-4.44A27.69,27.69,0,0,1,970,139.2c1.17-.23,1.63-.7,1.63-1.17h-.46c-.94.94-2.11,1.4-4.21,1.64-4.66,2.1-10,5.13-16.34,8.63a99.76,99.76,0,0,0-15.17,10.27,86.25,86.25,0,0,0-7.47,6.77,24,24,0,0,0-4.9,6.3,21,21,0,0,0-1.17,3.51c-.23,1.16-.23,1.86.47,1.86Zm.46,4-.46-.46a.5.5,0,0,0-.47.46l.47.47C923.26,180.28,923.26,180.05,923.26,179.81Zm11.68-11.43a73.08,73.08,0,0,1,7-5.84c3-2.1,5.37-3.73,7-4.67.93-.23,1.17-.7,1.17-1.16h.46c.47,0,.94-.24.94-.47l.46-.47c.47,0,.94-.23.94-.47s.47-.7,1.17-.93c.93-.47,1.4-.47,1.63-.23.23,0,.47,0,.47-.24s-.24-.23-.47-.23c0-.47-.23-.7-.93-.47-.47.24-2.57,1.64-6.31,3.74-1.4.93-2.8,1.63-4.66,2.8a32.68,32.68,0,0,0-4.21,2.8c-1.16.93-2.33,1.87-3.73,3s-2.8,2.56-4.2,3.73-2.57,2.33-3.5,3.27a4.76,4.76,0,0,0-1.4,1.87.5.5,0,0,1-.47.46c-.23,0-.47.24-.93.47,0,.23.23.23.46,0a.5.5,0,0,1,.47.47c.23,0,.47-.24.93-.47l2.1-2.1a32.14,32.14,0,0,0,2.8-2.8A22.69,22.69,0,0,0,934.94,168.38Zm22.87-15.88c1.17-.46,1.4-.93.93-.93a2,2,0,0,0-1.63.93C955.24,153.67,955.48,153.67,957.81,152.5Zm10.27,226.19c0-.24-.23-.47-.47-.94a.5.5,0,0,0-.46.47l.46.47Zm6.54,40.61c-1.17-4.43-2.1-10-3.27-16.57s-1.87-12.37-2.57-17a5.89,5.89,0,0,0-.23-1.87,5.66,5.66,0,0,1-.24-1.87,1.79,1.79,0,0,0-.23-.93c-.23-.23-.23-.47-.23-.93,0-.94-.24-1.17-.47-1.17s-.47.93-.23,2.8.46,4.44.93,7.24.93,6.07,1.17,9.57c.47,3.5.93,6.53,1.4,9.33.23,1.17.7,2.57.93,4.44.47,1.87.94,3.5,1.4,5.13s1.17,3.51,2.1,5.84Zm-5.37-135.38a.5.5,0,0,0,.46.47l.94-.47Zm.93-2.1v-.47a.51.51,0,0,0-.47.47v.46C970,282.05,970.18,282.05,970.18,281.82Zm1.17-2.57v-2.1a8.64,8.64,0,0,0,.93-2.57c.94-4.43,2.1-9.57,3.5-15.64,1.4-5.83,3.27-12.14,4.91-18.44,1.86-6.3,3.5-12.6,5.36-18.67s3.27-11.44,4.67-16.11c3-8.63,6.3-17.5,10-26.61,3.5-9.1,6.54-16.34,9.1-21.94l1.17-2.57a4,4,0,0,0,.47-1.16q1.39-3.15,2.8-6.3c.93-1.64,1.63-3.27,2.57-4.91s1.4-3.26,2.1-4.67a8.78,8.78,0,0,0,1.63-4.2c0-.93-.93-.93-2.57,0a63.24,63.24,0,0,0-3.5,6.31c-1.87,3.73-3.73,7.46-5.6,11.43a36.53,36.53,0,0,1-1.63,4.67c-.47,1.17-1.41,2.8-2.57,4.9-.47,1.17-1.4,3-2.34,5.84s-2.1,5.83-3.5,9.1-2.8,6.54-4,10c-1.16,3.27-2.33,6.3-3,8.64-1.63,4.2-3.27,8.87-4.9,14.47s-3.27,11.2-4.9,16.8-3,11.21-4.44,16.34c-1.17,5.14-2.33,9.57-3,13.31a23.67,23.67,0,0,1-.47,2.8c-.23,1.4-.47,2.8-.93,4.67s-.94,4-1.4,6.3c-.47,2.1-.7,4-.94,5.37-.46,2.1-.93,3.5-.93,4s.23.7.93.7h.47Zm-.7.93a.51.51,0,0,0-.47.47.51.51,0,0,0,.47.47l.47-.47C970.88,280.18,970.88,280.18,970.65,280.18Zm4.9-144.25c-.47,0-.93.23-.93.47-.24.23-.24.46,0,.46Zm37.11,50.65c.47-.46.47-.7,0-.46l-.93.93v.47C1012.43,187.28,1012.66,187.05,1012.66,186.58Zm1.4-2.56c.24-.47.24-.47-.46,0a.86.86,0,0,0-.94.93C1012.66,185.18,1013.13,185,1014.06,184Zm4.21-10.74c.23-.47.23-.47-.47,0l-.93.93C1016.87,174.45,1017.33,174,1018.27,173.28Zm14.47-62.56a7.11,7.11,0,0,0,1.63-1.17l.47-.93c.23,0,.47-.23.47-.93l3.26-5.84c.94-1.63,1.64-3,2.34-4.2a5.9,5.9,0,0,0,.93-2.1.51.51,0,0,1,.47-.47,1.06,1.06,0,0,0,.93-1.16c.47-1.17.94-1.64,1.17-1.64a.51.51,0,0,0,.47-.47c0-.23.23-.46.46-.93l.94-1.63a1.24,1.24,0,0,0,.46-.94c0-.23.24-.46.47-.93a.51.51,0,0,1,.47-.47,9.65,9.65,0,0,1,1.63-2.8c1.17-1.63,2.57-3.5,4.2-5.83a23.72,23.72,0,0,1,1.87-3.27c.7-1.17,1.4-2.1,1.87-2.8a11.81,11.81,0,0,1,1.63-2.57,7.43,7.43,0,0,0,1.17-1.63,5.71,5.71,0,0,0,1.63-2.1c.94-1.41,1.87-3,3.27-4.91a20.36,20.36,0,0,1,1.87-2.8c.7-1.16,1.4-1.86,1.86-2.57,2.11-3,4.21-5.6,5.84-7.93,1.63-2.1,2.8-3.5,3.27-4.2a17.14,17.14,0,0,0,3.27-4.2,5.7,5.7,0,0,0,1.16-2.81c0-.46,0-.93-.23-.93s-.7.47-1.4,1.63c-.47.47-.93,1.17-1.4,1.64s-.7.93-.93,1.17-1.17,1.63-2.81,3.73-3.5,4.67-5.6,7.47-4,5.37-6.07,7.94c-1.86,2.56-3.26,4.2-3.73,4.9a19.71,19.71,0,0,0-2.8,4.2,31.38,31.38,0,0,0-2.57,3.5c-1.4,2.1-3,4.44-4.67,7.24-1.87,2.8-3.5,5.6-5.37,8.17-1.86,2.8-3.26,4.9-4.43,6.53a33.76,33.76,0,0,1-2.57,4.44c-1.17,1.86-2.1,3.5-3.27,5.13a74.31,74.31,0,0,0-3.73,6.54C1030.17,111.89,1031.1,111.89,1032.74,110.72Z"/>
    <path class="a" d="M1063.78,393.16c-1.4,0-3.27-.93-5.83-2.57q-3.15-2.1-4.2-2.1a5.59,5.59,0,0,1-2.57-1.4c-1.17-.93-2.34-2.1-4-3.27a25.74,25.74,0,0,1-4.44-4.2,22.16,22.16,0,0,1-3.26-4,54.69,54.69,0,0,1-4.44-9.57,69.9,69.9,0,0,1-3-10.74,48,48,0,0,1-.47-10.5,93.72,93.72,0,0,1,1.17-10.5,106,106,0,0,1,8.87-23.34,81.32,81.32,0,0,1,14.24-20.08,79.83,79.83,0,0,1,6.3-6.3,33,33,0,0,1,6.3-4.9c1.87-1.17,4-.47,6.3,1.63,1.17,1.4,1.4,2.34.94,2.8-.47.94-.94,1.17-1.17,1.17-.23-.23-.7,0-.93.93a11.78,11.78,0,0,0-.94,2.57c-.23,1.87.24,2.57,1.17,1.63.23-.23.23-.93-.47-1.63l-.46-.93h1.16c.24-.24.94-.24,1.64.46a2.24,2.24,0,0,0,.93.24,6,6,0,0,1,1.87-.94,3.62,3.62,0,0,1,2.8-1.63,3,3,0,0,1,1.63.93c.47.7.7,1.17.47,1.4a9,9,0,0,0,.93,6.31,8.59,8.59,0,0,1,.94,2.56.5.5,0,0,0,.46.47,2,2,0,0,1,1.64.93c.46.47.46,1.4,0,2.57a15.68,15.68,0,0,1-1.4,2.34,16.8,16.8,0,0,1-2.8,3q-15.06,17.85-21.71,32.21a63.23,63.23,0,0,0-6.77,28v5.37l2.1.47a26.69,26.69,0,0,0,8.87.23c3.73-.47,6.77-.93,8.87-1.4a136.86,136.86,0,0,0,19.14-6.77c7.24-3.27,16.57-7.7,28.24-13.54,4.44-2.1,8.17-4.2,11.67-6.07,3.27-1.86,6.77-3.73,10.28-5.83s7.7-4.67,12.13-7.47c4.67-2.8,10-6.54,16.81-11,6.54-4.67,10.74-7.7,12.37-8.64,1.63-1.16,2.33-1.4,2.1-.93,0,.23-.93,1.17-3,2.8s-4.67,3.5-7.71,5.84q-14.36,10.85-24.5,17.5c-6.54,4.67-12.84,8.64-18.68,12.14-1.87,1.17-3.73,2.1-5.6,3.27s-3,1.86-4,2.56a7.16,7.16,0,0,0-2.1,1.17,1.19,1.19,0,0,1-.93.47c-1.17,0-1.64.47-1.64,1.17,0,.46.7.46,2.1-.47a12,12,0,0,1,2.34-.93,20.72,20.72,0,0,0,2.33-1.41c6.54-3.5,12.61-7,18-10.5s11.67-7.7,18.9-12.6,13.07-9.11,17.74-12.37,7-4.91,7-4.67l-.46.46a4.78,4.78,0,0,0-2.1,1.17c-.94.93-1.17,1.4-1.17,1.63a2.73,2.73,0,0,1-1.63,2.57c-.47.24-.94.24-.94,0,.24-.23.24-.46,0-.46a1.2,1.2,0,0,0-.46.93c.23.23-1.41,1.87-4.91,4.67s-7.93,6.3-12.83,10-10,7.47-15.41,11.44a144.77,144.77,0,0,1-12.37,8.64c-2.57,1.4-3.74,2.33-3.74,2.8,0,.23.47,0,1.64-.93a7.84,7.84,0,0,1,2.1-1.4,15.09,15.09,0,0,1,2.1-.94,3,3,0,0,1,1.63-.93c.47-.24.94-.24,1.17-.7.47-.47.93-.94,1.17-.94.23-.23.7-.23,1.16-.7.24,0,.47-.23.94-.46,0-.24.23-.47.93-.47a.5.5,0,0,0,.47-.47.5.5,0,0,1,.47-.46c.23,0,.46-.24.93-.47a32.89,32.89,0,0,1,3.5-2.57c2.1-1.4,4.44-3.27,7.24-5.37,2.56-1.86,4.67-3.5,6.53-4.9s2.8-1.87,2.57-1.63q0,.35-2.1,2.1c-1.4,1.17-3,2.33-4.9,3.73-4,3-6.54,5.14-8.17,6.54s-2.8,2.1-3.27,2.57-2.33,1.86-5.14,4-4.66,3.27-5.6,4c-.23.94-1.16,1.64-2.56,2.1a1.85,1.85,0,0,1-1.64,1.17c-.23,0-.47.23-.93.47-4.67,3.27-8.64,6.07-11.91,8.17s-6.3,4-9.57,6.07c-3.26,1.86-5.83,3.5-7.7,4.66q-7.35,4.22-11.9,6.31c-2.81,1.4-5.84,2.56-8.41,3.73a63.5,63.5,0,0,1-9.57,2.57C1069.62,393.63,1066.58,393.63,1063.78,393.16Zm-19.84-58.36a.85.85,0,0,1,.24-.7c.23-.23.23-.23.23-.7,0-.23.23-.46.47-.93a1.22,1.22,0,0,0,.46-.93,1.8,1.8,0,0,1,.47-1.17c.23-.47.47-1.17.93-2.1a5.78,5.78,0,0,1,.94-2.1,41.25,41.25,0,0,1,2.8-6.77,34.49,34.49,0,0,1,2.8-5.14,7,7,0,0,0,1.17-1.63,5.53,5.53,0,0,1,.93-1.63c0-.47.23-.94.47-.94l.46-.47c-.46-.23-.46-.7,0-1.16a3.87,3.87,0,0,0,.47-1.17c0-.23-.23-.23-.47,0s-.23.47,0,.47a.49.49,0,0,1-.46.46l-.94,1.64a12.48,12.48,0,0,1-2.1,3.73,18.72,18.72,0,0,0-2.8,4.2c-.93,1.87-1.87,4-2.8,6.31-.93,2.1-1.87,4.43-2.8,6.53a21.36,21.36,0,0,0-1.64,5.6c-.23,1.17-.23,1.64,0,1.17A9.65,9.65,0,0,1,1043.94,334.8Zm15.64-31c.23-.93.23-1.17,0-1.17a5.19,5.19,0,0,0-.93,1.17c-.47.47-.47.93-.24.93C1058.65,304.46,1059.11,304.23,1059.58,303.76Zm3.74-5.14-.94.94C1062.38,300,1062.85,299.79,1063.32,298.62Zm12.37-11.43a.47.47,0,1,1,.46.46C1076.15,287.19,1075.92,287.19,1075.69,287.19Zm21.94-28.25a22.05,22.05,0,0,1-8.4-12.14c-1.87-5.36-2.81-13.07-2.81-22.87a122.09,122.09,0,0,1,1.4-15.64,26.33,26.33,0,0,1,4.44-11.2,21.73,21.73,0,0,1,2.8-3.74c1.17-1.63,2.57-3.27,4-4.9s2.8-3.27,4-4.67a12.48,12.48,0,0,1,2.8-2.57c2.57-1.4,4.43-1.63,5.83-.93,2.8,1.17,4.21,2.57,4.21,4.67l.46.47q.71-2.1,2.8,0c.24,0,.47.93.47,2.56a5,5,0,0,0,1.63,3.74,4.79,4.79,0,0,1,1.17,3.73,13.12,13.12,0,0,1-.7,4.2,62,62,0,0,1-2.33,5.84c-1.87,4-3.5,7.47-4.91,10.74s-2.56,6.53-3.73,9.57c-4,10.27-6.54,17.5-7.7,22.17s-1.64,7.7-1.4,9.81c0,1.63.23,2.56.93,2.56.47.47.23.94-.93.94C1101.13,260.58,1100,260.11,1097.63,258.94Zm-.7-45.51a12,12,0,0,0,.93-2.34,25.61,25.61,0,0,0,1.4-3.5c.47-1.17.94-2.1,1.4-3a17,17,0,0,0,.94-2.34,14.2,14.2,0,0,1,1.63-2.8c.47-.93.7-1.4.47-2.1a1.21,1.21,0,0,1,.93-.47c.23,0,.47-.23.47-.93v-.47l.93-.46c0-.94.24-1.17.94-1.17l.46-.47c-.23,0-.23-.46.47-1.17,1.17-.46,1.4-.93.93-.93-.23,0,.24-.47,1.17-1.63,1.4-1.4,1.87-2.57,1.17-3.27-.47,0-1.17.93-2.1,2.8a12.46,12.46,0,0,0-1.4,1.87,13.75,13.75,0,0,1-.94,1.4L1105.1,195a2.36,2.36,0,0,1-.94,1.16,1.24,1.24,0,0,0-.46.94l-.94.93c-.46.47-.46.93,0,.93l-.46.47a31.63,31.63,0,0,0-2.8,4.67q-1.76,3.85-2.81,6.3a16.73,16.73,0,0,1-.93,3.27c-.23,1.17-.23,1.63,0,1.63a.5.5,0,0,0,.47-.46C1096.46,214.36,1096.46,213.89,1096.93,213.43Zm20.54,146.12.47-.47a4.4,4.4,0,0,0,.7-.93c-.24-.24-.47,0-.94.7-1.16.46-1.63.93-1.63,1.16.23,0,.47-.23.93-.46C1117.24,359.08,1117.47,359.08,1117.47,359.55Zm64.66-39.68c.23,0,.46-.24.93-.47l.47-.47C1182.59,318.23,1182.13,318.46,1182.13,319.87Z"/>
    <path class="a" d="M1161.82,393.16c-.47-.47-1.17-.93-1.64-1.4a2.48,2.48,0,0,0-1.63-.7c-2.57,0-4-.94-4.67-2.57,0-.47-.93-1.4-2.57-2.57-3.26-2.8-5.13-5.6-5.83-8.17a21,21,0,0,0-1.17-3.26c-.46-.94-.7-3-.46-6.31a38.82,38.82,0,0,1,1.16-7.7,65.52,65.52,0,0,1,6.54-13.77,105.2,105.2,0,0,1,9.57-13.54c.47-.47,1.63-1.63,2.8-3,1.4-1.4,2.8-3.27,4.67-5.14a193.54,193.54,0,0,1,15.17-15.87c5.37-5.14,11.9-11.21,19.61-18,5.83-4.9,10.27-8.63,13.3-10.73a8.67,8.67,0,0,0,3.27-1.87,8,8,0,0,1,2.1-1.4,61.79,61.79,0,0,1,6.07-3.27,33.33,33.33,0,0,1,6.3-2.8,13,13,0,0,1,3.5-.93,21.05,21.05,0,0,1,4.44-.24,16.45,16.45,0,0,1,5.6.7,30.36,30.36,0,0,1,5.14,2.8c3,2.11,5.6,5.61,7.93,10a14.48,14.48,0,0,1,1.64,3.74c.23,0,2.33-.94,6.3-2.8a30.58,30.58,0,0,1,7.23-2.81,12.39,12.39,0,0,1,5.61.47,10.09,10.09,0,0,1,4.66,2.57,11.51,11.51,0,0,0,4.91,3.73c4,2.1,6.3,5.84,7.47,10.74a12,12,0,0,1,.93,2.34l1.4,2.8c.47,1.4.93,2.33,1.17,3s.46,1.63.93,2.8c.23,1.17.47,2.57.93,4.44.24,1.86.47,4.43.94,7.7,1.17,8.17,2.1,14.47,2.8,18.67s1.4,7,2.33,8.64c1.17,2.1,1.87,3.5,2.1,3.73,1.64,1.4,4.91,1.87,10,1.64a55.47,55.47,0,0,0,14-2.57,58.14,58.14,0,0,0,9.33-4.43c2.57-1.41,6.31-4,11-7.24a169.32,169.32,0,0,0,14-11.44,183,183,0,0,0,13.3-13.54c1.87-2.1,4-4.43,5.84-6.3,1.87-2.1,3.27-3.27,3.73-4l1.64-2.56-1.17,2.1c-5.13,9.33-13.07,19.14-23.57,28.94a54.61,54.61,0,0,1-5.14,4.67c-2.1,1.87-4,3.5-6.07,5.13-1.87,1.64-3.73,3-5.13,4.44-1.64,1.17-2.34,2.1-2.8,2.33-.94,0-1.17.47-1.17,1.17,0,.47-.23.93-.47.93l-.47.47c0,.47,1.41-.23,4.21-2.33s6.53-5.14,11.2-8.87a168.1,168.1,0,0,0,15.17-14.48,158.47,158.47,0,0,0,13.07-15.63,2,2,0,0,1,.94-1.64,1.21,1.21,0,0,1,.93-.47c.47,0-.7,2.81-3.73,8.17a30.12,30.12,0,0,0-2.1,3.27,3.87,3.87,0,0,0-.47,1.17.51.51,0,0,1-.47.47l-1.63,2.56a12.46,12.46,0,0,0-1.4,1.87A14.13,14.13,0,0,0,1384,329a1.85,1.85,0,0,0-1.16,1.63c.23,0,.93-.46,2.1-1.63s1.63-1.64,1.63-1.4a23.68,23.68,0,0,1-2.1,2.8c-1.17,1.63-2.33,3.5-4,5.6s-2.56,3.5-3,4a34.25,34.25,0,0,0-2.1,2.8l-4.67,4.67-3.74,3.73c-.23,1.17-.7,1.64-1.16,1.64,0-.24-.24-.24-.47-.24a1.25,1.25,0,0,0-.47.94l-1.16,1.16a.86.86,0,0,0-.94.94l-.46.93a5.47,5.47,0,0,0-2.81,2.1,17.53,17.53,0,0,1-5.83,4.9c-10.5,7.71-20.07,10.74-28.48,9.11-4-.47-8.17-2.34-12.6-5.37a42.5,42.5,0,0,1-11-10.27c-7-9.1-11.44-23.11-13.77-41.78-.47-3.5-.94-5.84-1.17-6.77s-.94-1.17-2.1-.7c-.47,0-2.57,1.4-5.84,4s-7.23,5.83-11.67,9.57-9.1,7.7-13.77,11.9c-4.9,4.2-9.34,8.4-13.54,12.14a6.58,6.58,0,0,1-1.4,1.17,1.76,1.76,0,0,0-.93.93c-.47.23-.94.47-.94.93-.23,0-1.4.94-3.27,2.8l-4.9,4.91a3.14,3.14,0,0,1-2.1,1.16l-1.63,1.64c-1.4,1.4-3.5,3.26-6.54,5.83-2.8,2.57-7.7,6.77-14.7,12.84-4.67,4-8.87,7-12.14,9.34a97.28,97.28,0,0,1-10,6.07c-7,3.5-11.67,4.66-14.47,2.8a4,4,0,0,0-.93-.7c-.24.23,0,.46.7.93.23.23.23.47-.47.47A29.32,29.32,0,0,1,1161.82,393.16Zm-8.64-24.74.94-1.64a3,3,0,0,0,.93-1.63,8.07,8.07,0,0,1,.93-2.34c.47-1.16,1.17-2.56,1.64-4a84.58,84.58,0,0,1,5.13-9.11,93.19,93.19,0,0,1,6.54-8.63c.47-.47.93-1.17,1.4-1.64a2.09,2.09,0,0,0,.7-1.16,16.85,16.85,0,0,1,2.8-3,4.88,4.88,0,0,1,1.87-1.4v-.47l.46-.93c.47,0,.94-.23.94-.47a4.78,4.78,0,0,1,1.17-2.1c.46-.23.93-.46.93-.93.23-.24,0-.47-.23-.47a1.21,1.21,0,0,1,.93-.47c.93-.23,1.17-.7,1.17-1.16s.23-.94.46-.94.7-.46,1.17-1.16c.23-.94.7-1.17,1.17-1.17a1.22,1.22,0,0,0,.46-.93.51.51,0,0,1,.47-.47,1.29,1.29,0,0,0,1.17-.7c.23-.47.23-.7,0-.93,0-.24.23-.47.93-.47.24,0,.47-.24.47-.94a.5.5,0,0,1,.47-.46c.93,0,1.16-.47,1.16-1.17l2.57-2.57c1.4-1.4,1.87-2.1,1.63-2.1a.5.5,0,0,1,.47-.46c.23,0,.47-.24.93-.47l1.17-1.17c.47-.23.94-.47.94-.93.23-.24,0-.47-.24-.47l.47-.47c.23-.23.47-.46.47-.7s.23-.23.93-.7l1.17-1.16a1.24,1.24,0,0,0,.46-.94.5.5,0,0,1,.47-.46c.23-.24.7-.47,1.17-.94.93-.23,1.63-1.16,2.57-2.57l3.26-3.26c1.17-1.17,2.1-1.87,2.8-2.57l1.64-1.63a.51.51,0,0,1-.47-.47,1.23,1.23,0,0,1,.94-.47,12.33,12.33,0,0,0,2.8-2.1c1.4-1.4,3-2.8,4.66-4.67a3.51,3.51,0,0,1,.94-.7c.23-.23.47-.23.93-.7l.47-.46a9.69,9.69,0,0,0,2.8-1.64c1.4-1.17,2.33-1.87,2.33-2.1h-1.4c-.23-.47-.46-.7-.93-.7a1.22,1.22,0,0,0-.47.93c0,.24,0,.47.24.47s.23-.23.23-.47l.93-.46-1.16,1.16c-.94.47-1.17.47-.94,0,.24-.93-.46-.46-2.57,1.17-1.86,1.4-3.5,2.34-4.43,3s-3,2.33-6.07,5.13c-1.17,1.17-3,2.8-5.83,5.37s-5.61,5.13-8.41,8.17c-2.8,2.8-5.6,5.6-7.93,8.17s-4,4.43-4.67,5.13a19.33,19.33,0,0,0-1.87,2.1,18.67,18.67,0,0,1-1.87,2.11c-1.16,1.63-2.1,2.8-2.8,3.73-1.4,1.63-2.8,3.5-4.43,5.14-1.4,1.86-2.8,3-3.5,4-2.1,3-4,5.37-5.37,7.24a21.58,21.58,0,0,0-2.8,4.43,49.48,49.48,0,0,0-4.67,9.34c-1.4,3.74-2.34,6.3-2.8,7.7a3.28,3.28,0,0,0-.47,1.4,1.21,1.21,0,0,1-.47.94c0,.47.24.93.47.93Zm4.2,19.37-.93-.47c-.47.24-.7.47-.47.94a1.81,1.81,0,0,0,1.17.46C1157.85,388.49,1157.85,388.26,1157.38,387.79ZM1181,355.11a26.42,26.42,0,0,1,4.2-3.27,51.77,51.77,0,0,0,5.84-4.66c1.86-1.64,3.73-3.27,5.36-4.67a21.58,21.58,0,0,1,3.74-2.8c.47-.47,1.63-1.64,3.27-3s3.27-3,4.9-4.43,4-3.27,7-6.07c3-2.57,5.84-5.14,8.17-7.24,2.8-2.1,5.37-4.43,7.94-6.53s4.2-3.51,4.9-4.21c1.4-1.4,3.5-3.26,6.3-5.6s6.54-5.13,10.51-8.4c3.5-3.27,5.36-5.14,5.36-5.37a8.57,8.57,0,0,0-1.63-4.43,12.68,12.68,0,0,0-2.8-3.51c-.47-.46-.93-.93-1.4-.93a7.28,7.28,0,0,0-2.8.93c-.94.24-1.87.7-3.27,1.17s-2.57,1.17-3.74,1.64c-1.86,1.4-4.43,3.26-7.46,5.6a66.88,66.88,0,0,0-6.54,5.6,9.92,9.92,0,0,0-1.87,1.63,6.51,6.51,0,0,1-2.33,2.1l-4.67,4.67q-3.15,3.85-7.7,8.41c-2.8,3.26-4.67,5.13-5.14,5.6l-1.63,1.63a17,17,0,0,0-2.8,3.74,21.76,21.76,0,0,0-3.27,3.73c-.93,1.17-1.4,1.64-1.64,1.64a8.18,8.18,0,0,0-1.63,2.1,12.3,12.3,0,0,0-1.63,1.86,19.73,19.73,0,0,0-1.64,2.34,49.2,49.2,0,0,0-3.5,4.67c-.93,1.4-1.63,2.1-1.87,2.56l-.93.94a4.61,4.61,0,0,0-.93,1.4c-.94,1.4-1.4,2.1-1.64,2.1a3.44,3.44,0,0,0-.7.93,3.51,3.51,0,0,0-.7.94,7.36,7.36,0,0,1-1.16,1.63c-.94,1.17-1.64,2.8-2.81,4.67-.93,2.1-1.16,3-.7,3,.24,0,.47-.23.94-.46a3,3,0,0,1,.93-.7C1180,356.05,1180.26,355.58,1181,355.11Zm12.84,4.2a1,1,0,0,0,0-1.16.5.5,0,0,0-.47.46c.47,0,.47.24,0,.94l-.47.46C1193.1,359.55,1193.56,359.55,1193.8,359.31Zm2.8-4.67.93-.46v-.47a.51.51,0,0,1-.47.47l-.93.46-.47.94Zm3.27-.93c.46-.47.7-.93.46-.93-.46,0-.7-.24-.46-.47,0-1.17-.24-1.17-.94,0a1.55,1.55,0,0,0-.93,1.17l.47.93c-.24.23-.24.47,0,.47Zm-1.17,0c0-.23.23-.47.47-.93a.49.49,0,0,1,.46.46v.47C1198.93,354.41,1198.7,354.41,1198.7,353.71Zm9.57-7a25.24,25.24,0,0,0,4-2.8c1.16-.94,2.1-1.64,2.8-2.34l2.57-2.56a17.36,17.36,0,0,1,3.26-2.81c1.17-1.16,2.1-2.1,2.8-2.8a5.72,5.72,0,0,1,2.11-1.63,1.27,1.27,0,0,0,1.16-.7,6.3,6.3,0,0,1,1.17-1.4,23,23,0,0,1,3.27-2.8c.93-.94,2.1-2.1,4.2-4,1.87-1.87,3.73-3.27,5.37-4.67l1.16-1.17a1.24,1.24,0,0,1,.94-.46,9,9,0,0,0,2.57-2.1c1.4-1.4,1.86-2.1,1.63-2.1-.93,0-.93-.47-.47-1.17.47-.47.47-.47-.46,0l-2.8,2.8-1.64.93H1241a.83.83,0,0,1-.24.7.88.88,0,0,0-.23.7c-.47,0-1.87.94-3.73,2.8-.94.94-1.87,1.64-3,2.81a35.35,35.35,0,0,0-2.8,2.33,36.34,36.34,0,0,1-3,2.8,18.58,18.58,0,0,1-3.5,2.8c-3.51,3.27-6.54,5.84-8.41,7.94-2.1,1.87-3.27,3.27-4,3.73-.23.24-.46.47-.7.47s-.46.23-.7.47l-.46.46a4.16,4.16,0,0,0-1.64,1.17c-.46.93-.93,1.17-1.16,1.17l-.94.93c-.23.23-.7.47-.93.94a2.36,2.36,0,0,0-.94,1.16c-1.86,1.64-3,2.34-3.26,2.1l-.94.94a4.14,4.14,0,0,0-.7.93c.24,0,.24-.23.7-.93h.94a.86.86,0,0,0,.93-.94,1.79,1.79,0,0,1,1.17-.46v.93c-.94.47-1.17.93-1.17,1.4s.23.47.93-.23A12.05,12.05,0,0,1,1205,350,14.4,14.4,0,0,1,1208.27,346.71Zm-4.2,3c-.24-.23.23-.93,1.16-2.33,1.17-1.17,1.87-1.87,2.11-1.87.46,0,1.4-.7,2.8-2.1l1.63-1.63a1.19,1.19,0,0,1,.93-.47c.47,0,1.4-.7,2.81-2.33,1.4-1.41,2.1-2.34,2.1-2.81v-.46c.23.46.7.46,1.16,0s.7-.7.47-.24a5.84,5.84,0,0,1-1.17,1.4c-.93.94-1.4,1.17-1.63,1.17s-.23.24,0,.47a.51.51,0,0,1-.47.47l-2.57,2.56-1.63,1.64a1.22,1.22,0,0,1-.93.46l-3.74,2.81-2.33,2.33C1204.53,349.74,1204.07,350,1204.07,349.74Zm1.16-1.4c.94-.93,1.17-1.16.94-1.16l-1.17,1.16a1.25,1.25,0,0,0-.47.94.49.49,0,0,1-.46.46Zm7.24-5.6.47-.93-.47.46c-.23,0-.47,0-.47.24s-.23.23-.46.23l-.47.93a.5.5,0,0,1,.47-.46C1211.77,343,1212,343,1212.47,342.74Zm7.47-7.94.93-.93c.47-.23.7-.23.47.47C1220.17,335.27,1219.94,335.27,1219.94,334.8Zm1.63-50.18a1.25,1.25,0,0,1,.94-.47c0,.24-.24.47-.47.94C1221.57,285.32,1221.57,285.32,1221.57,284.62Zm.7,48.55.94-.93C1222.51,333.4,1222.27,333.64,1222.27,333.17Zm7-52.75c.23,0,.46,0,.46-.24s.24-.23.47-.23l.47-.47c0-.46-.94-.23-2.57.94l-.93.93h-.24a.71.71,0,0,0-.46-.23c0,.23.23.46.46.7,0,.46,0,.93.24.93s.23-.23.23-.93C1227.64,281.58,1228.34,281.12,1229.28,280.42ZM1227.64,329c0-.23.24-.47.47-.94l1.63-1.63c1.4-1.63,2.34-2.1,2.8-1.63.24.23.24.46,0,.46-.46-.23-1.63.24-2.8,1.4-1.4,1.17-1.86,2.11-1.63,2.34v.47A.51.51,0,0,1,1227.64,329Zm5.14-51.35c-.24,0-.47.23-.94.46a4.31,4.31,0,0,0-.7.94c.24.23.47,0,.94-.24C1232.78,278.32,1233,277.85,1232.78,277.62Zm1.63,44.81,1.17-1.16c.47-.47.93-.94,1.17-.94.23-.23.23,0,0,.24v.93a2,2,0,0,0-1.64.93C1234.65,322.43,1234.41,322.67,1234.41,322.43Zm4.9-4.2,1.17-1.17c.47,0,.93.24.93.47l-.93.47c-.23,0-.7.23-1.17.93C1238.85,319.16,1238.85,318.93,1239.31,318.23Zm2.1-2.57.47-.46c.23,0,.47-.24.94-.47.23,0,.7-.23,1.16-.93,1.17-1.17,1.87-1.4,2.57-1.17,0,.23-.23.47-.93.47l-.94.93a7.77,7.77,0,0,1-2.1,1.63C1241.88,316.36,1241.41,316.36,1241.41,315.66Zm8.17-4.9c.47-.47.47-.7,0-.47a4,4,0,0,1-.93.71c-.23-.24,0-.47.23-.94a.5.5,0,0,0-.46-.47l-.47.94c0,.23-.23.47-.47.93s-.23.7.47.7A9.38,9.38,0,0,0,1249.58,310.76Zm0-2.57c.47-.46.47-.7,0-.46l-.93.93v.47Zm2.1-.7c.24-.46.24-.7-.46-.46-.47.93-.7,1.16-.47,1.16Zm3-2.56c.23-.47.23-.47-.47,0-1.16.46-1.16.93-.46.93Zm2.8-.47a.51.51,0,0,0-.47-.47c-.46,0-.7.24-.46.47a.5.5,0,0,0,.46.47A.51.51,0,0,1,1257.52,304.46Zm2.1-2.1h0a.51.51,0,0,0-.47-.47l-.46.47.46.47C1259.39,302.83,1259.62,302.83,1259.62,302.36Zm36,5.13c0-1.63-.24-2.8-.94-3.26-.46-.24-.46.23,0,1.16a2.87,2.87,0,0,0,.24,1.4,3,3,0,0,1,.23,1.4c.23,1.4.47,1.87.7,1.64S1295.8,308.89,1295.57,307.49Zm.46,4.44V314Q1296.74,313.33,1296,311.93Zm.94,4.2c-.24-.23-.47,0-.47.93s.23,1.17.47.94Zm1.63,12.37a34.19,34.19,0,0,0-.93-5.6c-.23-1.4-.47-2.57-.47-3-.23-.94-.47-.71-.47.46a32.94,32.94,0,0,0,.47,3.74,53.46,53.46,0,0,0,.94,5.37,44,44,0,0,0,1.63,6.53c.23-.23.23-1.17,0-2.57C1299.54,332.24,1299.07,330.6,1298.6,328.5Zm83.57,1.64c0-.24-.24-.24-.7,0a2.36,2.36,0,0,0-.94,1.16l-.46,1.17.93-1.17.93-.93C1381.7,330.37,1381.93,330.14,1382.17,330.14Z"/>
    <path class="a" d="M1446.36,464.35a40.59,40.59,0,0,1-10.74-4.67,54.23,54.23,0,0,1-10.74-8.63,66.84,66.84,0,0,1-10.27-11.91,191.57,191.57,0,0,1-10-17.74c-7.46-15.17-12.37-33.38-14.93-54.62q-.36-3.15-.7-9.1c-.24-4-.24-7.94-.24-11.91V333.64c0-4,.24-7.24.47-9.81.47-8.17,1.17-15.87,2.1-22.87s2.33-15.64,4.67-26.61c.23-.94.7-2.34,1.17-4.67.46-2.1,1.16-4.67,1.86-7.47s1.4-5.6,2.1-8.17c.7-2.8,1.4-5.13,1.87-7q1.75-5.25,3.5-11.91c1.17-4.2,2.57-8.4,4-12.13,1.4-4,2.8-7.47,4-10.74s2.33-5.84,3-7.94l.94-1.63.93-2.57a5.76,5.76,0,0,1,.93-1.63,3.87,3.87,0,0,0,.47-1.17c2.1-4.9,4-9.1,5.6-12.37,1.4-3.27,3-6.54,4.67-10,1.17-2.57,2.1-4.43,2.8-6.07.94-1.4,1.64-3,2.57-4.67a50.46,50.46,0,0,0,2.8-5.13c1.17-1.87,2.57-4.67,4.67-7.94.93-1.63,2.1-4,4.2-7.23a82.16,82.16,0,0,1,6.3-9.34,223.18,223.18,0,0,1,17.28-22.17,198.39,198.39,0,0,1,17.5-16.81,105.25,105.25,0,0,1,9.34-6.54,28.3,28.3,0,0,1,7.7-3.26q7.71-1.75,13.31,2.8a22.74,22.74,0,0,0,4.9,3.73c2.8,1.64,4.67,4.67,5.83,8.64.24.46.47,1.4.94,2.57a6.48,6.48,0,0,0,1.17,2.56,5.17,5.17,0,0,1,1.4,2.8,22,22,0,0,1,.23,4.67,18.88,18.88,0,0,1,0,5.14c-.23,1.16-.7,3-1.17,5.6a50.57,50.57,0,0,1-2.8,10,80.08,80.08,0,0,1-3.5,9.33c-.47,1.17-1.4,2.8-2.33,5.14s-2.11,4.67-3.27,7.23-2.8,5.61-4.67,9.11h-.47a6.12,6.12,0,0,1-.7,2.33c-.46.94-.7,1.17-.93.7a.51.51,0,0,0-.47.47v1.17c-.23,1.16-.47,1.63-.93,1.16-.24-.23-.47,0-.47.94,0,.46,0,.93-.23.93-.24.23-.24,0-.24-.7-.23-.47-.46-.47-.46.47s-.24,1.16-.47.93a1.22,1.22,0,0,0-.47.93c0,.47-.23.71-.46.47s-.47,0-.47.94-.23,1.16-.47.93c-.23-.47-.46-.47-.46.47,0,.46,0,.93-.24.93-.23.23-.23,0-.23-.23-.23,0-.47.23-.47.93.47,1.17.47,1.4,0,.93-.23-.23-.7,0-.93.7a3.69,3.69,0,0,0-.7,1.87c0,.47-.23.7-.47.47s-.47-.24-.47,0a1.78,1.78,0,0,1-.46,1.16c-.24,0-.7.47-1.17,1.41a6,6,0,0,0-.93,2.33c0,.47-.24.7-.47.47-.23-.47-.47-.24-.47.93,0,.93-.23,1.17-.46.93s-.47,0-.94.94c0,.93-.23,1.16-.93,1.16,0-.23,0-.23-.23.24a2.87,2.87,0,0,0-.24,1.4c.24.23.24.47-.46.47,0-.24,0-.24-.24-.24-.23.24-.23.24-.23.7a1.25,1.25,0,0,0-.47.94.49.49,0,0,1-.46.46l-.47.47c0,.23,0,.47-.24.47s-.23.23-.23.46l-.47.94a.49.49,0,0,1-.46.46c-.24,0-.7.47-1.17,1.64,0,1.16-.23,1.63-.93,1.63-.47,0-.94.47-.94,1.64-.46,1.16-.93,1.63-.93,1.16-.23,0-.93.94-1.63,2.57l-.94,1.63-.47.47c-.46,0-1.4,1.17-2.56,3.74a17.44,17.44,0,0,1-2.8,4.66,39.26,39.26,0,0,0-3,4.67,74,74,0,0,1-4.67,6.3,20.91,20.91,0,0,0-2.56,4.21,31,31,0,0,0-2.57,3.26l-.94.94c0,.23-.23.46-.46.7a1.18,1.18,0,0,0-.47.93,4.16,4.16,0,0,1-1.17,1.64,8.24,8.24,0,0,0-1.63,2.56c-.47.94-1.87,2.8-3.73,5.61a50,50,0,0,1-3.74,5.13c.23,0-.23.7-1.63,2.1l-.94,1.64-.46.46-1.64,2.57.47-.23a1.21,1.21,0,0,0-.47.93c-.23.23-.93,1.17-2.33,2.8a39.26,39.26,0,0,0-3,4.67c-.46.47-.93,1.17-1.4,1.63s-.7.94-.93,1.17-.93,1.17-2.1,2.57-3.5,4.43-7,9.1c-2.81,3.5-5.61,7-8.64,10.51s-5.6,6.3-7.94,8.87a6,6,0,0,1-1.4,1.16,2.36,2.36,0,0,0-.93,1.17c-.47.47-.93.93-.93,1.17a4.89,4.89,0,0,1-1.17,2.1,7.84,7.84,0,0,0-1.87,4,78.63,78.63,0,0,0-1.4,9.8,316.34,316.34,0,0,0-1.87,39,295.14,295.14,0,0,0,2.34,34.31q1.4,7,2.8,14.71c1.17,5.13,1.87,8.63,2.57,10.5q1.39,3.85,3.5,8.41c1.4,3.26,2.56,5.36,3,6.76a35.68,35.68,0,0,0,4.44,6.54c1.86,2.1,3.73,4,5.6,6.07a29.83,29.83,0,0,0,21,8.17,17.56,17.56,0,0,1,2.8-.47,2.24,2.24,0,0,0,1.63-.46c.94-.47.94-.47.7,0a6.79,6.79,0,0,1-1.87,1.63l-2.1.93,1.64.47h2.1c1.17-.23,1.63-.23,1.4.23s-.93.94-2.34,1.4l-2.1,1.17,1.64-.47h1.16l-.93.94-.93,1.63,1.16-.47q1.75-.35,1.41,0a6.58,6.58,0,0,1-2.34,1.17Q1453.36,466.81,1446.36,464.35Zm-39.68-60.92a88.64,88.64,0,0,1-2.81-13.77c-.93-5.14-1.63-9.57-2.1-12.84a25.6,25.6,0,0,0-.93-4.9c-.23-1.4-.47-2.1-.47-2.57a1.21,1.21,0,0,1-.93.47v.93c.47,0,.93.7.93,2.1a45.74,45.74,0,0,0,.94,11.67c.93,4.9,1.63,9.34,2.56,13.31a53.18,53.18,0,0,0,2.1,6.53c.94,2.57,1.17,3.5,1.17,3.27C1407.38,407.63,1407.14,406.23,1406.68,403.43Zm-3.74-117.18c1.17-4.43,2.33-9.33,3.74-14.7s2.8-10.74,4.43-16.11c1.4-5.37,3-10.5,4.67-15.64,1.63-4.9,3.27-9.57,4.9-13.77,2.1-5.83,4.67-12.37,7.7-19.37a170.63,170.63,0,0,1,7.71-17.51,1.22,1.22,0,0,0,.46-.93c0-.24.24-.47.47-.94,0-.23.23-.46.47-.93v-.93a21,21,0,0,0,1.86-3.27c.94-1.87,2.1-4.2,3.51-6.54,1.4-2.57,2.56-4.67,3.5-6.53a20.45,20.45,0,0,1,1.86-3.27c0-.23.24-.47.47-.94l.93-1.63,6.31-10.27c.23-.23.46-.7.7-.93a4.61,4.61,0,0,1,.93-1.4l.93-1.64v-.46l.94-.94c.47-.46.93-.93.93-1.17s.24-.7.94-1.16l.46-.47c-.23,0,.24-.93,1.64-2.8s2.1-3.27,2.1-3.73l.93-.94c.23-.23.7-.93,1.4-1.63a3.28,3.28,0,0,0,.94-2.1.5.5,0,0,0,.46-.47c0-.23.24-.47.47-.93a42.31,42.31,0,0,0,3.73-4.91c1.87-2.8,3.27-4.2,3.74-4.2l-.47-.46a1.06,1.06,0,0,1,0-1.17c.23-.23.7-.23,1.17.47.23,0,.23-.24,0-.47,0-.23.23-.47.47-.93v-.94c0-.23.23-.47.46-.93,1.4-1.4,2.8-2.8,4.2-4.44,1.4-1.4,2.1-2.33,2.1-2.8V111c.47,0,.94-.24.94-.47a1.25,1.25,0,0,0-.94-.47c-.23.24-.46.47-.7.47s-.46.23-.7.47l-.93.93c.23.23-.7,1.63-2.8,3.73-1.63,1.87-3,3.27-4,4.44a51.52,51.52,0,0,0-4.67,6.07c-1.63,2.1-2.8,3.73-3.73,4.67-.94,1.16-2.1,3-4,5.6s-3.73,5.6-5.84,8.63c-2.1,3.27-4,6.31-6.06,9.57-1.87,3.27-3.51,5.84-4.67,7.71-.47.93-.94,1.86-1.4,2.8-.47,1.17-.7,1.87-.94,2.57a164.18,164.18,0,0,0-7.93,15.17c-3,6.53-5.61,12.14-7.94,16.8-1.17,2.81-1.87,4.44-2.1,4.91-.93,2.1-1.87,5.13-3.27,8.63s-2.8,7.47-4.2,11.44-2.8,7.94-4,11.67-2.33,6.77-3,9.34c-1.17,3.5-2.1,7.47-3.27,11.44a108.43,108.43,0,0,0-2.8,11.9c-.94,4-1.64,7.47-2.34,11s-1.16,6.3-1.4,8.4c-.46,1.87-.7,2.57-.23,2.1C1401.77,290.22,1402.24,288.82,1402.94,286.25ZM1424,297c2.1-2.8,4.43-5.6,6.77-8.4s3.73-4.67,4.43-5.14a10.52,10.52,0,0,1,2.57-3.27c.23-.23.47-.46.47-.7s.23-.23.46-.7c0-.23.24-.46.47-.93-.23,0-.47.23-.93.47-.24.23-.47.23-.47,0a.5.5,0,0,0-.47.46l-.93,1.64c-1.17,1.16-1.63,1.86-1.63,2.1s-.24.47-.47.93l-1.64,1.64a17.52,17.52,0,0,0-2.8,3.73,6.23,6.23,0,0,0-1.16,1.4,2.31,2.31,0,0,1-1.17.93l-.93,1.64-.47.47c-.23-.24-1.17.7-2.8,2.8a21.3,21.3,0,0,1-2.34,2.8l-2.33,2.33c-.47.47-.93,1.17-1.4,1.64a2.48,2.48,0,0,0-.7,1.63C1416.48,305.39,1419.05,302.83,1424,297Zm5.37-21.94c3.5-4.9,6.77-9.34,9.57-13.31s5.37-7.7,7.93-11.43,5.14-7.47,7.71-11.44,5.36-8.17,8.4-13.31c7.94-13.07,14.7-24,19.84-33.14s10.27-18,14.94-26.84q7.69-15.77,11.9-26.61a164.31,164.31,0,0,0,6.31-22.88q1.74-6,1.4-7c-.24-.94-.94-.94-2.34-.47a38.75,38.75,0,0,0-4.67,3.5c-2.1,1.87-4.67,3.74-7.23,6.07-2.57,2.1-5.14,4.67-7.47,7-2.34,2.57-4.2,4.67-5.6,6.31a25.85,25.85,0,0,0-3.27,4.2c-1.4,1.86-2.8,4-4.44,6.07s-2.8,4-4.2,5.83c-1.17,1.87-2.1,3-2.8,4-1.17,1.63-1.87,2.57-2.1,2.57v.46c0,.24-.23.47-.47.94a7.14,7.14,0,0,0-1.16,1.63c-.24.47-.7,1.17-.94,1.64a8.3,8.3,0,0,0-1.4,2.56,3.21,3.21,0,0,0-1.17,2.1c0,.24-.23.47-.46.94-.24,0-.47.23-.94.93a5.15,5.15,0,0,1-1.16,1.87,4.49,4.49,0,0,0-1.17,2.1,4.49,4.49,0,0,1-1.17,2.1,7.79,7.79,0,0,0-1.63,3.27c0,.23-.24.47-.47.93a7.48,7.48,0,0,0-1.17,2.1,9.94,9.94,0,0,0-1.63,2.8c0,.24-.23.7-.93,1.17a4.94,4.94,0,0,0-.94,1.63c-.23.71-.46,1.41-.23,1.64l-.47.47c-.23,0-.93,1.16-2.33,3.26-1.17,2.1-1.64,3.5-1.4,3.74a.5.5,0,0,0-.47.47l-.47.93c-.46.47-.7.93-.46.93v.47c0,.23,0,.47-.24.47s-.23.23-.23.46c-.47.47-.93.94-.93,1.17a2,2,0,0,1-.94,1.63l-.46.94c.23,0,0,.46-.94,1.16-.46.94-.46,1.17,0,1.17.24-.23.24-.23,0,.47a8.31,8.31,0,0,0-1.63,2.57c-.47,1.16-.7,1.63-.47,1.63l-.47.47-.46.93c.23,0,.23.23,0,.47a6.93,6.93,0,0,0-1.17,2.1c-.47,1.17-.7,1.63-.47,1.63,0,.24-.23.47-.46.94-.47.46-.7.93-.47,1.16a.5.5,0,0,1-.47.47c-.23,0-.46.47-.46,1.17a1.18,1.18,0,0,0-.47.93c0,.23-.23.47-.47.93l-.46.94v.46a1.77,1.77,0,0,0-.47,1.17c0,.24-.23.47-.47.94a1.06,1.06,0,0,0-.93,1.16c0,.47-.23.94-.47.94a1.79,1.79,0,0,0-.47,1.16v.94c-.23,0-.46.23-.46.93.23,0,.23.23-.47.93a1.82,1.82,0,0,0-.47,1.17c0,.47-.23.93-.46.93-.94,0-.94.24-.47.94.93,0,.7.23-.47.93-.46.47-.7.94-.46,1.17.93,0,.7.23-.47.93-1.17.47-1.17.94-.47.94.24,0,.24.23,0,.46a3,3,0,0,0-.93,1.64c0,.23-.23.7-.93,1.16-.24,0-.47,0-.47.24s.23.23.93.23c.24,0,.24.23,0,.47A1.79,1.79,0,0,0,1430,240c.23.23.23.46-.47.46-.23.24-.23.47,0,.94a.5.5,0,0,0-.47.46l-.46.94c-.47.46-.47.93,0,.93.23-.23.46-.23.46,0a.5.5,0,0,1-.46.47c-.24,0-.47.23-.47.93v.93l-.94.94c0,2.8-.46,4.2-1.16,4.2-.47,0-.7.23-.47.47.47.23.7.46.47.93-.24,0-.47.23-.47.93,0,.24-.23.47-.47.94-.46.46-.46.93,0,.93,0,.23-.23.47-.46.93-.47,0-.94,0-.94.24s.24.23.47.23c.47,0,.47.24,0,.94l-.47.93a9.35,9.35,0,0,1-.7,2.8,6.11,6.11,0,0,1-1.4,2.57v.46a2.38,2.38,0,0,1,.94-.23,8.52,8.52,0,0,1-.94,2.34,5.79,5.79,0,0,1-.93,1.63,4,4,0,0,0-.47,1.17c-.23,0-.47,0-.47.23s.24.23.47.23,0,1.4-.93,4a18.76,18.76,0,0,1-2.1,4.67c-.24.23-.24.47,0,.47.23-.24.46-.24.46.46,0,.47-.23.94-.46.94a30.92,30.92,0,0,1-1.17,5.83,17.8,17.8,0,0,1-.93,3.74c-.24,1.16-.47,1.86-.47,2.1C1417.18,290.92,1421.15,286.49,1429.32,275.05Zm-9.81,20.77c.47-.46,2.1-2.33,4.44-5.13s4.9-6.3,7.93-10c2.81-3.73,5.84-7.47,8.64-11.44s5.37-7.23,7.24-10c.93-1.4,2.56-4,4.9-7.47,2.57-3.5,5.13-7.47,7.94-11.67s5.36-8.17,7.93-11.91c2.57-4,4.44-6.77,5.84-8.64,4.67-7.23,8.4-13.07,11.43-18,2.81-4.9,4.44-7.47,4.44-8.17a.5.5,0,0,1,.47-.46l.46-.47a1.21,1.21,0,0,0,.47-.94,7.22,7.22,0,0,1,1.17-2.1,16.5,16.5,0,0,0,2.1-3.5,41,41,0,0,1,2.57-4.67,35.76,35.76,0,0,0,2.1-4.2c.46-1.16,1.4-2.8,2.8-5.37s2.8-5.13,4.2-8.17c1.4-2.8,2.8-5.6,4-8.17s2.1-4.66,2.8-6.06c1.4-3,2.8-6.54,4.2-10.27a86.89,86.89,0,0,0,2.8-9.11,19.71,19.71,0,0,1,.93-3.5,32.43,32.43,0,0,1,.94-4c.23-1.4.47-2.8.93-4.67-.23-.23-.46.24-.93,1.64a73.17,73.17,0,0,1-2.1,7.7c-1.17,3.74-2.1,7-3.27,10a296.31,296.31,0,0,1-17,35.71c-7.47,13.54-17,29.65-28.94,48.09-.24.46-.94,1.63-1.87,3.26s-2.1,3.27-3,4.67a68.06,68.06,0,0,1-3.73,5.84,62.83,62.83,0,0,1-4.2,6.3c-2.57,3.5-4.67,7-6.54,9.8-3,4.2-6.53,9.11-10.73,14.94s-8.41,11.44-12.84,17c-3.27,4.44-5.61,7.7-7,9.81s-2.1,3.26-2.1,4C1417.88,297.69,1418.35,297.46,1419.51,295.82Zm22.65-22.41c0-.23-.24-.23-.47.47-.24.47-.94,1.17-1.64,2.1-.46.47-.93.94-.93,1.17s.47-.23,1.63-1.17A2.92,2.92,0,0,0,1442.16,273.41Zm2.1-1.63a7,7,0,0,1,1.16-2.1c.24-.23.24-.47-.46-.47a1.21,1.21,0,0,0-.47.94l-.47.93a.85.85,0,0,0-.93.93C1442.39,273.41,1442.62,273.41,1444.26,271.78ZM1456.39,459a1,1,0,0,0-1.16,0h1.16Zm25.91-346.16a1.18,1.18,0,0,0,.47-.93c.47-.23.93-.23.93.47a1.2,1.2,0,0,1-.93.46Zm3.74-2.1h0a.51.51,0,0,0-.47-.47l-.47.47.47.47C1486,111.19,1486,111,1486,110.72Z"/>
  </g>
</svg>
